<svg xmlns="http://www.w3.org/2000/svg" xmlns:xlink="http://www.w3.org/1999/xlink" width="500" zoomAndPan="magnify" viewBox="0 0 375 374.999991" height="500" preserveAspectRatio="xMidYMid meet" version="1.0"><defs><g/><clipPath id="fd3a94f404"><path d="M 50 60 L 164 60 L 164 141.480469 L 50 141.480469 Z M 50 60 " clip-rule="nonzero"/></clipPath><clipPath id="8cd71bd468"><path d="M 50.007812 131.492188 L 56.640625 59.761719 L 164.238281 69.710938 L 157.605469 141.441406 Z M 50.007812 131.492188 " clip-rule="nonzero"/></clipPath><clipPath id="264b5e78c1"><path d="M 6 0.121094 L 111 0.121094 L 111 76 L 6 76 Z M 6 0.121094 " clip-rule="nonzero"/></clipPath><clipPath id="3c37c024a4"><path d="M 0.0078125 71.492188 L 6.640625 -0.238281 L 114.238281 9.710938 L 107.605469 81.441406 Z M 0.0078125 71.492188 " clip-rule="nonzero"/></clipPath><clipPath id="f687316bd9"><path d="M 6.601562 0.207031 L -0.0351562 71.941406 L 107.5625 81.890625 L 114.199219 10.160156 Z M 6.601562 0.207031 " clip-rule="nonzero"/></clipPath><clipPath id="26b6f61cc5"><path d="M 40 40 L 57 40 L 57 47 L 40 47 Z M 40 40 " clip-rule="nonzero"/></clipPath><clipPath id="2b03ead3fc"><path d="M 0.0078125 71.492188 L 6.640625 -0.238281 L 114.238281 9.710938 L 107.605469 81.441406 Z M 0.0078125 71.492188 " clip-rule="nonzero"/></clipPath><clipPath id="d4e43b57e2"><path d="M 6.601562 0.207031 L -0.0351562 71.941406 L 107.5625 81.890625 L 114.199219 10.160156 Z M 6.601562 0.207031 " clip-rule="nonzero"/></clipPath><clipPath id="5cd98dac3a"><path d="M 13 29 L 24 29 L 24 34 L 13 34 Z M 13 29 " clip-rule="nonzero"/></clipPath><clipPath id="ea37a38b6a"><path d="M 0.0078125 71.492188 L 6.640625 -0.238281 L 114.238281 9.710938 L 107.605469 81.441406 Z M 0.0078125 71.492188 " clip-rule="nonzero"/></clipPath><clipPath id="ddef080bfd"><path d="M 6.601562 0.207031 L -0.0351562 71.941406 L 107.5625 81.890625 L 114.199219 10.160156 Z M 6.601562 0.207031 " clip-rule="nonzero"/></clipPath><clipPath id="2522a3f5e3"><path d="M 26 33 L 29 33 L 29 35 L 26 35 Z M 26 33 " clip-rule="nonzero"/></clipPath><clipPath id="f26778c2ca"><path d="M 0.0078125 71.492188 L 6.640625 -0.238281 L 114.238281 9.710938 L 107.605469 81.441406 Z M 0.0078125 71.492188 " clip-rule="nonzero"/></clipPath><clipPath id="45c560c280"><path d="M 6.601562 0.207031 L -0.0351562 71.941406 L 107.5625 81.890625 L 114.199219 10.160156 Z M 6.601562 0.207031 " clip-rule="nonzero"/></clipPath><clipPath id="8615610d12"><path d="M 64 41 L 65 41 L 65 43 L 64 43 Z M 64 41 " clip-rule="nonzero"/></clipPath><clipPath id="fd15fe8c85"><path d="M 0.0078125 71.492188 L 6.640625 -0.238281 L 114.238281 9.710938 L 107.605469 81.441406 Z M 0.0078125 71.492188 " clip-rule="nonzero"/></clipPath><clipPath id="b4354c28a8"><path d="M 6.601562 0.207031 L -0.0351562 71.941406 L 107.5625 81.890625 L 114.199219 10.160156 Z M 6.601562 0.207031 " clip-rule="nonzero"/></clipPath><clipPath id="575e485a25"><path d="M 42 68 L 51 68 L 51 73 L 42 73 Z M 42 68 " clip-rule="nonzero"/></clipPath><clipPath id="cdda974490"><path d="M 0.0078125 71.492188 L 6.640625 -0.238281 L 114.238281 9.710938 L 107.605469 81.441406 Z M 0.0078125 71.492188 " clip-rule="nonzero"/></clipPath><clipPath id="8d8894057c"><path d="M 6.601562 0.207031 L -0.0351562 71.941406 L 107.5625 81.890625 L 114.199219 10.160156 Z M 6.601562 0.207031 " clip-rule="nonzero"/></clipPath><clipPath id="44bca14600"><path d="M 53 65 L 57 65 L 57 68 L 53 68 Z M 53 65 " clip-rule="nonzero"/></clipPath><clipPath id="24d99fb07f"><path d="M 0.0078125 71.492188 L 6.640625 -0.238281 L 114.238281 9.710938 L 107.605469 81.441406 Z M 0.0078125 71.492188 " clip-rule="nonzero"/></clipPath><clipPath id="685d354f02"><path d="M 6.601562 0.207031 L -0.0351562 71.941406 L 107.5625 81.890625 L 114.199219 10.160156 Z M 6.601562 0.207031 " clip-rule="nonzero"/></clipPath><clipPath id="434128a13b"><path d="M 57 36 L 59 36 L 59 38 L 57 38 Z M 57 36 " clip-rule="nonzero"/></clipPath><clipPath id="963c7fdee7"><path d="M 0.0078125 71.492188 L 6.640625 -0.238281 L 114.238281 9.710938 L 107.605469 81.441406 Z M 0.0078125 71.492188 " clip-rule="nonzero"/></clipPath><clipPath id="2821c96f46"><path d="M 6.601562 0.207031 L -0.0351562 71.941406 L 107.5625 81.890625 L 114.199219 10.160156 Z M 6.601562 0.207031 " clip-rule="nonzero"/></clipPath><clipPath id="c2f78e57cc"><path d="M 59 37 L 60 37 L 60 39 L 59 39 Z M 59 37 " clip-rule="nonzero"/></clipPath><clipPath id="201dee3bdf"><path d="M 0.0078125 71.492188 L 6.640625 -0.238281 L 114.238281 9.710938 L 107.605469 81.441406 Z M 0.0078125 71.492188 " clip-rule="nonzero"/></clipPath><clipPath id="859f68177a"><path d="M 6.601562 0.207031 L -0.0351562 71.941406 L 107.5625 81.890625 L 114.199219 10.160156 Z M 6.601562 0.207031 " clip-rule="nonzero"/></clipPath><clipPath id="f8fe806b49"><path d="M 56 36 L 58 36 L 58 37 L 56 37 Z M 56 36 " clip-rule="nonzero"/></clipPath><clipPath id="8e7b47ef03"><path d="M 0.0078125 71.492188 L 6.640625 -0.238281 L 114.238281 9.710938 L 107.605469 81.441406 Z M 0.0078125 71.492188 " clip-rule="nonzero"/></clipPath><clipPath id="d069c1e42c"><path d="M 6.601562 0.207031 L -0.0351562 71.941406 L 107.5625 81.890625 L 114.199219 10.160156 Z M 6.601562 0.207031 " clip-rule="nonzero"/></clipPath><clipPath id="c4ee4f5a9a"><path d="M 57 36 L 58 36 L 58 37 L 57 37 Z M 57 36 " clip-rule="nonzero"/></clipPath><clipPath id="c4d4f0054c"><path d="M 0.0078125 71.492188 L 6.640625 -0.238281 L 114.238281 9.710938 L 107.605469 81.441406 Z M 0.0078125 71.492188 " clip-rule="nonzero"/></clipPath><clipPath id="2e6ecbff58"><path d="M 6.601562 0.207031 L -0.0351562 71.941406 L 107.5625 81.890625 L 114.199219 10.160156 Z M 6.601562 0.207031 " clip-rule="nonzero"/></clipPath><clipPath id="e5f8d77543"><path d="M 58 37 L 60 37 L 60 38 L 58 38 Z M 58 37 " clip-rule="nonzero"/></clipPath><clipPath id="ae18408421"><path d="M 0.0078125 71.492188 L 6.640625 -0.238281 L 114.238281 9.710938 L 107.605469 81.441406 Z M 0.0078125 71.492188 " clip-rule="nonzero"/></clipPath><clipPath id="c28144a29d"><path d="M 6.601562 0.207031 L -0.0351562 71.941406 L 107.5625 81.890625 L 114.199219 10.160156 Z M 6.601562 0.207031 " clip-rule="nonzero"/></clipPath><clipPath id="b5239f1db6"><rect x="0" width="114" y="0" height="82"/></clipPath><clipPath id="c863d5dd93"><path d="M 0.800781 0.839844 L 357 0.839844 L 357 109 L 0.800781 109 Z M 0.800781 0.839844 " clip-rule="nonzero"/></clipPath><clipPath id="81715f7814"><rect x="0" width="357" y="0" height="109"/></clipPath><clipPath id="b677f027c6"><rect x="0" width="361" y="0" height="142"/></clipPath></defs><g transform="matrix(1, 0, 0, 1, 10, 117)"><g clip-path="url(#b677f027c6)"><g clip-path="url(#fd3a94f404)"><g clip-path="url(#8cd71bd468)"><g transform="matrix(1, 0, 0, 1, 50, 60)"><g clip-path="url(#b5239f1db6)"><g clip-path="url(#264b5e78c1)"><g clip-path="url(#3c37c024a4)"><g clip-path="url(#f687316bd9)"><path fill="#f6c55d" d="M 64.574219 68.234375 C 65.460938 67.671875 66.394531 67.171875 67.191406 66.46875 C 67.367188 66.328125 67.550781 66.195312 67.742188 66.074219 C 68.175781 65.777344 68.632812 65.511719 69.007812 65.128906 C 69.148438 65.003906 69.300781 64.894531 69.464844 64.800781 C 70.21875 64.296875 70.914062 63.722656 71.550781 63.078125 C 71.898438 62.734375 72.257812 62.402344 72.609375 62.058594 C 73.3125 61.375 73.875 60.574219 74.507812 59.828125 C 74.996094 59.257812 75.46875 58.671875 75.953125 58.09375 C 76.066406 57.945312 76.195312 57.804688 76.335938 57.679688 C 77.007812 57.128906 77.582031 56.480469 78.210938 55.882812 C 78.644531 55.46875 79.113281 55.089844 79.5625 54.691406 C 79.789062 54.492188 80.003906 54.277344 80.226562 54.078125 C 80.621094 53.730469 80.976562 53.34375 81.390625 53.007812 C 81.769531 52.703125 82.097656 52.332031 82.445312 51.988281 C 82.980469 51.464844 83.503906 50.917969 84.085938 50.441406 C 84.285156 50.269531 84.476562 50.085938 84.65625 49.894531 C 85.96875 48.585938 87.386719 47.421875 89.027344 46.535156 C 89.359375 46.355469 89.675781 46.148438 89.988281 45.9375 C 90.914062 45.335938 91.917969 44.921875 93 44.699219 C 93.257812 44.644531 93.511719 44.574219 93.769531 44.515625 C 94.171875 44.421875 94.582031 44.375 95 44.367188 C 95.828125 44.363281 96.65625 44.332031 97.480469 44.308594 C 98.460938 44.269531 99.433594 44.167969 100.398438 43.996094 C 100.734375 43.9375 101.070312 43.898438 101.410156 43.882812 C 102.050781 43.847656 102.683594 43.765625 103.3125 43.636719 C 104.863281 43.328125 106.414062 43.011719 107.957031 42.671875 C 108.542969 42.527344 109.117188 42.355469 109.6875 42.15625 C 109.898438 42.074219 110.097656 41.96875 110.28125 41.835938 C 110.367188 41.761719 110.433594 41.675781 110.480469 41.574219 C 110.570312 41.417969 110.460938 41.160156 110.300781 41.101562 C 110.082031 41.011719 109.863281 41 109.636719 41.070312 C 108.285156 41.5625 106.875 41.800781 105.472656 42.074219 C 104.40625 42.285156 103.335938 42.523438 102.253906 42.671875 C 101.4375 42.789062 100.613281 42.945312 99.789062 42.980469 C 99.488281 42.992188 99.191406 43.058594 98.890625 43.085938 C 98.402344 43.136719 97.914062 43.183594 97.425781 43.214844 C 96.414062 43.285156 95.398438 43.332031 94.386719 43.402344 C 93.035156 43.5 91.6875 43.667969 90.332031 43.707031 C 88.90625 43.75 87.484375 43.929688 86.046875 43.835938 C 85.710938 43.8125 85.371094 43.859375 85.03125 43.882812 C 84.394531 43.921875 83.753906 43.972656 83.117188 43.867188 C 83.003906 43.855469 82.890625 43.855469 82.777344 43.863281 C 81.347656 43.859375 79.921875 43.765625 78.5 43.582031 C 78.425781 43.566406 78.351562 43.5625 78.273438 43.5625 C 77.59375 43.621094 76.929688 43.484375 76.257812 43.386719 C 74.949219 43.195312 73.671875 42.898438 72.441406 42.410156 C 71.566406 42.050781 70.679688 41.742188 69.777344 41.476562 C 69.15625 41.300781 68.558594 41.074219 67.984375 40.792969 C 66.972656 40.292969 65.949219 39.800781 65 39.1875 C 64.039062 38.585938 63.15625 37.886719 62.34375 37.09375 C 61.734375 36.484375 61.09375 35.898438 60.449219 35.320312 C 59.75 34.691406 59.097656 34.015625 58.496094 33.292969 C 57.972656 32.652344 57.414062 32.046875 56.820312 31.476562 C 55.859375 30.574219 54.96875 29.601562 54.023438 28.6875 C 53.917969 28.582031 53.808594 28.480469 53.691406 28.382812 C 52.859375 27.679688 52.03125 26.964844 51.179688 26.28125 C 50.742188 25.921875 50.277344 25.605469 49.785156 25.328125 C 49.320312 25.082031 48.886719 24.773438 48.449219 24.480469 C 47.628906 23.941406 46.808594 23.417969 45.902344 23.023438 C 45.320312 22.757812 44.757812 22.449219 44.21875 22.101562 C 43.738281 21.808594 43.238281 21.542969 42.722656 21.308594 C 41.527344 20.753906 40.324219 20.210938 39.125 19.671875 C 38.886719 19.5625 38.636719 19.476562 38.386719 19.394531 C 37.457031 19.078125 36.550781 18.707031 35.605469 18.449219 C 35.0625 18.300781 34.527344 18.121094 34 17.914062 C 33.46875 17.71875 32.929688 17.554688 32.382812 17.421875 C 31.472656 17.179688 30.574219 16.902344 29.679688 16.613281 C 28.460938 16.21875 27.21875 15.902344 25.984375 15.566406 C 24.785156 15.238281 23.578125 14.9375 22.375 14.621094 C 22.152344 14.578125 21.9375 14.511719 21.726562 14.425781 C 21.28125 14.210938 20.804688 14.097656 20.328125 13.984375 C 20.253906 13.96875 20.183594 13.953125 20.109375 13.929688 C 19.050781 13.542969 17.980469 13.183594 16.902344 12.84375 C 16.503906 12.71875 16.167969 12.457031 15.84375 12.203125 C 15.492188 11.921875 15.128906 11.65625 14.769531 11.382812 C 14.355469 11.0625 13.988281 10.679688 13.613281 10.308594 C 13.242188 9.933594 12.882812 9.550781 12.621094 9.085938 C 12.511719 8.886719 12.378906 8.703125 12.234375 8.53125 C 11.625 7.847656 11.164062 7.074219 10.851562 6.214844 C 10.8125 6.109375 10.761719 6.007812 10.703125 5.910156 C 10.210938 5.105469 9.832031 4.246094 9.488281 3.367188 C 9.363281 3.050781 9.203125 2.753906 9.113281 2.421875 C 8.988281 1.976562 8.761719 1.59375 8.429688 1.273438 C 8.109375 0.957031 7.847656 0.578125 7.417969 0.382812 C 7.148438 0.257812 6.769531 0.386719 6.667969 0.671875 C 6.640625 0.738281 6.617188 0.8125 6.597656 0.882812 C 6.570312 0.996094 6.550781 1.105469 6.539062 1.21875 C 6.523438 1.40625 6.519531 1.59375 6.53125 1.78125 C 6.621094 2.945312 6.707031 4.109375 6.832031 5.269531 C 6.882812 5.757812 6.960938 6.246094 6.917969 6.730469 C 6.875 7.285156 7.109375 7.757812 7.28125 8.253906 C 7.292969 8.289062 7.308594 8.324219 7.335938 8.351562 C 7.765625 8.820312 8.070312 9.402344 8.589844 9.796875 C 8.832031 9.980469 9.050781 10.1875 9.300781 10.355469 C 10.390625 11.09375 11.429688 11.910156 12.5625 12.585938 C 12.878906 12.785156 13.210938 12.964844 13.554688 13.121094 C 13.898438 13.277344 14.210938 13.488281 14.484375 13.75 C 15.101562 14.300781 15.675781 14.894531 16.207031 15.53125 C 16.972656 16.464844 17.753906 17.378906 18.421875 18.390625 C 18.914062 18.910156 19.3125 19.503906 19.75 20.066406 C 20.328125 20.808594 20.9375 21.519531 21.496094 22.28125 C 22.148438 23.160156 22.886719 23.960938 23.707031 24.683594 C 24.152344 25.082031 24.601562 25.484375 25.046875 25.890625 C 26.03125 26.773438 27.070312 27.578125 28.167969 28.3125 C 28.878906 28.800781 29.578125 29.304688 30.28125 29.804688 C 30.375 29.863281 30.382812 29.929688 30.3125 30.007812 C 30.269531 30.070312 30.210938 30.105469 30.136719 30.117188 C 29.6875 30.089844 29.234375 30.0625 28.785156 30.011719 C 27.851562 29.894531 26.910156 29.855469 25.96875 29.820312 C 25.480469 29.804688 24.992188 29.796875 24.507812 29.710938 C 24.207031 29.671875 23.90625 29.65625 23.605469 29.65625 C 22.777344 29.617188 21.953125 29.523438 21.140625 29.367188 C 20.511719 29.25 19.878906 29.152344 19.242188 29.070312 C 18.191406 28.9375 17.167969 28.6875 16.152344 28.410156 C 15.28125 28.167969 14.40625 27.933594 13.535156 27.703125 C 12.765625 27.507812 12.019531 27.242188 11.304688 26.902344 C 10.5625 26.539062 9.785156 26.242188 9.015625 25.933594 C 8.644531 25.789062 8.277344 25.800781 7.914062 25.972656 C 7.671875 26.074219 7.515625 26.375 7.59375 26.617188 C 7.632812 26.761719 7.6875 26.902344 7.75 27.035156 C 8.121094 27.738281 8.527344 28.40625 9.070312 28.996094 C 9.425781 29.378906 9.75 29.796875 10.089844 30.195312 C 10.429688 30.59375 10.839844 30.933594 11.210938 31.300781 C 12.535156 32.621094 14.109375 33.574219 15.703125 34.511719 C 16.941406 35.238281 18.242188 35.820312 19.578125 36.34375 C 21.757812 37.195312 23.886719 38.144531 26.019531 39.101562 C 27.566406 39.792969 29.140625 40.417969 30.707031 41.066406 C 32.132812 41.65625 33.5625 42.234375 34.953125 42.910156 C 35.527344 43.191406 36.128906 43.410156 36.714844 43.664062 C 38.515625 44.4375 40.328125 45.175781 42.140625 45.910156 C 43.046875 46.273438 43.910156 46.742188 44.789062 47.171875 C 45.601562 47.570312 46.421875 47.941406 47.289062 48.207031 C 48.007812 48.429688 48.707031 48.722656 49.414062 48.976562 C 50.800781 49.480469 52.238281 49.785156 53.695312 49.984375 C 53.769531 49.996094 53.847656 50.003906 53.921875 50 C 55.011719 49.957031 56.105469 49.921875 57.195312 49.859375 C 57.71875 49.828125 58.242188 49.753906 58.765625 49.683594 C 59.140625 49.636719 59.511719 49.582031 59.878906 49.519531 C 60.65625 49.378906 61.4375 49.234375 62.210938 49.089844 C 63.105469 48.933594 63.976562 48.699219 64.824219 48.386719 C 65.671875 48.070312 66.535156 47.808594 67.382812 47.503906 C 68.800781 47.003906 70.210938 46.476562 71.632812 45.984375 C 72.847656 45.566406 74.085938 45.25 75.324219 44.9375 C 75.800781 44.820312 76.265625 44.632812 76.746094 44.585938 C 77.226562 44.542969 77.71875 44.65625 78.207031 44.675781 C 79.261719 44.71875 80.3125 44.796875 81.363281 44.910156 C 83.125 45.109375 84.894531 45.070312 86.664062 44.972656 C 87.042969 44.949219 87.417969 44.910156 87.792969 44.902344 C 88.207031 44.894531 88.621094 44.90625 89.035156 44.921875 C 89.085938 44.925781 89.140625 44.996094 89.183594 45.046875 C 89.191406 45.058594 89.160156 45.121094 89.132812 45.144531 C 88.375 45.714844 87.523438 46.113281 86.65625 46.484375 C 86.105469 46.71875 85.527344 46.898438 84.96875 47.125 C 83.539062 47.71875 82.03125 48.0625 80.558594 48.523438 C 79.84375 48.746094 79.101562 48.886719 78.371094 49.074219 C 76.984375 49.429688 75.609375 49.820312 74.246094 50.25 C 73.492188 50.492188 72.734375 50.707031 71.960938 50.878906 C 70.855469 51.121094 69.757812 51.386719 68.660156 51.660156 C 68.222656 51.769531 67.792969 51.914062 67.371094 52.066406 C 66.554688 52.355469 65.753906 52.683594 64.96875 53.054688 C 64.875 53.113281 64.773438 53.164062 64.667969 53.203125 C 63.863281 53.441406 63.15625 53.882812 62.433594 54.28125 C 61.734375 54.664062 60.980469 54.894531 60.246094 55.183594 C 59.996094 55.265625 59.753906 55.371094 59.523438 55.496094 C 58.289062 56.222656 57.039062 56.925781 55.84375 57.710938 C 55.121094 58.183594 54.394531 58.660156 53.761719 59.261719 C 53.710938 59.316406 53.65625 59.363281 53.59375 59.40625 C 52.8125 59.875 52.1875 60.542969 51.453125 61.070312 C 51.058594 61.355469 50.710938 61.703125 50.347656 62.03125 C 49.765625 62.566406 49.199219 63.121094 48.601562 63.632812 C 48.089844 64.074219 47.550781 64.484375 46.984375 64.859375 C 46.226562 65.363281 45.5625 65.972656 44.863281 66.542969 C 44.195312 67.089844 43.601562 67.726562 42.859375 68.183594 C 42.28125 68.785156 41.535156 69.179688 40.9375 69.757812 C 40.582031 70.09375 40.25 70.449219 39.933594 70.824219 C 39.527344 71.316406 39.167969 71.851562 38.753906 72.335938 C 38.5 72.636719 38.351562 72.972656 38.210938 73.320312 C 38.070312 73.6875 38.058594 74.054688 38.175781 74.429688 C 38.25 74.761719 38.453125 74.960938 38.785156 75.03125 C 39.082031 75.105469 39.378906 75.121094 39.683594 75.085938 C 40.808594 74.96875 41.921875 74.785156 43.023438 74.539062 C 43.828125 74.351562 44.636719 74.175781 45.460938 74.066406 C 46.316406 73.953125 47.164062 73.769531 48.015625 73.605469 C 48.234375 73.5625 48.449219 73.476562 48.667969 73.417969 C 50.085938 73.046875 51.503906 72.664062 52.925781 72.3125 C 53.765625 72.105469 54.613281 71.910156 55.46875 71.773438 C 56.625 71.585938 57.746094 71.277344 58.859375 70.933594 C 59.367188 70.785156 59.859375 70.597656 60.332031 70.363281 C 61.742188 69.636719 63.25 69.117188 64.574219 68.234375 Z M 62.65625 38.390625 C 62.585938 38.386719 62.519531 38.375 62.453125 38.351562 C 62.367188 38.304688 62.367188 38.234375 62.441406 38.195312 C 62.453125 38.1875 62.503906 38.226562 62.523438 38.253906 C 62.566406 38.308594 62.601562 38.367188 62.644531 38.425781 C 62.800781 38.402344 62.925781 38.460938 63.011719 38.597656 C 63.070312 38.6875 63.128906 38.777344 63.175781 38.875 C 63.246094 38.875 63.3125 38.882812 63.378906 38.894531 C 63.410156 38.90625 63.433594 38.929688 63.449219 38.960938 C 63.460938 38.992188 63.464844 39.019531 63.449219 39.050781 C 63.417969 39.101562 63.355469 39.089844 63.300781 39.019531 C 63.257812 38.964844 63.230469 38.902344 63.191406 38.839844 C 63.027344 38.871094 62.914062 38.789062 62.824219 38.667969 C 62.765625 38.582031 62.710938 38.484375 62.65625 38.390625 Z M 59.789062 37.972656 C 59.886719 38.140625 60.015625 38.273438 60.183594 38.371094 C 60.5 38.570312 60.808594 38.78125 61.117188 38.992188 C 61.140625 39.007812 61.148438 39.054688 61.15625 39.089844 C 61.167969 39.183594 61.121094 39.238281 61.019531 39.214844 C 60.203125 39.050781 59.425781 38.78125 58.6875 38.398438 C 58.320312 38.203125 57.953125 38.003906 57.558594 37.886719 C 57.054688 37.726562 56.566406 37.539062 56.085938 37.320312 C 55.464844 37.042969 54.828125 36.816406 54.234375 36.480469 C 53.1875 36.140625 52.257812 35.554688 51.3125 35.011719 C 49.75 34.109375 48.199219 33.183594 46.640625 32.273438 C 46.410156 32.148438 46.171875 32.035156 45.925781 31.9375 C 45.855469 31.90625 45.78125 31.898438 45.707031 31.910156 C 45.636719 31.929688 45.574219 31.964844 45.523438 32.015625 C 45.457031 32.085938 45.476562 32.160156 45.5625 32.210938 C 45.722656 32.304688 45.882812 32.402344 46.050781 32.488281 C 46.925781 32.929688 47.773438 33.417969 48.597656 33.949219 C 48.6875 34.015625 48.769531 34.089844 48.839844 34.175781 C 48.855469 34.195312 48.847656 34.25 48.835938 34.28125 C 48.820312 34.3125 48.796875 34.328125 48.761719 34.335938 C 48.566406 34.359375 48.386719 34.289062 48.222656 34.203125 C 47.582031 33.882812 46.949219 33.550781 46.316406 33.222656 C 45.980469 33.046875 45.660156 32.84375 45.316406 32.699219 C 44.519531 32.355469 43.753906 31.949219 43.027344 31.476562 C 42.582031 31.191406 42.125 30.929688 41.671875 30.664062 C 40.371094 29.902344 39.070312 29.140625 37.726562 28.464844 C 36.882812 28.042969 36.078125 27.550781 35.234375 27.132812 C 34.292969 26.664062 33.324219 26.242188 32.367188 25.800781 C 31.378906 25.339844 30.382812 24.898438 29.402344 24.414062 C 28.863281 24.148438 28.328125 23.882812 27.769531 23.648438 C 26.761719 23.21875 25.804688 22.699219 24.894531 22.09375 C 23.628906 21.277344 22.386719 20.429688 21.203125 19.496094 C 21.171875 19.476562 21.136719 19.464844 21.101562 19.453125 C 21.015625 19.417969 20.941406 19.4375 20.914062 19.523438 C 20.890625 19.589844 20.871094 19.6875 20.902344 19.730469 C 21.171875 20.089844 21.441406 20.449219 21.832031 20.703125 C 22.429688 21.089844 22.988281 21.542969 23.546875 21.992188 C 23.816406 22.199219 24.097656 22.382812 24.390625 22.550781 C 24.851562 22.8125 25.332031 23.027344 25.78125 23.300781 C 26.878906 23.96875 28.070312 24.445312 29.230469 24.976562 C 30.738281 25.667969 32.269531 26.304688 33.746094 27.050781 C 35.257812 27.816406 36.8125 28.5 38.269531 29.367188 C 39.238281 29.941406 40.257812 30.4375 41.199219 31.0625 C 41.355469 31.167969 41.523438 31.253906 41.6875 31.351562 C 42.179688 31.628906 42.675781 31.898438 43.160156 32.183594 C 43.25 32.25 43.324219 32.335938 43.378906 32.429688 C 43.394531 32.453125 43.382812 32.511719 43.371094 32.539062 C 43.351562 32.570312 43.328125 32.585938 43.292969 32.589844 C 42.832031 32.566406 42.425781 32.371094 42.015625 32.183594 C 41.53125 31.96875 41.074219 31.707031 40.554688 31.582031 C 40.410156 31.539062 40.269531 31.480469 40.140625 31.40625 C 39.363281 31.015625 38.597656 30.609375 37.863281 30.152344 C 37.417969 29.871094 36.96875 29.601562 36.511719 29.339844 C 36.464844 29.308594 36.367188 29.34375 36.304688 29.371094 C 36.21875 29.410156 36.203125 29.589844 36.269531 29.664062 C 36.363281 29.785156 36.46875 29.886719 36.589844 29.976562 C 37.265625 30.378906 37.953125 30.769531 38.636719 31.167969 C 38.695312 31.210938 38.746094 31.265625 38.789062 31.328125 C 38.808594 31.359375 38.816406 31.390625 38.8125 31.429688 C 38.804688 31.507812 38.75 31.554688 38.65625 31.53125 C 37.863281 31.292969 37.054688 31.097656 36.3125 30.722656 C 35.640625 30.382812 34.980469 30.019531 34.320312 29.652344 C 33.535156 29.210938 32.753906 28.753906 31.96875 28.304688 C 31.9375 28.28125 31.902344 28.273438 31.863281 28.28125 C 31.796875 28.304688 31.742188 28.339844 31.691406 28.386719 C 31.671875 28.421875 31.667969 28.457031 31.679688 28.492188 C 31.796875 28.757812 32.050781 28.863281 32.273438 28.996094 C 33.019531 29.433594 33.78125 29.84375 34.53125 30.277344 C 34.761719 30.40625 34.96875 30.566406 35.183594 30.71875 C 35.199219 30.730469 35.191406 30.792969 35.175781 30.820312 C 35.15625 30.847656 35.121094 30.878906 35.09375 30.878906 C 34.453125 30.839844 33.832031 30.703125 33.234375 30.472656 C 33.195312 30.460938 33.164062 30.445312 33.128906 30.425781 C 32.320312 29.949219 31.441406 29.59375 30.617188 29.140625 C 29.828125 28.703125 29.09375 28.179688 28.351562 27.667969 C 27.703125 27.222656 27.125 26.671875 26.460938 26.238281 C 26.246094 26.082031 26.046875 25.910156 25.859375 25.726562 C 25.605469 25.5 25.367188 25.253906 25.101562 25.046875 C 24.121094 24.273438 23.332031 23.308594 22.5 22.386719 C 22.273438 22.132812 22.058594 21.875 21.847656 21.609375 C 21.359375 20.988281 20.894531 20.347656 20.394531 19.738281 C 19.636719 18.804688 18.828125 17.910156 18.195312 16.878906 C 18.160156 16.8125 18.117188 16.75 18.066406 16.695312 C 17.351562 15.921875 16.753906 15.046875 15.992188 14.3125 C 15.96875 14.285156 15.949219 14.253906 15.9375 14.214844 C 15.925781 14.179688 15.910156 14.132812 15.925781 14.109375 C 15.96875 14.0625 16.03125 13.984375 16.074219 13.992188 C 16.847656 14.136719 17.625 14.277344 18.398438 14.449219 C 19.058594 14.589844 19.710938 14.78125 20.394531 14.824219 C 20.542969 14.835938 20.691406 14.863281 20.839844 14.902344 C 22.195312 15.21875 23.570312 15.476562 24.90625 15.875 C 26.996094 16.496094 29.144531 16.925781 31.195312 17.699219 C 32.652344 18.085938 34.089844 18.535156 35.527344 18.992188 C 36.496094 19.304688 37.464844 19.613281 38.40625 19.996094 C 39.484375 20.441406 40.542969 20.933594 41.601562 21.421875 C 42.183594 21.6875 42.761719 21.964844 43.328125 22.265625 C 44.222656 22.746094 45.09375 23.273438 46.015625 23.699219 C 46.671875 24 47.238281 24.441406 47.851562 24.8125 C 49.011719 25.511719 50.152344 26.238281 51.191406 27.121094 C 52.140625 27.921875 53.148438 28.65625 54.007812 29.558594 C 54.996094 30.59375 56.003906 31.609375 57.03125 32.601562 C 57.183594 32.765625 57.328125 32.9375 57.464844 33.117188 C 58.179688 33.992188 58.957031 34.808594 59.792969 35.570312 C 60.460938 36.171875 61.117188 36.800781 61.769531 37.421875 C 61.894531 37.527344 61.949219 37.664062 61.9375 37.824219 C 61.773438 37.863281 61.652344 37.761719 61.539062 37.679688 C 61.023438 37.304688 60.484375 36.945312 60.011719 36.515625 C 59.316406 35.882812 58.582031 35.296875 57.871094 34.679688 C 56.929688 33.859375 55.890625 33.183594 54.890625 32.453125 C 54.671875 32.304688 54.449219 32.167969 54.214844 32.042969 C 54.113281 31.996094 54.007812 31.960938 53.898438 31.9375 C 53.859375 31.933594 53.824219 31.941406 53.792969 31.957031 C 53.792969 32.027344 53.78125 32.128906 53.820312 32.15625 C 54.15625 32.394531 54.503906 32.621094 54.847656 32.851562 C 55.316406 33.164062 55.789062 33.472656 56.203125 33.855469 C 57.070312 34.640625 57.929688 35.425781 58.804688 36.199219 C 59.367188 36.699219 59.914062 37.214844 60.554688 37.621094 C 60.875 37.824219 61.183594 38.042969 61.476562 38.277344 C 61.585938 38.367188 61.648438 38.519531 61.722656 38.644531 C 61.738281 38.683594 61.734375 38.71875 61.710938 38.753906 C 61.683594 38.777344 61.648438 38.785156 61.613281 38.777344 C 61.128906 38.652344 60.730469 38.359375 60.308594 38.117188 C 60.144531 38.019531 59.976562 37.941406 59.777344 38.007812 Z M 77.625 50.082031 C 77.75 50.015625 77.875 49.945312 78.003906 49.878906 C 78.03125 49.867188 78.074219 49.878906 78.109375 49.878906 C 78.082031 49.933594 78.066406 50.007812 78.019531 50.039062 C 77.898438 50.128906 77.761719 50.160156 77.628906 50.046875 C 77.363281 50.1875 77.117188 50.371094 76.828125 50.457031 C 76.355469 50.601562 75.933594 50.847656 75.488281 51.058594 C 75.011719 51.28125 74.511719 51.457031 74.046875 51.699219 C 73.179688 52.15625 72.328125 52.640625 71.476562 53.121094 C 71.316406 53.21875 71.167969 53.332031 71.027344 53.453125 C 71.003906 53.472656 71.003906 53.523438 70.992188 53.558594 C 71.027344 53.570312 71.070312 53.601562 71.101562 53.589844 C 71.625 53.390625 72.136719 53.164062 72.636719 52.90625 C 73.667969 52.375 74.664062 51.757812 75.769531 51.363281 C 76.734375 50.828125 77.792969 50.546875 78.84375 50.257812 C 79.175781 50.167969 79.511719 50.121094 79.828125 50 C 80.78125 49.640625 81.777344 49.429688 82.761719 49.179688 C 82.863281 49.15625 82.90625 49.195312 82.871094 49.316406 C 82.238281 49.773438 81.617188 50.320312 80.914062 50.757812 C 80.335938 51.113281 79.757812 51.46875 79.183594 51.828125 C 78.925781 51.988281 78.648438 52.125 78.429688 52.324219 C 77.976562 52.734375 77.449219 53.023438 76.941406 53.347656 C 76.464844 53.648438 75.957031 53.917969 75.527344 54.277344 C 75.039062 54.695312 74.503906 55.042969 73.980469 55.40625 C 73.765625 55.558594 73.566406 55.730469 73.355469 55.890625 C 73.183594 56.035156 73 56.171875 72.8125 56.296875 C 71.910156 56.84375 71.039062 57.4375 70.203125 58.078125 C 69.460938 58.65625 68.601562 59.066406 67.882812 59.675781 C 65.792969 60.957031 63.703125 62.230469 61.550781 63.40625 C 61.425781 63.488281 61.292969 63.558594 61.152344 63.609375 C 60.632812 63.746094 60.183594 64.035156 59.722656 64.285156 C 59.09375 64.628906 58.480469 64.992188 57.789062 65.203125 C 57.753906 65.214844 57.726562 65.238281 57.703125 65.265625 C 57.644531 65.335938 57.632812 65.414062 57.691406 65.464844 C 57.804688 65.566406 57.617188 65.539062 57.765625 65.535156 C 58.191406 65.523438 58.574219 65.375 58.949219 65.195312 C 59.253906 65.050781 59.542969 64.859375 59.863281 64.757812 C 60.257812 64.625 60.632812 64.449219 60.988281 64.238281 C 61.910156 63.722656 62.828125 63.203125 63.753906 62.695312 C 64.046875 62.53125 64.371094 62.417969 64.660156 62.246094 C 64.953125 62.074219 65.210938 61.855469 65.484375 61.660156 C 65.578125 61.59375 65.683594 61.546875 65.777344 61.488281 C 66.871094 60.824219 67.964844 60.15625 69.058594 59.488281 C 69.347656 59.3125 69.648438 59.144531 69.902344 58.921875 C 70.363281 58.527344 70.882812 58.222656 71.371094 57.875 C 71.617188 57.699219 71.886719 57.550781 72.109375 57.355469 C 72.429688 57.089844 72.765625 56.851562 73.125 56.640625 C 73.535156 56.378906 73.960938 56.125 74.328125 55.804688 C 74.699219 55.484375 75.09375 55.195312 75.511719 54.9375 C 75.738281 54.808594 75.957031 54.660156 76.167969 54.496094 C 76.914062 53.855469 77.777344 53.386719 78.601562 52.863281 C 79.046875 52.582031 79.519531 52.339844 79.980469 52.085938 C 80.027344 52.058594 80.109375 52.089844 80.171875 52.097656 C 80.160156 52.132812 80.15625 52.179688 80.132812 52.203125 C 80.015625 52.296875 79.894531 52.382812 79.777344 52.476562 C 79.355469 52.792969 78.976562 53.15625 78.640625 53.558594 C 78.5625 53.671875 78.574219 53.773438 78.679688 53.863281 C 78.734375 53.90625 78.832031 53.953125 78.875 53.929688 C 79.050781 53.863281 79.210938 53.769531 79.355469 53.652344 C 79.578125 53.449219 79.746094 53.195312 79.96875 52.992188 C 80.492188 52.507812 80.976562 51.972656 81.632812 51.65625 C 81.664062 51.644531 81.707031 51.652344 81.746094 51.648438 C 81.808594 51.636719 81.820312 51.660156 81.777344 51.71875 C 81.589844 51.996094 81.371094 52.25 81.125 52.480469 C 80.675781 52.878906 80.242188 53.296875 79.800781 53.707031 C 78.703125 54.734375 77.601562 55.761719 76.5 56.789062 C 76.066406 57.199219 75.621094 57.605469 75.214844 58.054688 C 74.707031 58.605469 74.226562 59.1875 73.78125 59.796875 C 73.191406 60.625 72.53125 61.390625 71.796875 62.089844 C 71.0625 62.789062 70.378906 63.550781 69.5 64.085938 C 69.410156 64.15625 69.324219 64.230469 69.246094 64.308594 C 68.6875 64.753906 68.140625 65.214844 67.5625 65.636719 C 67.140625 65.949219 66.671875 66.199219 66.238281 66.496094 C 65.773438 66.816406 65.335938 67.175781 64.871094 67.488281 C 64.214844 67.933594 63.527344 68.320312 62.804688 68.652344 C 61.945312 69.039062 61.082031 69.40625 60.21875 69.78125 C 59.117188 70.277344 57.972656 70.652344 56.792969 70.914062 C 56.203125 71.035156 55.605469 71.132812 55.03125 71.304688 C 54.59375 71.429688 54.152344 71.511719 53.710938 71.59375 C 53.011719 71.730469 52.316406 71.867188 51.625 72.070312 C 50.398438 72.429688 49.171875 72.800781 47.898438 72.984375 C 47.714844 73.011719 47.535156 73.078125 47.351562 73.121094 C 47.023438 73.195312 46.695312 73.308594 46.363281 73.339844 C 44.933594 73.472656 43.546875 73.816406 42.152344 74.132812 C 41.339844 74.300781 40.519531 74.402344 39.691406 74.4375 C 39.503906 74.4375 39.316406 74.417969 39.132812 74.371094 C 38.949219 74.339844 38.820312 74.152344 38.808594 73.964844 C 38.773438 73.53125 38.894531 73.144531 39.167969 72.804688 C 39.496094 72.394531 39.839844 71.992188 40.164062 71.578125 C 41.03125 70.472656 42.089844 69.566406 43.207031 68.734375 C 43.839844 68.261719 44.449219 67.757812 45.039062 67.234375 C 45.980469 66.414062 46.957031 65.648438 47.941406 64.898438 C 49.023438 64.078125 50.0625 63.21875 51.058594 62.296875 C 51.746094 61.65625 52.480469 61.066406 53.191406 60.457031 C 53.828125 60.113281 54.351562 59.617188 54.898438 59.164062 C 55.570312 58.613281 56.28125 58.125 57.035156 57.699219 C 57.265625 57.566406 57.484375 57.417969 57.710938 57.285156 C 58.425781 56.867188 59.140625 56.449219 59.855469 56.03125 C 60.121094 55.886719 60.394531 55.765625 60.679688 55.667969 C 61.359375 55.441406 62.019531 55.175781 62.667969 54.871094 C 63.546875 54.4375 64.410156 53.972656 65.300781 53.566406 C 66.402344 53.070312 67.519531 52.628906 68.6875 52.324219 C 69.667969 52.066406 70.660156 51.84375 71.644531 51.589844 C 72.773438 51.296875 73.914062 51.039062 75.019531 50.671875 C 75.808594 50.410156 76.617188 50.242188 77.410156 50.019531 C 77.46875 50.003906 77.550781 50.058594 77.617188 50.082031 Z M 64.71875 41.886719 C 64.808594 42.027344 64.9375 42.085938 65.105469 42.066406 C 65.984375 42.015625 66.832031 42.171875 67.671875 42.40625 C 68.394531 42.609375 69.125 42.796875 69.851562 43 C 69.902344 43.015625 69.941406 43.089844 69.988281 43.140625 C 69.933594 43.183594 69.878906 43.265625 69.824219 43.261719 C 68.882812 43.242188 67.941406 43.230469 67 43.179688 C 66.289062 43.144531 65.574219 43.066406 64.863281 42.992188 C 63.703125 42.871094 62.539062 42.773438 61.398438 42.503906 C 60.960938 42.398438 60.515625 42.316406 60.070312 42.230469 C 59.148438 42.042969 58.21875 41.902344 57.28125 41.808594 C 57.054688 41.777344 56.835938 41.734375 56.617188 41.675781 C 55.441406 41.414062 54.28125 41.085938 53.085938 40.910156 C 52.707031 40.859375 52.347656 40.757812 51.996094 40.609375 C 51.300781 40.304688 50.570312 40.128906 49.839844 39.945312 C 48.160156 39.523438 46.480469 39.101562 44.84375 38.53125 C 44.59375 38.441406 44.335938 38.375 44.082031 38.304688 C 41.871094 37.679688 39.660156 37.066406 37.449219 36.425781 C 35.207031 35.773438 32.933594 35.242188 30.632812 34.835938 C 30.523438 34.820312 30.414062 34.832031 30.308594 34.871094 C 30.253906 34.890625 30.21875 34.980469 30.191406 35.046875 C 30.183594 35.0625 30.21875 35.117188 30.246094 35.132812 C 30.695312 35.339844 31.175781 35.425781 31.652344 35.535156 C 32.75 35.785156 33.859375 35.996094 34.941406 36.332031 C 35.800781 36.601562 36.683594 36.816406 37.554688 37.054688 C 38.792969 37.386719 40.03125 37.714844 41.265625 38.054688 C 41.847656 38.210938 42.425781 38.382812 43.003906 38.554688 C 43.21875 38.621094 43.417969 38.730469 43.636719 38.789062 C 45.453125 39.285156 47.273438 39.769531 49.089844 40.261719 C 49.671875 40.417969 50.277344 40.53125 50.828125 40.757812 C 51.878906 41.203125 52.988281 41.417969 54.097656 41.640625 C 54.722656 41.765625 55.351562 41.875 55.972656 42.035156 C 56.484375 42.164062 57.003906 42.242188 57.523438 42.320312 C 58.675781 42.5 59.832031 42.65625 60.964844 42.945312 C 61.585938 43.113281 62.214844 43.222656 62.851562 43.28125 C 63.753906 43.347656 64.648438 43.441406 65.542969 43.570312 C 66.738281 43.746094 67.945312 43.761719 69.148438 43.765625 C 70.09375 43.773438 71.027344 43.875 71.964844 43.976562 C 72 43.984375 72.03125 44.007812 72.050781 44.039062 C 72.023438 44.097656 72 44.183594 71.949219 44.207031 C 71.777344 44.285156 71.601562 44.347656 71.421875 44.394531 C 70.835938 44.539062 70.25 44.667969 69.660156 44.804688 C 69.113281 44.9375 68.570312 45.09375 68.011719 45.203125 C 67.273438 45.347656 66.535156 45.472656 65.785156 45.585938 C 64.523438 45.78125 63.265625 46.027344 61.972656 45.953125 C 61.898438 45.949219 61.824219 45.964844 61.75 45.964844 C 60.582031 45.960938 59.414062 46.082031 58.253906 45.898438 C 58.214844 45.894531 58.179688 45.902344 58.144531 45.910156 C 58.101562 45.910156 58.070312 45.925781 58.046875 45.960938 C 58.023438 45.992188 58.015625 46.027344 58.027344 46.066406 C 58.035156 46.105469 58.054688 46.136719 58.089844 46.160156 C 58.425781 46.351562 58.800781 46.394531 59.175781 46.402344 C 60.078125 46.425781 60.980469 46.449219 61.886719 46.433594 C 63.429688 46.402344 64.96875 46.261719 66.492188 46.011719 C 67.421875 45.863281 68.355469 45.726562 69.261719 45.46875 C 70.277344 45.175781 71.3125 44.988281 72.347656 44.785156 C 72.5625 44.742188 72.773438 44.714844 72.988281 44.785156 C 72.964844 44.816406 72.953125 44.867188 72.921875 44.875 C 72.109375 45.171875 71.296875 45.464844 70.484375 45.753906 C 69.492188 46.105469 68.5 46.453125 67.507812 46.800781 C 66.40625 47.183594 65.308594 47.574219 64.203125 47.949219 C 63.773438 48.09375 63.339844 48.214844 62.898438 48.3125 C 62.054688 48.496094 61.199219 48.644531 60.351562 48.824219 C 59.578125 48.996094 58.796875 49.113281 58.007812 49.179688 C 57.59375 49.210938 57.179688 49.234375 56.769531 49.28125 C 55.90625 49.386719 55.039062 49.363281 54.175781 49.363281 C 53.644531 49.359375 53.125 49.285156 52.613281 49.152344 C 52.246094 49.058594 51.878906 48.972656 51.503906 48.910156 C 50.835938 48.800781 50.179688 48.625 49.546875 48.386719 C 48.59375 48.023438 47.632812 47.6875 46.683594 47.332031 C 46.085938 47.105469 45.5 46.84375 44.929688 46.554688 C 44.460938 46.320312 43.984375 46.09375 43.5 45.886719 C 42.703125 45.546875 41.910156 45.195312 41.105469 44.878906 C 39.773438 44.351562 38.472656 43.765625 37.15625 43.203125 C 36.773438 43.039062 36.386719 42.886719 36.011719 42.714844 C 34.617188 42.058594 33.191406 41.464844 31.761719 40.878906 C 31.414062 40.738281 31.078125 40.566406 30.722656 40.441406 C 29.65625 40.066406 28.605469 39.667969 27.601562 39.140625 C 27.335938 39.003906 27.054688 38.886719 26.777344 38.769531 C 26.292969 38.566406 25.800781 38.375 25.320312 38.164062 C 24.628906 37.855469 23.957031 37.519531 23.265625 37.226562 C 22.121094 36.734375 20.957031 36.296875 19.816406 35.816406 C 18.566406 35.289062 17.289062 34.835938 16.152344 34.074219 C 16.089844 34.03125 16.019531 34.003906 15.953125 33.96875 C 14.535156 33.175781 13.234375 32.214844 11.984375 31.175781 C 11.8125 31.03125 11.648438 30.875 11.496094 30.710938 C 10.78125 29.933594 10.0625 29.164062 9.367188 28.375 C 8.929688 27.894531 8.605469 27.351562 8.394531 26.734375 C 8.355469 26.609375 8.523438 26.417969 8.65625 26.445312 C 8.84375 26.472656 9.023438 26.515625 9.203125 26.574219 C 9.554688 26.714844 9.894531 26.878906 10.238281 27.027344 C 10.996094 27.359375 11.757812 27.691406 12.519531 28.011719 C 12.722656 28.109375 12.9375 28.179688 13.164062 28.214844 C 13.542969 28.25 13.894531 28.378906 14.257812 28.476562 C 15.054688 28.695312 15.859375 28.894531 16.644531 29.15625 C 16.863281 29.21875 17.082031 29.261719 17.308594 29.292969 C 18.273438 29.464844 19.238281 29.605469 20.199219 29.804688 C 21.046875 29.964844 21.90625 30.082031 22.769531 30.15625 C 25.316406 30.402344 27.878906 30.476562 30.425781 30.765625 C 31.398438 30.878906 32.367188 30.992188 33.332031 31.175781 C 34.367188 31.371094 35.402344 31.570312 36.421875 31.839844 C 37.808594 32.199219 39.199219 32.535156 40.589844 32.878906 C 41.136719 33.015625 41.6875 33.144531 42.238281 33.265625 C 42.640625 33.355469 43.058594 33.394531 43.457031 33.507812 C 44.613281 33.839844 45.765625 34.195312 46.917969 34.550781 C 47.097656 34.605469 47.261719 34.695312 47.4375 34.761719 C 48.597656 35.214844 49.75 35.679688 50.910156 36.117188 C 52.394531 36.667969 53.898438 37.152344 55.328125 37.839844 C 55.429688 37.890625 55.539062 37.917969 55.644531 37.957031 C 56.386719 38.230469 57.140625 38.472656 57.867188 38.78125 C 58.734375 39.148438 59.601562 39.511719 60.496094 39.804688 C 62 40.292969 63.460938 40.902344 64.957031 41.410156 C 64.992188 41.425781 65.023438 41.445312 65.050781 41.46875 C 65.128906 41.515625 65.148438 41.59375 65.074219 41.65625 C 64.960938 41.753906 64.832031 41.828125 64.710938 41.917969 Z M 9.492188 5.144531 C 9.453125 5.210938 9.40625 5.273438 9.355469 5.328125 C 9.128906 5.488281 9.105469 5.695312 9.21875 5.917969 C 9.347656 6.191406 9.496094 6.453125 9.65625 6.710938 C 10.085938 7.367188 10.539062 8.007812 11.015625 8.636719 C 11.542969 9.332031 12.140625 9.945312 12.742188 10.5625 C 12.839844 10.679688 12.953125 10.773438 13.082031 10.851562 C 13.507812 11.050781 13.761719 11.4375 14.105469 11.722656 C 14.148438 11.757812 14.140625 11.859375 14.152344 11.925781 C 14.117188 11.9375 14.078125 11.9375 14.042969 11.933594 C 13.640625 11.816406 13.246094 11.664062 12.960938 11.359375 C 12.449219 10.808594 11.816406 10.382812 11.386719 9.753906 C 11.335938 9.695312 11.277344 9.65625 11.199219 9.636719 C 11.128906 9.632812 11.0625 9.640625 11 9.671875 C 10.988281 9.675781 10.984375 9.742188 10.992188 9.777344 C 11.0625 10.042969 11.246094 10.234375 11.433594 10.417969 C 11.648438 10.632812 11.867188 10.839844 11.992188 11.117188 C 12.003906 11.179688 11.996094 11.242188 11.96875 11.300781 C 11.933594 11.316406 11.898438 11.316406 11.863281 11.304688 C 11.292969 10.9375 10.707031 10.597656 10.167969 10.191406 C 9.6875 9.828125 9.234375 9.433594 8.808594 9.003906 C 8.125 8.324219 7.65625 7.542969 7.667969 6.519531 C 7.679688 5.878906 7.628906 5.242188 7.519531 4.609375 C 7.378906 3.828125 7.371094 3.039062 7.292969 2.253906 C 7.28125 2.03125 7.285156 1.808594 7.3125 1.585938 C 7.316406 1.53125 7.394531 1.472656 7.453125 1.425781 C 7.484375 1.414062 7.519531 1.417969 7.550781 1.4375 C 8.058594 1.789062 8.445312 2.222656 8.570312 2.859375 C 8.605469 3.042969 8.699219 3.210938 8.769531 3.386719 C 8.878906 3.664062 8.996094 3.941406 9.101562 4.222656 C 9.21875 4.539062 9.425781 4.816406 9.492188 5.144531 Z M 73.910156 44.546875 C 73.832031 44.59375 73.796875 44.582031 73.820312 44.515625 C 73.828125 44.5 73.871094 44.5 73.898438 44.488281 Z M 73.910156 44.546875 " fill-opacity="1" fill-rule="nonzero"/></g></g></g><g clip-path="url(#26b6f61cc5)"><g clip-path="url(#2b03ead3fc)"><g clip-path="url(#d4e43b57e2)"><path fill="#f6c55d" d="M 40.300781 41.160156 C 40.375 41.234375 40.457031 41.304688 40.546875 41.363281 C 41.539062 41.898438 42.527344 42.441406 43.570312 42.878906 C 43.601562 42.894531 43.636719 42.910156 43.671875 42.921875 C 44.476562 43.128906 45.226562 43.484375 45.976562 43.824219 C 46.082031 43.867188 46.1875 43.90625 46.296875 43.933594 C 48.644531 44.609375 51 45.25 53.382812 45.773438 C 53.605469 45.820312 53.828125 45.851562 54.054688 45.875 C 54.539062 45.933594 55.023438 45.976562 55.496094 46.113281 C 55.644531 46.140625 55.792969 46.152344 55.941406 46.144531 C 56.070312 46.152344 56.15625 46.09375 56.207031 45.976562 C 56.242188 45.84375 56.195312 45.753906 56.070312 45.703125 C 55.96875 45.660156 55.863281 45.621094 55.757812 45.589844 C 55.390625 45.5 55.023438 45.429688 54.648438 45.378906 C 54.085938 45.320312 53.53125 45.21875 52.988281 45.070312 C 52.878906 45.035156 52.769531 45.007812 52.660156 44.996094 C 51.902344 44.953125 51.195312 44.679688 50.457031 44.542969 C 50.382812 44.53125 50.3125 44.515625 50.238281 44.496094 C 49.554688 44.289062 48.898438 44.003906 48.191406 43.871094 C 47.484375 43.738281 46.832031 43.453125 46.144531 43.257812 C 45.785156 43.152344 45.445312 42.980469 45.097656 42.84375 C 43.980469 42.40625 42.847656 42.003906 41.753906 41.5 C 41.308594 41.296875 40.863281 41.097656 40.417969 40.898438 C 40.382812 40.894531 40.351562 40.910156 40.332031 40.9375 C 40.316406 41.011719 40.304688 41.085938 40.300781 41.160156 Z M 40.300781 41.160156 " fill-opacity="1" fill-rule="nonzero"/></g></g></g><g clip-path="url(#5cd98dac3a)"><g clip-path="url(#ea37a38b6a)"><g clip-path="url(#ddef080bfd)"><path fill="#f6c55d" d="M 13.269531 30.128906 C 13.289062 30.164062 13.300781 30.207031 13.328125 30.226562 C 13.425781 30.28125 13.523438 30.332031 13.625 30.375 C 14.457031 30.726562 15.285156 31.082031 16.121094 31.425781 C 16.398438 31.539062 16.683594 31.636719 16.972656 31.722656 C 17.511719 31.882812 18.042969 32.066406 18.566406 32.277344 C 19.265625 32.554688 19.980469 32.773438 20.714844 32.929688 C 21.558594 33.117188 22.398438 33.320312 23.25 33.472656 C 23.359375 33.480469 23.46875 33.472656 23.574219 33.441406 C 23.597656 33.4375 23.621094 33.386719 23.628906 33.355469 C 23.628906 33.320312 23.621094 33.289062 23.601562 33.257812 C 23.585938 33.226562 23.5625 33.199219 23.527344 33.179688 C 23.394531 33.105469 23.257812 33.054688 23.109375 33.015625 C 22.027344 32.847656 21.007812 32.453125 19.949219 32.203125 C 19.765625 32.160156 19.582031 32.109375 19.40625 32.046875 C 17.53125 31.375 15.605469 30.847656 13.796875 29.992188 C 13.660156 29.929688 13.511719 29.878906 13.367188 29.960938 C 13.320312 29.988281 13.300781 30.070312 13.269531 30.128906 Z M 13.269531 30.128906 " fill-opacity="1" fill-rule="nonzero"/></g></g></g><g clip-path="url(#2522a3f5e3)"><g clip-path="url(#f26778c2ca)"><g clip-path="url(#45c560c280)"><path fill="#f6c55d" d="M 28.398438 34.59375 C 28.417969 34.566406 28.4375 34.535156 28.449219 34.503906 C 28.453125 34.46875 28.445312 34.4375 28.425781 34.410156 C 28.410156 34.375 28.382812 34.351562 28.347656 34.332031 C 27.664062 34.023438 26.945312 33.828125 26.203125 33.738281 C 26.144531 33.730469 26.074219 33.796875 26.027344 33.84375 C 25.960938 33.914062 26.03125 34.085938 26.136719 34.117188 C 26.824219 34.289062 27.472656 34.601562 28.183594 34.652344 C 28.257812 34.644531 28.332031 34.625 28.398438 34.59375 Z M 28.398438 34.59375 " fill-opacity="1" fill-rule="nonzero"/></g></g></g><g clip-path="url(#8615610d12)"><g clip-path="url(#fd15fe8c85)"><g clip-path="url(#b4354c28a8)"><path fill="#f6c55d" d="M 64.710938 41.917969 C 64.648438 41.886719 64.585938 41.832031 64.527344 41.832031 C 64.464844 41.835938 64.429688 41.90625 64.378906 41.945312 C 64.394531 41.964844 64.410156 41.996094 64.429688 42 C 64.464844 42.011719 64.5 42.007812 64.535156 41.996094 C 64.597656 41.960938 64.660156 41.925781 64.71875 41.886719 Z M 64.710938 41.917969 " fill-opacity="1" fill-rule="nonzero"/></g></g></g><g clip-path="url(#575e485a25)"><g clip-path="url(#cdda974490)"><g clip-path="url(#8d8894057c)"><path fill="#f6c55d" d="M 43.835938 71.335938 C 43.519531 71.441406 43.199219 71.542969 42.886719 71.660156 C 42.835938 71.679688 42.804688 71.777344 42.789062 71.84375 C 42.769531 71.929688 42.925781 72.078125 42.996094 72.066406 C 43.070312 72.0625 43.144531 72.046875 43.214844 72.023438 C 44.128906 71.59375 45.097656 71.28125 45.957031 70.738281 C 46.019531 70.695312 46.085938 70.660156 46.15625 70.636719 C 46.921875 70.425781 47.601562 70.023438 48.300781 69.667969 C 48.46875 69.582031 48.640625 69.507812 48.816406 69.453125 C 49.324219 69.289062 49.769531 69.011719 50.21875 68.742188 C 50.300781 68.691406 50.308594 68.609375 50.25 68.570312 C 50.191406 68.527344 50.125 68.503906 50.050781 68.5 C 49.976562 68.503906 49.90625 68.523438 49.835938 68.558594 C 48.988281 68.945312 48.136719 69.335938 47.289062 69.726562 C 47.191406 69.78125 47.085938 69.824219 46.976562 69.855469 C 46.484375 69.949219 46.078125 70.21875 45.652344 70.449219 C 45.058594 70.765625 44.472656 71.101562 43.835938 71.335938 Z M 43.835938 71.335938 " fill-opacity="1" fill-rule="nonzero"/></g></g></g><g clip-path="url(#44bca14600)"><g clip-path="url(#24d99fb07f)"><g clip-path="url(#685d354f02)"><path fill="#f6c55d" d="M 53.527344 66.875 C 53.414062 66.96875 53.328125 67.035156 53.25 67.109375 C 53.222656 67.136719 53.214844 67.167969 53.21875 67.203125 C 53.242188 67.292969 53.304688 67.34375 53.378906 67.316406 C 54.28125 66.976562 55.183594 66.636719 56.085938 66.292969 C 56.125 66.28125 56.15625 66.253906 56.171875 66.21875 C 56.207031 66.15625 56.21875 66.089844 56.210938 66.015625 C 56.183594 65.949219 56.136719 65.902344 56.070312 65.875 C 56 65.839844 55.925781 65.835938 55.851562 65.859375 C 55.0625 66.199219 54.28125 66.542969 53.527344 66.875 Z M 53.527344 66.875 " fill-opacity="1" fill-rule="nonzero"/></g></g></g><g clip-path="url(#434128a13b)"><g clip-path="url(#963c7fdee7)"><g clip-path="url(#2821c96f46)"><path fill="#f6c55d" d="M 58.617188 37.355469 C 58.3125 37 57.964844 36.730469 57.460938 36.753906 L 57.476562 36.714844 C 57.675781 36.96875 57.949219 37.128906 58.230469 37.28125 C 58.355469 37.355469 58.488281 37.371094 58.628906 37.316406 Z M 58.617188 37.355469 " fill-opacity="1" fill-rule="nonzero"/></g></g></g><g clip-path="url(#c2f78e57cc)"><g clip-path="url(#201dee3bdf)"><g clip-path="url(#859f68177a)"><path fill="#f6c55d" d="M 59.777344 38.011719 C 59.613281 37.726562 59.390625 37.558594 59.042969 37.65625 L 59.054688 37.621094 C 59.238281 37.871094 59.464844 38.019531 59.789062 37.972656 Z M 59.777344 38.011719 " fill-opacity="1" fill-rule="nonzero"/></g></g></g><g clip-path="url(#f8fe806b49)"><g clip-path="url(#8e7b47ef03)"><g clip-path="url(#d069c1e42c)"><path fill="#f6c55d" d="M 57.035156 36.445312 C 56.929688 36.296875 56.789062 36.195312 56.613281 36.140625 C 56.582031 36.132812 56.523438 36.117188 56.515625 36.132812 C 56.453125 36.210938 56.464844 36.269531 56.558594 36.3125 C 56.710938 36.40625 56.863281 36.488281 57.046875 36.410156 Z M 57.035156 36.445312 " fill-opacity="1" fill-rule="nonzero"/></g></g></g><g clip-path="url(#c4ee4f5a9a)"><g clip-path="url(#c4d4f0054c)"><g clip-path="url(#2e6ecbff58)"><path fill="#f6c55d" d="M 57.046875 36.40625 C 57.136719 36.585938 57.261719 36.714844 57.472656 36.714844 L 57.460938 36.753906 C 57.367188 36.585938 57.246094 36.449219 57.035156 36.445312 Z M 57.046875 36.40625 " fill-opacity="1" fill-rule="nonzero"/></g></g></g><g clip-path="url(#e5f8d77543)"><g clip-path="url(#ae18408421)"><g clip-path="url(#c28144a29d)"><path fill="#f6c55d" d="M 58.628906 37.320312 C 58.722656 37.488281 58.824219 37.644531 59.054688 37.621094 L 59.042969 37.65625 C 58.957031 37.476562 58.84375 37.335938 58.617188 37.355469 Z M 58.628906 37.320312 " fill-opacity="1" fill-rule="nonzero"/></g></g></g></g></g></g></g><g clip-path="url(#c863d5dd93)"><g><g clip-path="url(#81715f7814)"><g fill="#ffffff" fill-opacity="1"><g transform="translate(3.907077, 85.570725)"><g><path d="M -1.859375 -1.390625 L 5.578125 -4.1875 L 31.125 -65.953125 L 33.90625 -65.953125 L 60.375 -2.78125 L 65.03125 -1.390625 L 65.03125 0 L 53.875 0 C 50.65625 0 48.023438 -0.722656 45.984375 -2.171875 C 43.941406 -3.628906 42.421875 -5.535156 41.421875 -7.890625 L 36.6875 -19.046875 L 14.484375 -19.046875 L 8.359375 -4.1875 L 15.328125 -1.390625 L 15.328125 0 L -1.859375 0 Z M 15.421875 -21.359375 L 35.765625 -21.359375 L 25.546875 -45.796875 Z M 15.421875 -21.359375 "/></g></g></g><g fill="#ffffff" fill-opacity="1"><g transform="translate(67.06679, 85.570725)"><g><path d="M 13 -53.40625 L 13 -4.1875 L 20.4375 -1.390625 L 20.4375 0 L 2.78125 0 L 2.78125 -1.390625 L 10.21875 -4.1875 L 10.21875 -62.234375 L 4.640625 -63.625 L 4.640625 -65.03125 L 16.25 -65.03125 C 19.476562 -65.03125 22.035156 -64.363281 23.921875 -63.03125 C 25.804688 -61.695312 27.429688 -59.726562 28.796875 -57.125 L 49.046875 -18.390625 L 64.5625 -57.125 C 65.613281 -59.851562 67.035156 -61.851562 68.828125 -63.125 C 70.628906 -64.394531 73.382812 -65.03125 77.09375 -65.03125 L 86.859375 -65.03125 L 86.859375 -63.625 L 81.28125 -62.234375 L 81.28125 -2.78125 L 86.859375 -1.390625 L 86.859375 0 L 60.375 0 L 60.375 -1.390625 L 65.953125 -2.78125 L 65.953125 -53.40625 L 44.125 0.921875 L 41.34375 0.921875 Z M 13 -53.40625 "/></g></g></g><g fill="#ffffff" fill-opacity="1"><g transform="translate(158.555482, 85.570725)"><g><path d="M -1.859375 -1.390625 L 5.578125 -4.1875 L 31.125 -65.953125 L 33.90625 -65.953125 L 60.375 -2.78125 L 65.03125 -1.390625 L 65.03125 0 L 53.875 0 C 50.65625 0 48.023438 -0.722656 45.984375 -2.171875 C 43.941406 -3.628906 42.421875 -5.535156 41.421875 -7.890625 L 36.6875 -19.046875 L 14.484375 -19.046875 L 8.359375 -4.1875 L 15.328125 -1.390625 L 15.328125 0 L -1.859375 0 Z M 15.421875 -21.359375 L 35.765625 -21.359375 L 25.546875 -45.796875 Z M 15.421875 -21.359375 "/></g></g></g><g fill="#ffffff" fill-opacity="1"><g transform="translate(221.715182, 85.570725)"><g><path d="M 13 -49.234375 L 13 -4.1875 L 20.4375 -1.390625 L 20.4375 0 L 2.78125 0 L 2.78125 -1.390625 L 10.21875 -4.1875 L 10.21875 -61.765625 L 3.71875 -63.625 L 3.71875 -65.03125 L 13.46875 -65.03125 C 16.75 -65.03125 19.316406 -64.441406 21.171875 -63.265625 C 23.035156 -62.085938 24.800781 -60.503906 26.46875 -58.515625 L 56.203125 -23.6875 L 56.203125 -60.84375 L 48.765625 -63.625 L 48.765625 -65.03125 L 66.421875 -65.03125 L 66.421875 -63.625 L 58.984375 -60.84375 L 58.984375 1.390625 L 56.203125 1.390625 Z M 13 -49.234375 "/></g></g></g><g fill="#ffffff" fill-opacity="1"><g transform="translate(290.447833, 85.570725)"><g><path d="M -1.859375 -1.390625 L 5.578125 -4.1875 L 31.125 -65.953125 L 33.90625 -65.953125 L 60.375 -2.78125 L 65.03125 -1.390625 L 65.03125 0 L 53.875 0 C 50.65625 0 48.023438 -0.722656 45.984375 -2.171875 C 43.941406 -3.628906 42.421875 -5.535156 41.421875 -7.890625 L 36.6875 -19.046875 L 14.484375 -19.046875 L 8.359375 -4.1875 L 15.328125 -1.390625 L 15.328125 0 L -1.859375 0 Z M 15.421875 -21.359375 L 35.765625 -21.359375 L 25.546875 -45.796875 Z M 15.421875 -21.359375 "/></g></g></g></g></g></g><g fill="#f6c55d" fill-opacity="1"><g transform="translate(154.363631, 112.32338)"><g><path d="M 19.125 -17.515625 C 19.125 -15.222656 18.28125 -13.488281 16.59375 -12.3125 C 14.914062 -11.132812 12.632812 -10.546875 9.75 -10.546875 L 6.6875 -10.546875 L 6.6875 0 L 3.21875 0 L 3.21875 -23.65625 L 10.90625 -23.65625 C 13.3125 -23.65625 15.28125 -23.109375 16.8125 -22.015625 C 18.351562 -20.921875 19.125 -19.421875 19.125 -17.515625 Z M 6.6875 -11.578125 L 9.859375 -11.578125 C 10.984375 -11.578125 11.941406 -11.789062 12.734375 -12.21875 C 13.535156 -12.644531 14.113281 -13.191406 14.46875 -13.859375 C 15.113281 -15.054688 15.4375 -16.210938 15.4375 -17.328125 C 15.4375 -17.878906 15.296875 -18.535156 15.015625 -19.296875 C 14.441406 -20.867188 13.257812 -21.894531 11.46875 -22.375 C 9.75 -22.375 8.15625 -22.171875 6.6875 -21.765625 Z M 6.6875 -11.578125 "/></g></g></g><g fill="#f6c55d" fill-opacity="1"><g transform="translate(173.870237, 112.32338)"><g><path d="M 0.359375 0 L 10.96875 -24.234375 L 11.5 -24.234375 L 22.125 0 L 18.21875 0 L 15.546875 -6.4375 L 4.9375 -6.4375 L 2.28125 0 Z M 5.46875 -7.796875 L 14.96875 -7.796875 L 10.25 -19.375 Z M 5.46875 -7.796875 "/></g></g></g><g fill="#f6c55d" fill-opacity="1"><g transform="translate(196.342139, 112.32338)"><g><path d="M 11.296875 0 L 7.828125 0 L 7.828125 -21.9375 C 7.015625 -22.132812 6.203125 -22.234375 5.390625 -22.234375 L 0.578125 -21.125 L 0.359375 -23.65625 L 18.765625 -23.65625 L 18.578125 -21.125 L 13.71875 -22.234375 C 12.90625 -22.234375 12.097656 -22.132812 11.296875 -21.9375 Z M 11.296875 0 "/></g></g></g><g fill="#f6c55d" fill-opacity="1"><g transform="translate(215.455756, 112.32338)"><g><path d="M 6.71875 -11.296875 L 6.71875 0 L 3.21875 0 L 3.21875 -23.65625 L 10.9375 -23.65625 C 13.34375 -23.65625 15.3125 -23.117188 16.84375 -22.046875 C 18.382812 -20.972656 19.15625 -19.5625 19.15625 -17.8125 C 19.15625 -16.0625 18.539062 -14.679688 17.3125 -13.671875 C 16.082031 -12.660156 14.421875 -11.960938 12.328125 -11.578125 L 21.90625 0 L 17.765625 0.5 L 9.46875 -11.296875 Z M 6.71875 -12.359375 L 9 -12.359375 C 13.289062 -12.359375 15.4375 -14.050781 15.4375 -17.4375 C 15.4375 -18.007812 15.296875 -18.65625 15.015625 -19.375 C 14.460938 -20.875 13.289062 -21.859375 11.5 -22.328125 C 9.882812 -22.328125 8.289062 -22.125 6.71875 -21.71875 Z M 6.71875 -12.359375 "/></g></g></g><g fill="#f6c55d" fill-opacity="1"><g transform="translate(238.249199, 112.32338)"><g><path d="M 6.5 -23.65625 L 6.5 0 L 3.21875 0 L 3.21875 -23.65625 Z M 6.5 -23.65625 "/></g></g></g><g fill="#f6c55d" fill-opacity="1"><g transform="translate(247.966789, 112.32338)"><g><path d="M 15.828125 -5.609375 L 23.734375 -23.65625 L 27.375 -23.65625 L 28.6875 0 L 25.046875 0 L 24.078125 -20.328125 L 23.9375 -20.328125 L 14.9375 0 L 14.4375 0 L 5.609375 -19.515625 L 5.46875 -19.515625 L 4.5 0 L 2.9375 0 L 4.25 -23.65625 L 7.578125 -23.65625 Z M 15.828125 -5.609375 "/></g></g></g><g fill="#f6c55d" fill-opacity="1"><g transform="translate(279.727545, 112.32338)"><g><path d="M 13.96875 -24.078125 C 17.070312 -24.078125 19.632812 -23.054688 21.65625 -21.015625 C 23.675781 -18.984375 24.6875 -16.160156 24.6875 -12.546875 C 24.6875 -10.210938 24.28125 -8.164062 23.46875 -6.40625 C 22.664062 -4.65625 21.609375 -3.304688 20.296875 -2.359375 C 17.742188 -0.503906 14.929688 0.421875 11.859375 0.421875 C 8.785156 0.421875 6.242188 -0.601562 4.234375 -2.65625 C 2.222656 -4.71875 1.21875 -7.5625 1.21875 -11.1875 C 1.21875 -13.070312 1.484375 -14.769531 2.015625 -16.28125 C 2.554688 -17.789062 3.257812 -19.019531 4.125 -19.96875 C 5 -20.925781 6.003906 -21.726562 7.140625 -22.375 C 9.242188 -23.507812 11.519531 -24.078125 13.96875 -24.078125 Z M 6.796875 -4.078125 C 7.410156 -3.023438 8.238281 -2.207031 9.28125 -1.625 C 10.332031 -1.039062 11.539062 -0.75 12.90625 -0.75 C 14.28125 -0.75 15.503906 -1.09375 16.578125 -1.78125 C 17.648438 -2.476562 18.484375 -3.382812 19.078125 -4.5 C 20.296875 -6.738281 20.90625 -9.144531 20.90625 -11.71875 C 20.90625 -14.882812 20.273438 -17.4375 19.015625 -19.375 C 17.609375 -21.539062 15.285156 -22.625 12.046875 -22.625 C 9.734375 -21.8125 7.976562 -20.414062 6.78125 -18.4375 C 5.59375 -16.457031 5 -14.21875 5 -11.71875 C 5 -8.664062 5.597656 -6.117188 6.796875 -4.078125 Z M 6.796875 -4.078125 "/></g></g></g><g fill="#f6c55d" fill-opacity="1"><g transform="translate(305.62918, 112.32338)"><g><path d="M 6.5 -23.65625 L 6.5 0 L 3.21875 0 L 3.21875 -23.65625 Z M 6.5 -23.65625 "/></g></g></g><g fill="#f6c55d" fill-opacity="1"><g transform="translate(315.34677, 112.32338)"><g><path d="M 21.1875 0.390625 L 20.578125 0.390625 L 4.9375 -19.1875 L 4.78125 -19.1875 L 4.78125 0 L 3.21875 0 L 3.21875 -23.65625 L 5.859375 -23.65625 L 19.46875 -6.46875 L 19.625 -6.46875 L 19.625 -23.65625 L 21.1875 -23.65625 Z M 21.1875 0.390625 "/></g></g></g><g fill="#f6c55d" fill-opacity="1"><g transform="translate(339.747896, 112.32338)"><g><path d="M 3.21875 0 L 3.21875 -23.65625 L 17.546875 -23.65625 L 17.1875 -21.265625 L 10.546875 -22.375 C 9.378906 -22.375 8.09375 -22.171875 6.6875 -21.765625 L 6.6875 -13.078125 L 14.609375 -13.078125 L 14.609375 -11.71875 L 6.6875 -11.71875 L 6.6875 -1.28125 L 17.765625 -2.390625 L 17.40625 0 Z M 3.21875 0 "/></g></g></g></g></g></svg>