<svg xmlns="http://www.w3.org/2000/svg" xmlns:xlink="http://www.w3.org/1999/xlink" width="500" zoomAndPan="magnify" viewBox="0 0 375 374.999991" height="500" preserveAspectRatio="xMidYMid meet" version="1.0"><defs><g/><clipPath id="ffac22d7ba"><path d="M 44 176 L 165 176 L 165 263 L 44 263 Z M 44 176 " clip-rule="nonzero"/></clipPath><clipPath id="42f641cc1a"><path d="M 44.554688 252.078125 L 51.53125 176.648438 L 165.046875 187.148438 L 158.070312 262.574219 Z M 44.554688 252.078125 " clip-rule="nonzero"/></clipPath><clipPath id="9e3d4717cf"><path d="M 7 0.640625 L 118 0.640625 L 118 80 L 7 80 Z M 7 0.640625 " clip-rule="nonzero"/></clipPath><clipPath id="2f91d9ea97"><path d="M 0.554688 76.078125 L 7.53125 0.648438 L 121.046875 11.148438 L 114.070312 86.574219 Z M 0.554688 76.078125 " clip-rule="nonzero"/></clipPath><clipPath id="3b7dc7daaa"><path d="M 7.535156 0.601562 L 0.558594 76.03125 L 114.074219 86.527344 L 121.050781 11.101562 Z M 7.535156 0.601562 " clip-rule="nonzero"/></clipPath><clipPath id="e57dafbf15"><path d="M 43 43 L 61 43 L 61 50 L 43 50 Z M 43 43 " clip-rule="nonzero"/></clipPath><clipPath id="2a30b2c646"><path d="M 0.554688 76.078125 L 7.53125 0.648438 L 121.046875 11.148438 L 114.070312 86.574219 Z M 0.554688 76.078125 " clip-rule="nonzero"/></clipPath><clipPath id="0f50d45734"><path d="M 7.535156 0.601562 L 0.558594 76.03125 L 114.074219 86.527344 L 121.050781 11.101562 Z M 7.535156 0.601562 " clip-rule="nonzero"/></clipPath><clipPath id="53e1d5af6a"><path d="M 14 32 L 26 32 L 26 36 L 14 36 Z M 14 32 " clip-rule="nonzero"/></clipPath><clipPath id="6406287c30"><path d="M 0.554688 76.078125 L 7.53125 0.648438 L 121.046875 11.148438 L 114.070312 86.574219 Z M 0.554688 76.078125 " clip-rule="nonzero"/></clipPath><clipPath id="ee4ab6955f"><path d="M 7.535156 0.601562 L 0.558594 76.03125 L 114.074219 86.527344 L 121.050781 11.101562 Z M 7.535156 0.601562 " clip-rule="nonzero"/></clipPath><clipPath id="cdc119bb53"><path d="M 28 36 L 31 36 L 31 38 L 28 38 Z M 28 36 " clip-rule="nonzero"/></clipPath><clipPath id="e5e31e193f"><path d="M 0.554688 76.078125 L 7.53125 0.648438 L 121.046875 11.148438 L 114.070312 86.574219 Z M 0.554688 76.078125 " clip-rule="nonzero"/></clipPath><clipPath id="fbc03504ab"><path d="M 7.535156 0.601562 L 0.558594 76.03125 L 114.074219 86.527344 L 121.050781 11.101562 Z M 7.535156 0.601562 " clip-rule="nonzero"/></clipPath><clipPath id="64fc06793b"><path d="M 68 44 L 70 44 L 70 45 L 68 45 Z M 68 44 " clip-rule="nonzero"/></clipPath><clipPath id="821d557d71"><path d="M 0.554688 76.078125 L 7.53125 0.648438 L 121.046875 11.148438 L 114.070312 86.574219 Z M 0.554688 76.078125 " clip-rule="nonzero"/></clipPath><clipPath id="50a161e743"><path d="M 7.535156 0.601562 L 0.558594 76.03125 L 114.074219 86.527344 L 121.050781 11.101562 Z M 7.535156 0.601562 " clip-rule="nonzero"/></clipPath><clipPath id="a7beb2ebe9"><path d="M 45 72 L 54 72 L 54 77 L 45 77 Z M 45 72 " clip-rule="nonzero"/></clipPath><clipPath id="e4fa193cee"><path d="M 0.554688 76.078125 L 7.53125 0.648438 L 121.046875 11.148438 L 114.070312 86.574219 Z M 0.554688 76.078125 " clip-rule="nonzero"/></clipPath><clipPath id="d16a1c3289"><path d="M 7.535156 0.601562 L 0.558594 76.03125 L 114.074219 86.527344 L 121.050781 11.101562 Z M 7.535156 0.601562 " clip-rule="nonzero"/></clipPath><clipPath id="51687104ab"><path d="M 56 70 L 61 70 L 61 72 L 56 72 Z M 56 70 " clip-rule="nonzero"/></clipPath><clipPath id="57065150f9"><path d="M 0.554688 76.078125 L 7.53125 0.648438 L 121.046875 11.148438 L 114.070312 86.574219 Z M 0.554688 76.078125 " clip-rule="nonzero"/></clipPath><clipPath id="a3ca7e287b"><path d="M 7.535156 0.601562 L 0.558594 76.03125 L 114.074219 86.527344 L 121.050781 11.101562 Z M 7.535156 0.601562 " clip-rule="nonzero"/></clipPath><clipPath id="669658eb50"><path d="M 61 39 L 63 39 L 63 40 L 61 40 Z M 61 39 " clip-rule="nonzero"/></clipPath><clipPath id="6113024e91"><path d="M 0.554688 76.078125 L 7.53125 0.648438 L 121.046875 11.148438 L 114.070312 86.574219 Z M 0.554688 76.078125 " clip-rule="nonzero"/></clipPath><clipPath id="4facf86fa3"><path d="M 7.535156 0.601562 L 0.558594 76.03125 L 114.074219 86.527344 L 121.050781 11.101562 Z M 7.535156 0.601562 " clip-rule="nonzero"/></clipPath><clipPath id="af64812ff6"><path d="M 63 40 L 64 40 L 64 41 L 63 41 Z M 63 40 " clip-rule="nonzero"/></clipPath><clipPath id="207035b3a6"><path d="M 0.554688 76.078125 L 7.53125 0.648438 L 121.046875 11.148438 L 114.070312 86.574219 Z M 0.554688 76.078125 " clip-rule="nonzero"/></clipPath><clipPath id="b17dd70182"><path d="M 7.535156 0.601562 L 0.558594 76.03125 L 114.074219 86.527344 L 121.050781 11.101562 Z M 7.535156 0.601562 " clip-rule="nonzero"/></clipPath><clipPath id="d0d5a21343"><path d="M 60 38 L 61 38 L 61 39 L 60 39 Z M 60 38 " clip-rule="nonzero"/></clipPath><clipPath id="0008647440"><path d="M 0.554688 76.078125 L 7.53125 0.648438 L 121.046875 11.148438 L 114.070312 86.574219 Z M 0.554688 76.078125 " clip-rule="nonzero"/></clipPath><clipPath id="68f6bfad10"><path d="M 7.535156 0.601562 L 0.558594 76.03125 L 114.074219 86.527344 L 121.050781 11.101562 Z M 7.535156 0.601562 " clip-rule="nonzero"/></clipPath><clipPath id="30a35d3f5a"><path d="M 60 38 L 62 38 L 62 40 L 60 40 Z M 60 38 " clip-rule="nonzero"/></clipPath><clipPath id="401d40c3a8"><path d="M 0.554688 76.078125 L 7.53125 0.648438 L 121.046875 11.148438 L 114.070312 86.574219 Z M 0.554688 76.078125 " clip-rule="nonzero"/></clipPath><clipPath id="7811a6a741"><path d="M 7.535156 0.601562 L 0.558594 76.03125 L 114.074219 86.527344 L 121.050781 11.101562 Z M 7.535156 0.601562 " clip-rule="nonzero"/></clipPath><clipPath id="a47cdf2f6d"><path d="M 62 39 L 64 39 L 64 41 L 62 41 Z M 62 39 " clip-rule="nonzero"/></clipPath><clipPath id="ef7f04d8fd"><path d="M 0.554688 76.078125 L 7.53125 0.648438 L 121.046875 11.148438 L 114.070312 86.574219 Z M 0.554688 76.078125 " clip-rule="nonzero"/></clipPath><clipPath id="89a2bc4f47"><path d="M 7.535156 0.601562 L 0.558594 76.03125 L 114.074219 86.527344 L 121.050781 11.101562 Z M 7.535156 0.601562 " clip-rule="nonzero"/></clipPath><clipPath id="0fae6cc81d"><rect x="0" width="121" y="0" height="87"/></clipPath><clipPath id="0986c14783"><rect x="0" width="347" y="0" height="104"/></clipPath><clipPath id="32f6b5c0c2"><rect x="0" width="219" y="0" height="45"/></clipPath></defs><g clip-path="url(#ffac22d7ba)"><g clip-path="url(#42f641cc1a)"><g transform="matrix(1, 0, 0, 1, 44, 176)"><g clip-path="url(#0fae6cc81d)"><g clip-path="url(#9e3d4717cf)"><g clip-path="url(#2f91d9ea97)"><g clip-path="url(#3b7dc7daaa)"><path fill="#f6c55d" d="M 68.910156 72.628906 C 69.851562 72.03125 70.839844 71.5 71.683594 70.757812 C 71.871094 70.609375 72.066406 70.46875 72.265625 70.339844 C 72.722656 70.027344 73.210938 69.746094 73.605469 69.339844 C 73.753906 69.207031 73.914062 69.089844 74.089844 68.992188 C 74.886719 68.457031 75.625 67.847656 76.296875 67.167969 C 76.667969 66.804688 77.046875 66.453125 77.417969 66.089844 C 78.164062 65.363281 78.761719 64.515625 79.429688 63.726562 C 79.949219 63.121094 80.449219 62.503906 80.960938 61.890625 C 81.082031 61.730469 81.214844 61.585938 81.363281 61.449219 C 82.074219 60.867188 82.6875 60.183594 83.347656 59.550781 C 83.808594 59.109375 84.304688 58.707031 84.78125 58.289062 C 85.019531 58.074219 85.25 57.851562 85.484375 57.640625 C 85.902344 57.269531 86.277344 56.859375 86.714844 56.507812 C 87.117188 56.183594 87.464844 55.789062 87.832031 55.425781 C 88.402344 54.871094 88.953125 54.292969 89.570312 53.789062 C 89.785156 53.605469 89.984375 53.414062 90.175781 53.210938 C 91.5625 51.820312 93.066406 50.589844 94.804688 49.652344 C 95.152344 49.460938 95.488281 49.242188 95.820312 49.019531 C 96.800781 48.382812 97.863281 47.945312 99.007812 47.710938 C 99.28125 47.648438 99.550781 47.574219 99.824219 47.515625 C 100.25 47.414062 100.6875 47.363281 101.125 47.359375 C 102.003906 47.355469 102.878906 47.320312 103.753906 47.292969 C 104.792969 47.253906 105.820312 47.144531 106.84375 46.964844 C 107.195312 46.902344 107.554688 46.859375 107.914062 46.84375 C 108.589844 46.804688 109.261719 46.71875 109.929688 46.582031 C 111.570312 46.257812 113.210938 45.921875 114.84375 45.5625 C 115.464844 45.410156 116.074219 45.226562 116.675781 45.015625 C 116.902344 44.929688 117.113281 44.816406 117.304688 44.675781 C 117.398438 44.597656 117.46875 44.507812 117.519531 44.398438 C 117.613281 44.234375 117.5 43.960938 117.328125 43.898438 C 117.097656 43.800781 116.863281 43.792969 116.625 43.867188 C 115.195312 44.386719 113.703125 44.640625 112.214844 44.929688 C 111.085938 45.152344 109.953125 45.402344 108.804688 45.5625 C 107.941406 45.6875 107.070312 45.851562 106.195312 45.886719 C 105.878906 45.902344 105.5625 45.96875 105.246094 46 C 104.730469 46.054688 104.210938 46.101562 103.695312 46.136719 C 102.621094 46.210938 101.550781 46.261719 100.476562 46.335938 C 99.046875 46.441406 97.617188 46.617188 96.1875 46.660156 C 94.675781 46.703125 93.167969 46.890625 91.648438 46.792969 C 91.292969 46.769531 90.929688 46.820312 90.574219 46.84375 C 89.894531 46.886719 89.21875 46.941406 88.542969 46.824219 C 88.425781 46.816406 88.304688 46.816406 88.183594 46.824219 C 86.667969 46.816406 85.160156 46.71875 83.65625 46.527344 C 83.578125 46.511719 83.5 46.503906 83.417969 46.503906 C 82.695312 46.566406 81.992188 46.421875 81.285156 46.320312 C 79.898438 46.117188 78.546875 45.804688 77.242188 45.285156 C 76.316406 44.90625 75.375 44.578125 74.417969 44.296875 C 73.765625 44.113281 73.132812 43.871094 72.523438 43.570312 C 71.449219 43.042969 70.371094 42.523438 69.363281 41.875 C 68.347656 41.234375 67.410156 40.496094 66.550781 39.65625 C 65.902344 39.011719 65.230469 38.390625 64.546875 37.777344 C 63.800781 37.113281 63.113281 36.398438 62.476562 35.632812 C 61.921875 34.953125 61.332031 34.3125 60.703125 33.707031 C 59.683594 32.753906 58.742188 31.722656 57.742188 30.753906 C 57.628906 30.644531 57.511719 30.535156 57.390625 30.429688 C 56.507812 29.6875 55.632812 28.929688 54.730469 28.210938 C 54.269531 27.828125 53.773438 27.492188 53.25 27.199219 C 52.761719 26.9375 52.304688 26.609375 51.835938 26.296875 C 50.972656 25.726562 50.101562 25.175781 49.144531 24.761719 C 48.527344 24.476562 47.933594 24.152344 47.363281 23.78125 C 46.851562 23.472656 46.320312 23.191406 45.777344 22.941406 C 44.511719 22.355469 43.238281 21.78125 41.964844 21.207031 C 41.710938 21.09375 41.449219 21.003906 41.183594 20.914062 C 40.199219 20.582031 39.242188 20.1875 38.242188 19.914062 C 37.664062 19.753906 37.097656 19.566406 36.539062 19.347656 C 35.980469 19.140625 35.40625 18.96875 34.828125 18.828125 C 33.863281 18.574219 32.914062 18.277344 31.964844 17.96875 C 30.671875 17.554688 29.359375 17.21875 28.054688 16.859375 C 26.78125 16.515625 25.503906 16.199219 24.230469 15.863281 C 23.996094 15.8125 23.769531 15.746094 23.546875 15.652344 C 23.074219 15.425781 22.570312 15.308594 22.066406 15.1875 C 21.988281 15.171875 21.910156 15.152344 21.832031 15.128906 C 20.710938 14.71875 19.578125 14.339844 18.4375 13.980469 C 18.011719 13.84375 17.660156 13.570312 17.316406 13.300781 C 16.941406 13.003906 16.558594 12.722656 16.179688 12.429688 C 15.738281 12.09375 15.351562 11.691406 14.957031 11.292969 C 14.5625 10.898438 14.179688 10.492188 13.902344 10 C 13.785156 9.789062 13.648438 9.59375 13.492188 9.414062 C 12.851562 8.6875 12.363281 7.871094 12.03125 6.960938 C 11.988281 6.847656 11.9375 6.742188 11.875 6.640625 C 11.355469 5.789062 10.953125 4.875 10.585938 3.945312 C 10.457031 3.613281 10.285156 3.296875 10.191406 2.945312 C 10.058594 2.472656 9.820312 2.070312 9.464844 1.726562 C 9.128906 1.394531 8.851562 0.992188 8.394531 0.785156 C 8.109375 0.652344 7.707031 0.789062 7.597656 1.089844 C 7.570312 1.164062 7.546875 1.238281 7.523438 1.316406 C 7.496094 1.433594 7.476562 1.550781 7.464844 1.671875 C 7.449219 1.867188 7.445312 2.066406 7.457031 2.265625 C 7.550781 3.496094 7.644531 4.730469 7.773438 5.960938 C 7.832031 6.476562 7.910156 6.992188 7.867188 7.503906 C 7.820312 8.09375 8.070312 8.59375 8.25 9.117188 C 8.261719 9.15625 8.28125 9.191406 8.304688 9.222656 C 8.761719 9.722656 9.082031 10.335938 9.636719 10.753906 C 9.890625 10.945312 10.125 11.167969 10.386719 11.34375 C 11.542969 12.125 12.640625 12.992188 13.839844 13.707031 C 14.179688 13.917969 14.527344 14.105469 14.890625 14.273438 C 15.257812 14.4375 15.585938 14.660156 15.875 14.9375 C 16.527344 15.523438 17.136719 16.152344 17.703125 16.824219 C 18.511719 17.8125 19.339844 18.78125 20.042969 19.851562 C 20.570312 20.402344 20.988281 21.03125 21.453125 21.628906 C 22.0625 22.414062 22.710938 23.167969 23.300781 23.972656 C 23.992188 24.902344 24.773438 25.75 25.640625 26.515625 C 26.113281 26.9375 26.585938 27.363281 27.058594 27.792969 C 28.101562 28.726562 29.203125 29.582031 30.363281 30.359375 C 31.117188 30.875 31.859375 31.410156 32.605469 31.941406 C 32.699219 32 32.710938 32.070312 32.636719 32.15625 C 32.589844 32.21875 32.527344 32.253906 32.449219 32.269531 C 31.972656 32.238281 31.496094 32.210938 31.019531 32.15625 C 30.027344 32.035156 29.035156 31.992188 28.035156 31.957031 C 27.519531 31.9375 27.003906 31.929688 26.488281 31.839844 C 26.171875 31.796875 25.855469 31.777344 25.535156 31.78125 C 24.65625 31.742188 23.785156 31.640625 22.921875 31.476562 C 22.257812 31.351562 21.585938 31.246094 20.914062 31.160156 C 19.804688 31.019531 18.71875 30.753906 17.644531 30.460938 C 16.71875 30.203125 15.796875 29.953125 14.871094 29.710938 C 14.054688 29.507812 13.269531 29.222656 12.511719 28.863281 C 11.722656 28.480469 10.902344 28.164062 10.085938 27.839844 C 9.691406 27.6875 9.304688 27.699219 8.921875 27.878906 C 8.664062 27.988281 8.496094 28.304688 8.582031 28.5625 C 8.625 28.714844 8.679688 28.863281 8.75 29.007812 C 9.136719 29.75 9.570312 30.457031 10.144531 31.082031 C 10.519531 31.488281 10.863281 31.929688 11.222656 32.351562 C 11.582031 32.773438 12.015625 33.132812 12.414062 33.523438 C 13.8125 34.921875 15.476562 35.929688 17.167969 36.921875 C 18.476562 37.691406 19.855469 38.308594 21.273438 38.859375 C 23.578125 39.761719 25.832031 40.769531 28.089844 41.78125 C 29.730469 42.515625 31.394531 43.175781 33.050781 43.859375 C 34.5625 44.484375 36.078125 45.097656 37.546875 45.8125 C 38.15625 46.109375 38.792969 46.34375 39.414062 46.613281 C 41.320312 47.429688 43.238281 48.210938 45.160156 48.988281 C 46.117188 49.375 47.03125 49.871094 47.960938 50.328125 C 48.824219 50.75 49.691406 51.140625 50.613281 51.421875 C 51.371094 51.65625 52.109375 51.96875 52.859375 52.238281 C 54.328125 52.769531 55.847656 53.089844 57.394531 53.304688 C 57.472656 53.316406 57.550781 53.324219 57.632812 53.320312 C 58.789062 53.273438 59.945312 53.238281 61.097656 53.171875 C 61.65625 53.140625 62.207031 53.058594 62.761719 52.984375 C 63.15625 52.933594 63.550781 52.875 63.941406 52.808594 C 64.765625 52.664062 65.589844 52.507812 66.410156 52.355469 C 67.355469 52.191406 68.277344 51.941406 69.175781 51.613281 C 70.070312 51.277344 70.988281 51 71.886719 50.679688 C 73.386719 50.148438 74.878906 49.589844 76.386719 49.066406 C 77.671875 48.628906 78.984375 48.292969 80.292969 47.960938 C 80.796875 47.839844 81.292969 47.636719 81.800781 47.589844 C 82.308594 47.542969 82.828125 47.664062 83.347656 47.683594 C 84.464844 47.726562 85.578125 47.8125 86.6875 47.933594 C 88.554688 48.140625 90.429688 48.101562 92.300781 47.996094 C 92.699219 47.976562 93.097656 47.933594 93.496094 47.921875 C 93.933594 47.914062 94.371094 47.925781 94.808594 47.945312 C 94.867188 47.949219 94.921875 48.023438 94.96875 48.078125 C 94.976562 48.089844 94.945312 48.15625 94.914062 48.179688 C 94.113281 48.78125 93.210938 49.207031 92.292969 49.597656 C 91.707031 49.847656 91.097656 50.035156 90.507812 50.277344 C 88.992188 50.90625 87.394531 51.269531 85.835938 51.757812 C 85.078125 51.992188 84.292969 52.144531 83.519531 52.339844 C 82.050781 52.714844 80.597656 53.132812 79.152344 53.585938 C 78.355469 53.839844 77.550781 54.070312 76.730469 54.25 C 75.5625 54.507812 74.402344 54.789062 73.238281 55.078125 C 72.777344 55.195312 72.320312 55.347656 71.871094 55.507812 C 71.007812 55.816406 70.160156 56.164062 69.332031 56.554688 C 69.230469 56.617188 69.121094 56.667969 69.011719 56.714844 C 68.160156 56.964844 67.410156 57.429688 66.644531 57.851562 C 65.90625 58.257812 65.105469 58.503906 64.328125 58.808594 C 64.0625 58.898438 63.808594 59.007812 63.5625 59.136719 C 62.253906 59.90625 60.933594 60.652344 59.667969 61.484375 C 58.902344 61.984375 58.132812 62.492188 57.464844 63.125 C 57.410156 63.183594 57.351562 63.234375 57.285156 63.28125 C 56.460938 63.773438 55.796875 64.480469 55.019531 65.039062 C 54.601562 65.34375 54.234375 65.710938 53.851562 66.0625 C 53.230469 66.625 52.632812 67.214844 52 67.757812 C 51.457031 68.222656 50.886719 68.65625 50.289062 69.054688 C 49.488281 69.585938 48.78125 70.234375 48.042969 70.835938 C 47.335938 71.417969 46.703125 72.089844 45.917969 72.574219 C 45.308594 73.210938 44.519531 73.628906 43.886719 74.242188 C 43.511719 74.597656 43.15625 74.972656 42.824219 75.371094 C 42.390625 75.890625 42.011719 76.457031 41.570312 76.972656 C 41.304688 77.289062 41.148438 77.644531 40.996094 78.011719 C 40.847656 78.398438 40.835938 78.792969 40.960938 79.1875 C 41.042969 79.539062 41.257812 79.75 41.605469 79.824219 C 41.921875 79.902344 42.238281 79.921875 42.558594 79.882812 C 43.746094 79.757812 44.925781 79.5625 46.09375 79.300781 C 46.945312 79.101562 47.800781 78.917969 48.671875 78.800781 C 49.582031 78.679688 50.480469 78.488281 51.378906 78.3125 C 51.613281 78.269531 51.839844 78.175781 52.070312 78.117188 C 53.570312 77.722656 55.074219 77.316406 56.582031 76.945312 C 57.46875 76.726562 58.367188 76.519531 59.269531 76.371094 C 60.496094 76.175781 61.683594 75.847656 62.863281 75.484375 C 63.398438 75.328125 63.921875 75.128906 64.421875 74.882812 C 65.910156 74.113281 67.507812 73.5625 68.910156 72.628906 Z M 66.878906 41.027344 C 66.808594 41.023438 66.734375 41.011719 66.667969 40.984375 C 66.578125 40.9375 66.578125 40.863281 66.652344 40.820312 C 66.667969 40.8125 66.71875 40.855469 66.742188 40.882812 C 66.785156 40.941406 66.824219 41.003906 66.867188 41.066406 C 67.035156 41.042969 67.167969 41.101562 67.257812 41.246094 C 67.320312 41.339844 67.378906 41.4375 67.433594 41.539062 C 67.503906 41.542969 67.574219 41.546875 67.644531 41.558594 C 67.679688 41.574219 67.703125 41.597656 67.71875 41.632812 C 67.734375 41.664062 67.734375 41.695312 67.722656 41.726562 C 67.6875 41.78125 67.621094 41.765625 67.5625 41.691406 C 67.519531 41.636719 67.488281 41.570312 67.445312 41.507812 C 67.273438 41.539062 67.152344 41.453125 67.0625 41.324219 C 67 41.230469 66.941406 41.128906 66.882812 41.027344 Z M 63.847656 40.589844 C 63.949219 40.765625 64.085938 40.902344 64.261719 41.007812 C 64.597656 41.21875 64.925781 41.441406 65.253906 41.664062 C 65.277344 41.683594 65.285156 41.730469 65.292969 41.769531 C 65.308594 41.867188 65.253906 41.925781 65.148438 41.902344 C 64.285156 41.730469 63.460938 41.441406 62.675781 41.039062 C 62.289062 40.832031 61.898438 40.617188 61.484375 40.492188 C 60.953125 40.328125 60.433594 40.128906 59.925781 39.894531 C 59.269531 39.605469 58.59375 39.363281 57.964844 39.007812 C 56.855469 38.648438 55.871094 38.027344 54.871094 37.449219 C 53.214844 36.496094 51.574219 35.515625 49.921875 34.550781 C 49.679688 34.417969 49.425781 34.300781 49.167969 34.195312 C 49.09375 34.164062 49.015625 34.15625 48.9375 34.167969 C 48.859375 34.1875 48.792969 34.222656 48.742188 34.28125 C 48.671875 34.351562 48.691406 34.433594 48.78125 34.484375 C 48.953125 34.585938 49.121094 34.6875 49.296875 34.78125 C 50.222656 35.246094 51.125 35.761719 51.996094 36.324219 C 52.089844 36.394531 52.175781 36.476562 52.25 36.566406 C 52.269531 36.585938 52.261719 36.644531 52.25 36.679688 C 52.230469 36.707031 52.207031 36.726562 52.171875 36.734375 C 51.964844 36.761719 51.773438 36.683594 51.597656 36.59375 C 50.921875 36.253906 50.25 35.902344 49.578125 35.554688 C 49.226562 35.371094 48.886719 35.15625 48.519531 35.003906 C 47.675781 34.640625 46.867188 34.207031 46.097656 33.707031 C 45.628906 33.40625 45.144531 33.128906 44.664062 32.847656 C 43.285156 32.042969 41.910156 31.234375 40.484375 30.519531 C 39.59375 30.074219 38.742188 29.550781 37.847656 29.109375 C 36.847656 28.613281 35.824219 28.167969 34.8125 27.699219 C 33.765625 27.210938 32.707031 26.742188 31.671875 26.230469 C 31.101562 25.949219 30.53125 25.667969 29.941406 25.421875 C 28.878906 24.964844 27.863281 24.414062 26.898438 23.773438 C 25.5625 22.90625 24.242188 22.011719 22.992188 21.019531 C 22.957031 21.003906 22.921875 20.988281 22.882812 20.980469 C 22.789062 20.941406 22.710938 20.964844 22.683594 21.050781 C 22.660156 21.121094 22.640625 21.226562 22.675781 21.269531 C 22.960938 21.652344 23.242188 22.035156 23.65625 22.300781 C 24.292969 22.710938 24.878906 23.191406 25.472656 23.664062 C 25.753906 23.882812 26.054688 24.082031 26.367188 24.253906 C 26.855469 24.53125 27.363281 24.761719 27.839844 25.050781 C 29 25.757812 30.261719 26.261719 31.492188 26.824219 C 33.085938 27.558594 34.707031 28.234375 36.273438 29.023438 C 37.871094 29.832031 39.515625 30.554688 41.058594 31.472656 C 42.085938 32.082031 43.167969 32.609375 44.164062 33.273438 C 44.328125 33.382812 44.503906 33.472656 44.679688 33.574219 C 45.199219 33.867188 45.722656 34.15625 46.238281 34.457031 C 46.332031 34.527344 46.410156 34.617188 46.472656 34.71875 C 46.488281 34.742188 46.476562 34.804688 46.460938 34.835938 C 46.441406 34.867188 46.414062 34.882812 46.378906 34.886719 C 45.890625 34.863281 45.460938 34.652344 45.023438 34.457031 C 44.515625 34.230469 44.03125 33.949219 43.476562 33.820312 C 43.324219 33.773438 43.179688 33.710938 43.039062 33.632812 C 42.21875 33.222656 41.410156 32.792969 40.632812 32.304688 C 40.160156 32.007812 39.683594 31.722656 39.199219 31.445312 C 39.148438 31.414062 39.046875 31.449219 38.980469 31.476562 C 38.890625 31.519531 38.871094 31.710938 38.941406 31.789062 C 39.039062 31.914062 39.152344 32.023438 39.28125 32.117188 C 39.996094 32.546875 40.726562 32.957031 41.449219 33.382812 C 41.511719 33.425781 41.566406 33.484375 41.609375 33.550781 C 41.632812 33.582031 41.640625 33.617188 41.636719 33.65625 C 41.628906 33.742188 41.566406 33.792969 41.46875 33.765625 C 40.628906 33.515625 39.773438 33.304688 38.988281 32.910156 C 38.277344 32.550781 37.578125 32.167969 36.878906 31.773438 C 36.046875 31.308594 35.21875 30.824219 34.390625 30.347656 C 34.355469 30.324219 34.316406 30.316406 34.277344 30.324219 C 34.210938 30.351562 34.148438 30.386719 34.09375 30.4375 C 34.074219 30.472656 34.070312 30.511719 34.085938 30.550781 C 34.207031 30.828125 34.476562 30.941406 34.710938 31.082031 C 35.503906 31.542969 36.308594 31.980469 37.105469 32.4375 C 37.347656 32.578125 37.566406 32.746094 37.792969 32.90625 C 37.808594 32.917969 37.800781 32.980469 37.785156 33.011719 C 37.765625 33.039062 37.726562 33.074219 37.699219 33.074219 C 37.019531 33.035156 36.363281 32.890625 35.726562 32.648438 C 35.691406 32.632812 35.652344 32.617188 35.621094 32.597656 C 34.761719 32.089844 33.832031 31.714844 32.960938 31.234375 C 32.125 30.773438 31.34375 30.214844 30.558594 29.675781 C 29.871094 29.203125 29.257812 28.621094 28.558594 28.160156 C 28.332031 27.996094 28.117188 27.8125 27.917969 27.617188 C 27.652344 27.378906 27.402344 27.121094 27.121094 26.898438 C 26.078125 26.082031 25.246094 25.0625 24.367188 24.082031 C 24.125 23.816406 23.894531 23.542969 23.671875 23.261719 C 23.15625 22.601562 22.664062 21.925781 22.136719 21.28125 C 21.332031 20.292969 20.472656 19.34375 19.808594 18.25 C 19.769531 18.183594 19.722656 18.117188 19.667969 18.058594 C 18.914062 17.238281 18.277344 16.3125 17.472656 15.535156 C 17.445312 15.503906 17.425781 15.472656 17.414062 15.433594 C 17.402344 15.394531 17.386719 15.34375 17.402344 15.320312 C 17.445312 15.269531 17.515625 15.1875 17.558594 15.195312 C 18.382812 15.347656 19.203125 15.5 20.019531 15.679688 C 20.722656 15.828125 21.414062 16.027344 22.132812 16.074219 C 22.292969 16.089844 22.449219 16.117188 22.605469 16.15625 C 24.042969 16.496094 25.496094 16.765625 26.910156 17.1875 C 29.125 17.847656 31.402344 18.304688 33.570312 19.121094 C 35.113281 19.527344 36.636719 20.003906 38.15625 20.492188 C 39.179688 20.820312 40.210938 21.144531 41.203125 21.554688 C 42.347656 22.023438 43.46875 22.546875 44.589844 23.0625 C 45.207031 23.34375 45.816406 23.636719 46.414062 23.957031 C 47.367188 24.460938 48.285156 25.023438 49.265625 25.472656 C 49.957031 25.792969 50.558594 26.257812 51.203125 26.652344 C 52.433594 27.394531 53.644531 28.164062 54.742188 29.097656 C 55.746094 29.945312 56.8125 30.71875 57.726562 31.675781 C 58.769531 32.773438 59.835938 33.847656 60.925781 34.898438 C 61.085938 35.074219 61.242188 35.253906 61.386719 35.445312 C 62.144531 36.371094 62.964844 37.238281 63.847656 38.042969 C 64.558594 38.679688 65.25 39.34375 65.941406 40.003906 C 66.074219 40.117188 66.132812 40.257812 66.121094 40.429688 C 65.949219 40.46875 65.816406 40.363281 65.699219 40.277344 C 65.152344 39.878906 64.582031 39.5 64.082031 39.042969 C 63.34375 38.375 62.566406 37.753906 61.816406 37.101562 C 60.820312 36.230469 59.71875 35.515625 58.65625 34.742188 C 58.429688 34.582031 58.191406 34.4375 57.941406 34.308594 C 57.835938 34.257812 57.722656 34.21875 57.605469 34.195312 C 57.566406 34.191406 57.53125 34.199219 57.496094 34.21875 C 57.496094 34.289062 57.484375 34.398438 57.527344 34.425781 C 57.882812 34.679688 58.25 34.921875 58.613281 35.164062 C 59.109375 35.496094 59.609375 35.824219 60.050781 36.226562 C 60.964844 37.058594 61.878906 37.890625 62.804688 38.707031 C 63.398438 39.234375 63.980469 39.785156 64.65625 40.214844 C 64.996094 40.429688 65.320312 40.660156 65.632812 40.910156 C 65.75 41.003906 65.8125 41.164062 65.890625 41.300781 C 65.90625 41.339844 65.902344 41.378906 65.878906 41.414062 C 65.851562 41.441406 65.8125 41.449219 65.773438 41.4375 C 65.265625 41.304688 64.84375 40.996094 64.398438 40.738281 C 64.222656 40.636719 64.042969 40.554688 63.832031 40.625 Z M 82.730469 53.410156 C 82.863281 53.335938 82.996094 53.261719 83.128906 53.195312 C 83.160156 53.179688 83.203125 53.191406 83.242188 53.191406 C 83.210938 53.25 83.195312 53.328125 83.148438 53.363281 C 83.019531 53.457031 82.875 53.488281 82.734375 53.371094 C 82.453125 53.519531 82.191406 53.714844 81.886719 53.804688 C 81.386719 53.957031 80.9375 54.21875 80.46875 54.441406 C 79.964844 54.675781 79.433594 54.863281 78.941406 55.121094 C 78.023438 55.601562 77.121094 56.117188 76.21875 56.625 C 76.050781 56.730469 75.894531 56.847656 75.746094 56.976562 C 75.71875 57 75.71875 57.050781 75.707031 57.089844 C 75.746094 57.101562 75.789062 57.132812 75.820312 57.121094 C 76.378906 56.910156 76.921875 56.671875 77.449219 56.398438 C 78.542969 55.835938 79.597656 55.179688 80.769531 54.761719 C 81.789062 54.195312 82.90625 53.898438 84.023438 53.59375 C 84.371094 53.5 84.726562 53.449219 85.0625 53.320312 C 86.074219 52.941406 87.125 52.71875 88.167969 52.453125 C 88.273438 52.425781 88.320312 52.46875 88.28125 52.59375 C 87.613281 53.082031 86.957031 53.660156 86.210938 54.121094 C 85.601562 54.5 84.988281 54.875 84.378906 55.257812 C 84.109375 55.425781 83.816406 55.570312 83.582031 55.78125 C 83.101562 56.214844 82.542969 56.519531 82.007812 56.863281 C 81.503906 57.183594 80.964844 57.46875 80.511719 57.851562 C 79.992188 58.292969 79.425781 58.660156 78.871094 59.046875 C 78.640625 59.207031 78.429688 59.390625 78.210938 59.558594 C 78.027344 59.710938 77.835938 59.851562 77.636719 59.984375 C 76.679688 60.566406 75.757812 61.195312 74.871094 61.875 C 74.085938 62.484375 73.179688 62.921875 72.414062 63.566406 C 70.203125 64.921875 67.988281 66.273438 65.710938 67.515625 C 65.578125 67.601562 65.4375 67.675781 65.285156 67.730469 C 64.738281 67.875 64.265625 68.179688 63.777344 68.445312 C 63.109375 68.808594 62.460938 69.191406 61.726562 69.414062 C 61.691406 69.429688 61.660156 69.453125 61.636719 69.484375 C 61.574219 69.558594 61.5625 69.640625 61.625 69.695312 C 61.742188 69.804688 61.546875 69.773438 61.703125 69.769531 C 62.152344 69.757812 62.558594 69.597656 62.957031 69.410156 C 63.277344 69.253906 63.585938 69.054688 63.925781 68.949219 C 64.339844 68.804688 64.738281 68.621094 65.117188 68.394531 C 66.089844 67.851562 67.0625 67.300781 68.042969 66.761719 C 68.355469 66.589844 68.699219 66.46875 69.003906 66.285156 C 69.3125 66.101562 69.585938 65.871094 69.878906 65.667969 C 69.972656 65.597656 70.085938 65.546875 70.1875 65.484375 C 71.34375 64.78125 72.503906 64.074219 73.660156 63.367188 C 73.964844 63.179688 74.285156 63.003906 74.554688 62.769531 C 75.039062 62.347656 75.589844 62.023438 76.109375 61.65625 C 76.367188 61.472656 76.652344 61.316406 76.890625 61.105469 C 77.226562 60.828125 77.585938 60.574219 77.964844 60.351562 C 78.402344 60.074219 78.851562 59.804688 79.242188 59.46875 C 79.632812 59.125 80.046875 58.820312 80.492188 58.546875 C 80.734375 58.410156 80.964844 58.253906 81.1875 58.082031 C 81.980469 57.402344 82.894531 56.90625 83.765625 56.351562 C 84.238281 56.054688 84.734375 55.796875 85.226562 55.53125 C 85.277344 55.503906 85.359375 55.535156 85.425781 55.539062 C 85.414062 55.578125 85.410156 55.628906 85.386719 55.652344 C 85.261719 55.753906 85.132812 55.84375 85.007812 55.945312 C 84.5625 56.277344 84.164062 56.660156 83.804688 57.089844 C 83.722656 57.210938 83.734375 57.316406 83.847656 57.414062 C 83.90625 57.453125 84.007812 57.503906 84.054688 57.480469 C 84.238281 57.410156 84.410156 57.3125 84.5625 57.1875 C 84.796875 56.972656 84.976562 56.703125 85.210938 56.488281 C 85.765625 55.976562 86.277344 55.410156 86.976562 55.074219 C 87.007812 55.058594 87.054688 55.070312 87.09375 55.066406 C 87.160156 55.054688 87.171875 55.078125 87.128906 55.140625 C 86.929688 55.433594 86.699219 55.703125 86.4375 55.945312 C 85.960938 56.371094 85.503906 56.8125 85.035156 57.246094 C 83.871094 58.332031 82.703125 59.421875 81.539062 60.507812 C 81.078125 60.945312 80.605469 61.375 80.179688 61.847656 C 79.640625 62.433594 79.132812 63.050781 78.660156 63.695312 C 78.035156 64.570312 77.335938 65.378906 76.558594 66.121094 C 75.78125 66.863281 75.058594 67.671875 74.125 68.234375 C 74.03125 68.308594 73.941406 68.386719 73.859375 68.472656 C 73.265625 68.945312 72.6875 69.429688 72.078125 69.875 C 71.628906 70.207031 71.132812 70.472656 70.671875 70.785156 C 70.179688 71.125 69.71875 71.503906 69.226562 71.835938 C 68.53125 72.308594 67.800781 72.71875 67.039062 73.066406 C 66.128906 73.476562 65.214844 73.867188 64.300781 74.265625 C 63.132812 74.789062 61.921875 75.1875 60.671875 75.460938 C 60.050781 75.59375 59.417969 75.695312 58.804688 75.875 C 58.34375 76.011719 57.878906 76.09375 57.410156 76.183594 C 56.667969 76.328125 55.933594 76.476562 55.199219 76.691406 C 53.902344 77.066406 52.601562 77.464844 51.257812 77.65625 C 51.0625 77.6875 50.871094 77.753906 50.675781 77.800781 C 50.328125 77.882812 49.984375 78 49.632812 78.03125 C 48.117188 78.171875 46.648438 78.535156 45.171875 78.871094 C 44.3125 79.050781 43.441406 79.160156 42.566406 79.195312 C 42.367188 79.195312 42.167969 79.171875 41.972656 79.125 C 41.78125 79.09375 41.640625 78.894531 41.628906 78.695312 C 41.59375 78.234375 41.722656 77.824219 42.011719 77.464844 C 42.359375 77.03125 42.722656 76.605469 43.066406 76.167969 C 43.984375 74.996094 45.105469 74.039062 46.285156 73.15625 C 46.960938 72.65625 47.605469 72.121094 48.226562 71.570312 C 49.222656 70.699219 50.257812 69.886719 51.300781 69.09375 C 52.445312 68.226562 53.546875 67.316406 54.601562 66.339844 C 55.328125 65.664062 56.105469 65.039062 56.863281 64.394531 C 57.535156 64.027344 58.085938 63.503906 58.667969 63.023438 C 59.375 62.441406 60.132812 61.925781 60.929688 61.472656 C 61.171875 61.332031 61.40625 61.175781 61.644531 61.035156 C 62.402344 60.589844 63.15625 60.148438 63.917969 59.707031 C 64.195312 59.550781 64.484375 59.421875 64.789062 59.324219 C 65.507812 59.082031 66.207031 58.800781 66.894531 58.480469 C 67.824219 58.019531 68.734375 57.523438 69.679688 57.097656 C 70.847656 56.570312 72.03125 56.105469 73.265625 55.78125 C 74.308594 55.511719 75.355469 55.273438 76.398438 55.003906 C 77.59375 54.695312 78.800781 54.417969 79.972656 54.03125 C 80.808594 53.753906 81.664062 53.578125 82.503906 53.34375 C 82.566406 53.324219 82.648438 53.382812 82.722656 53.40625 Z M 69.066406 44.726562 C 69.160156 44.878906 69.296875 44.941406 69.476562 44.921875 C 70.402344 44.867188 71.300781 45.03125 72.191406 45.28125 C 72.957031 45.496094 73.730469 45.695312 74.496094 45.910156 C 74.554688 45.925781 74.59375 46.003906 74.644531 46.054688 C 74.585938 46.101562 74.527344 46.1875 74.472656 46.1875 C 73.476562 46.167969 72.476562 46.152344 71.480469 46.101562 C 70.726562 46.0625 69.972656 45.980469 69.21875 45.902344 C 67.988281 45.773438 66.757812 45.667969 65.550781 45.382812 C 65.085938 45.273438 64.613281 45.1875 64.144531 45.09375 C 63.167969 44.894531 62.179688 44.746094 61.1875 44.648438 C 60.953125 44.617188 60.71875 44.566406 60.484375 44.507812 C 59.242188 44.230469 58.011719 43.882812 56.746094 43.699219 C 56.347656 43.644531 55.964844 43.535156 55.597656 43.378906 C 54.855469 43.054688 54.082031 42.871094 53.3125 42.675781 C 51.53125 42.226562 49.753906 41.78125 48.019531 41.175781 C 47.753906 41.082031 47.484375 41.011719 47.214844 40.9375 C 44.875 40.273438 42.53125 39.625 40.195312 38.949219 C 37.816406 38.257812 35.414062 37.695312 32.976562 37.265625 C 32.859375 37.246094 32.742188 37.261719 32.632812 37.300781 C 32.574219 37.324219 32.535156 37.417969 32.507812 37.488281 C 32.496094 37.503906 32.539062 37.5625 32.566406 37.578125 C 33.039062 37.796875 33.550781 37.890625 34.054688 38.003906 C 35.21875 38.269531 36.390625 38.492188 37.535156 38.847656 C 38.449219 39.132812 39.378906 39.359375 40.304688 39.613281 C 41.613281 39.96875 42.925781 40.316406 44.234375 40.671875 C 44.847656 40.839844 45.460938 41.019531 46.070312 41.203125 C 46.300781 41.269531 46.511719 41.386719 46.742188 41.449219 C 48.667969 41.976562 50.59375 42.488281 52.519531 43.007812 C 53.132812 43.175781 53.773438 43.296875 54.355469 43.535156 C 55.46875 44.003906 56.644531 44.234375 57.816406 44.46875 C 58.480469 44.601562 59.148438 44.71875 59.804688 44.890625 C 60.34375 45.023438 60.894531 45.105469 61.449219 45.191406 C 62.667969 45.382812 63.890625 45.542969 65.09375 45.851562 C 65.746094 46.027344 66.414062 46.144531 67.089844 46.207031 C 68.042969 46.277344 68.992188 46.375 69.9375 46.511719 C 71.203125 46.699219 72.480469 46.714844 73.757812 46.71875 C 74.757812 46.726562 75.746094 46.835938 76.734375 46.941406 C 76.773438 46.953125 76.804688 46.972656 76.828125 47.007812 C 76.800781 47.070312 76.773438 47.164062 76.71875 47.1875 C 76.539062 47.269531 76.355469 47.335938 76.164062 47.386719 C 75.542969 47.539062 74.917969 47.675781 74.296875 47.820312 C 73.71875 47.960938 73.140625 48.125 72.550781 48.238281 C 71.769531 48.394531 70.988281 48.527344 70.195312 48.648438 C 68.859375 48.851562 67.523438 49.113281 66.160156 49.039062 C 66.082031 49.03125 66 49.050781 65.921875 49.050781 C 64.6875 49.042969 63.449219 49.171875 62.21875 48.976562 C 62.179688 48.976562 62.140625 48.980469 62.101562 48.992188 C 62.058594 48.992188 62.027344 49.007812 62 49.042969 C 61.976562 49.078125 61.96875 49.117188 61.980469 49.15625 C 61.988281 49.199219 62.011719 49.230469 62.046875 49.253906 C 62.402344 49.460938 62.800781 49.5 63.195312 49.511719 C 64.152344 49.539062 65.109375 49.558594 66.066406 49.542969 C 67.703125 49.511719 69.328125 49.363281 70.945312 49.097656 C 71.929688 48.941406 72.914062 48.796875 73.878906 48.523438 C 74.953125 48.214844 76.046875 48.015625 77.144531 47.800781 C 77.367188 47.753906 77.59375 47.722656 77.820312 47.800781 C 77.796875 47.832031 77.78125 47.886719 77.753906 47.894531 C 76.890625 48.207031 76.03125 48.515625 75.167969 48.824219 C 74.117188 49.195312 73.070312 49.566406 72.015625 49.933594 C 70.851562 50.339844 69.6875 50.75 68.519531 51.148438 C 68.066406 51.300781 67.605469 51.429688 67.136719 51.53125 C 66.242188 51.726562 65.339844 51.886719 64.441406 52.078125 C 63.621094 52.257812 62.796875 52.382812 61.960938 52.453125 C 61.523438 52.484375 61.082031 52.507812 60.648438 52.5625 C 59.734375 52.667969 58.816406 52.648438 57.902344 52.648438 C 57.339844 52.640625 56.789062 52.566406 56.246094 52.421875 C 55.859375 52.324219 55.46875 52.234375 55.074219 52.164062 C 54.363281 52.050781 53.671875 51.863281 53 51.613281 C 51.992188 51.226562 50.976562 50.871094 49.96875 50.496094 C 49.335938 50.253906 48.71875 49.980469 48.113281 49.671875 C 47.617188 49.421875 47.109375 49.1875 46.597656 48.96875 C 45.753906 48.605469 44.917969 48.234375 44.0625 47.898438 C 42.652344 47.339844 41.273438 46.71875 39.882812 46.121094 C 39.476562 45.949219 39.066406 45.789062 38.671875 45.605469 C 37.191406 44.914062 35.683594 44.28125 34.171875 43.664062 C 33.804688 43.515625 33.445312 43.332031 33.070312 43.203125 C 31.941406 42.804688 30.828125 42.378906 29.765625 41.824219 C 29.484375 41.675781 29.1875 41.554688 28.894531 41.429688 C 28.378906 41.214844 27.859375 41.011719 27.347656 40.789062 C 26.621094 40.464844 25.90625 40.109375 25.171875 39.796875 C 23.960938 39.277344 22.730469 38.8125 21.519531 38.300781 C 20.199219 37.746094 18.84375 37.265625 17.644531 36.457031 C 17.578125 36.414062 17.503906 36.386719 17.433594 36.347656 C 15.929688 35.507812 14.554688 34.488281 13.230469 33.390625 C 13.046875 33.238281 12.875 33.074219 12.710938 32.898438 C 11.957031 32.074219 11.195312 31.257812 10.457031 30.421875 C 9.996094 29.917969 9.652344 29.339844 9.429688 28.6875 C 9.386719 28.554688 9.566406 28.351562 9.707031 28.378906 C 9.902344 28.410156 10.097656 28.457031 10.285156 28.519531 C 10.65625 28.664062 11.015625 28.839844 11.378906 29 C 12.183594 29.347656 12.988281 29.699219 13.796875 30.039062 C 14.011719 30.144531 14.242188 30.214844 14.476562 30.253906 C 14.878906 30.289062 15.253906 30.425781 15.636719 30.53125 C 16.480469 30.761719 17.332031 30.976562 18.164062 31.25 C 18.394531 31.316406 18.628906 31.363281 18.867188 31.398438 C 19.886719 31.578125 20.914062 31.726562 21.925781 31.9375 C 22.828125 32.109375 23.734375 32.234375 24.648438 32.308594 C 27.347656 32.570312 30.058594 32.652344 32.753906 32.957031 C 33.785156 33.074219 34.8125 33.195312 35.832031 33.390625 C 36.929688 33.597656 38.023438 33.808594 39.105469 34.089844 C 40.570312 34.472656 42.042969 34.832031 43.515625 35.195312 C 44.097656 35.335938 44.679688 35.472656 45.261719 35.605469 C 45.691406 35.699219 46.132812 35.742188 46.550781 35.859375 C 47.777344 36.210938 48.996094 36.589844 50.21875 36.960938 C 50.40625 37.019531 50.582031 37.117188 50.769531 37.1875 C 51.996094 37.667969 53.214844 38.160156 54.445312 38.621094 C 56.015625 39.207031 57.609375 39.71875 59.121094 40.445312 C 59.226562 40.496094 59.34375 40.53125 59.457031 40.570312 C 60.242188 40.859375 61.042969 41.117188 61.8125 41.441406 C 62.730469 41.832031 63.644531 42.214844 64.59375 42.523438 C 66.1875 43.042969 67.734375 43.6875 69.316406 44.222656 C 69.355469 44.242188 69.386719 44.261719 69.417969 44.285156 C 69.5 44.339844 69.519531 44.417969 69.441406 44.484375 C 69.324219 44.589844 69.1875 44.671875 69.054688 44.761719 Z M 10.589844 5.828125 C 10.550781 5.898438 10.5 5.964844 10.445312 6.019531 C 10.207031 6.191406 10.183594 6.410156 10.300781 6.648438 C 10.441406 6.9375 10.59375 7.214844 10.765625 7.484375 C 11.21875 8.183594 11.699219 8.859375 12.203125 9.527344 C 12.761719 10.261719 13.394531 10.910156 14.03125 11.5625 C 14.132812 11.6875 14.253906 11.789062 14.394531 11.871094 C 14.84375 12.082031 15.109375 12.492188 15.476562 12.792969 C 15.523438 12.832031 15.511719 12.9375 15.527344 13.007812 C 15.488281 13.019531 15.449219 13.019531 15.410156 13.019531 C 14.984375 12.894531 14.5625 12.730469 14.265625 12.40625 C 13.71875 11.824219 13.054688 11.371094 12.597656 10.707031 C 12.542969 10.644531 12.480469 10.605469 12.398438 10.585938 C 12.324219 10.578125 12.253906 10.589844 12.1875 10.621094 C 12.171875 10.625 12.167969 10.699219 12.175781 10.734375 C 12.253906 11.015625 12.449219 11.21875 12.644531 11.414062 C 12.871094 11.636719 13.105469 11.855469 13.234375 12.152344 C 13.25 12.21875 13.242188 12.28125 13.210938 12.34375 C 13.175781 12.363281 13.136719 12.363281 13.101562 12.347656 C 12.5 11.960938 11.878906 11.601562 11.304688 11.171875 C 10.796875 10.785156 10.320312 10.367188 9.871094 9.914062 C 9.144531 9.195312 8.644531 8.367188 8.660156 7.285156 C 8.671875 6.605469 8.617188 5.933594 8.5 5.261719 C 8.355469 4.433594 8.347656 3.601562 8.261719 2.769531 C 8.25 2.53125 8.253906 2.296875 8.28125 2.0625 C 8.289062 2 8.371094 1.941406 8.429688 1.890625 C 8.46875 1.878906 8.5 1.878906 8.535156 1.902344 C 9.074219 2.277344 9.484375 2.734375 9.613281 3.410156 C 9.652344 3.601562 9.75 3.78125 9.824219 3.964844 C 9.945312 4.261719 10.066406 4.554688 10.179688 4.851562 C 10.300781 5.1875 10.519531 5.480469 10.589844 5.828125 Z M 78.796875 47.546875 C 78.714844 47.59375 78.675781 47.582031 78.703125 47.515625 C 78.710938 47.496094 78.757812 47.496094 78.785156 47.484375 Z M 78.796875 47.546875 " fill-opacity="1" fill-rule="nonzero"/></g></g></g><g clip-path="url(#e57dafbf15)"><g clip-path="url(#2a30b2c646)"><g clip-path="url(#0f50d45734)"><path fill="#f6c55d" d="M 43.210938 43.960938 C 43.289062 44.042969 43.378906 44.113281 43.472656 44.175781 C 44.523438 44.742188 45.570312 45.320312 46.671875 45.78125 C 46.707031 45.796875 46.742188 45.8125 46.78125 45.824219 C 47.632812 46.046875 48.425781 46.421875 49.222656 46.78125 C 49.332031 46.828125 49.445312 46.867188 49.558594 46.898438 C 52.046875 47.613281 54.539062 48.292969 57.066406 48.847656 C 57.296875 48.894531 57.535156 48.929688 57.773438 48.953125 C 58.285156 49.015625 58.800781 49.0625 59.300781 49.203125 C 59.457031 49.234375 59.613281 49.246094 59.773438 49.238281 C 59.90625 49.246094 60 49.1875 60.050781 49.0625 C 60.089844 48.921875 60.039062 48.824219 59.90625 48.773438 C 59.800781 48.722656 59.691406 48.683594 59.578125 48.652344 C 59.1875 48.554688 58.796875 48.480469 58.402344 48.425781 C 57.808594 48.363281 57.222656 48.257812 56.644531 48.101562 C 56.53125 48.0625 56.414062 48.035156 56.296875 48.023438 C 55.496094 47.980469 54.746094 47.683594 53.964844 47.542969 C 53.886719 47.53125 53.808594 47.515625 53.734375 47.496094 C 53.011719 47.277344 52.316406 46.972656 51.566406 46.832031 C 50.820312 46.691406 50.125 46.386719 49.398438 46.179688 C 49.019531 46.070312 48.65625 45.886719 48.289062 45.746094 C 47.105469 45.28125 45.90625 44.851562 44.75 44.320312 C 44.28125 44.105469 43.808594 43.894531 43.335938 43.683594 C 43.296875 43.679688 43.265625 43.695312 43.242188 43.726562 C 43.226562 43.804688 43.214844 43.882812 43.210938 43.960938 Z M 43.210938 43.960938 " fill-opacity="1" fill-rule="nonzero"/></g></g></g><g clip-path="url(#53e1d5af6a)"><g clip-path="url(#6406287c30)"><g clip-path="url(#ee4ab6955f)"><path fill="#f6c55d" d="M 14.589844 32.28125 C 14.609375 32.316406 14.621094 32.367188 14.652344 32.382812 C 14.753906 32.441406 14.859375 32.496094 14.96875 32.542969 C 15.847656 32.914062 16.726562 33.292969 17.609375 33.65625 C 17.902344 33.773438 18.203125 33.878906 18.511719 33.964844 C 19.082031 34.136719 19.644531 34.335938 20.199219 34.558594 C 20.9375 34.851562 21.695312 35.082031 22.472656 35.25 C 23.367188 35.445312 24.257812 35.660156 25.160156 35.824219 C 25.273438 35.832031 25.390625 35.820312 25.503906 35.789062 C 25.527344 35.785156 25.550781 35.730469 25.558594 35.699219 C 25.558594 35.660156 25.550781 35.625 25.53125 35.59375 C 25.515625 35.558594 25.488281 35.53125 25.453125 35.511719 C 25.3125 35.433594 25.164062 35.378906 25.011719 35.339844 C 23.863281 35.160156 22.78125 34.742188 21.660156 34.476562 C 21.464844 34.433594 21.277344 34.375 21.085938 34.308594 C 19.101562 33.601562 17.0625 33.042969 15.148438 32.136719 C 15.007812 32.070312 14.847656 32.015625 14.695312 32.101562 C 14.644531 32.132812 14.625 32.21875 14.589844 32.28125 Z M 14.589844 32.28125 " fill-opacity="1" fill-rule="nonzero"/></g></g></g><g clip-path="url(#cdc119bb53)"><g clip-path="url(#e5e31e193f)"><g clip-path="url(#fbc03504ab)"><path fill="#f6c55d" d="M 30.609375 37.007812 C 30.632812 36.980469 30.648438 36.945312 30.664062 36.910156 C 30.667969 36.875 30.65625 36.84375 30.636719 36.8125 C 30.621094 36.777344 30.59375 36.75 30.554688 36.730469 C 29.832031 36.40625 29.074219 36.195312 28.28125 36.101562 C 28.222656 36.097656 28.148438 36.164062 28.097656 36.214844 C 28.027344 36.289062 28.101562 36.472656 28.214844 36.503906 C 28.941406 36.6875 29.628906 37.015625 30.382812 37.070312 C 30.460938 37.0625 30.535156 37.042969 30.609375 37.007812 Z M 30.609375 37.007812 " fill-opacity="1" fill-rule="nonzero"/></g></g></g><g clip-path="url(#64fc06793b)"><g clip-path="url(#821d557d71)"><g clip-path="url(#50a161e743)"><path fill="#f6c55d" d="M 69.054688 44.761719 C 68.992188 44.730469 68.925781 44.671875 68.863281 44.671875 C 68.796875 44.675781 68.757812 44.75 68.707031 44.792969 C 68.722656 44.8125 68.738281 44.847656 68.757812 44.851562 C 68.796875 44.863281 68.832031 44.859375 68.867188 44.847656 C 68.9375 44.8125 69.003906 44.773438 69.066406 44.726562 Z M 69.054688 44.761719 " fill-opacity="1" fill-rule="nonzero"/></g></g></g><g clip-path="url(#a7beb2ebe9)"><g clip-path="url(#e4fa193cee)"><g clip-path="url(#d16a1c3289)"><path fill="#f6c55d" d="M 46.953125 75.910156 C 46.617188 76.023438 46.277344 76.128906 45.949219 76.257812 C 45.894531 76.277344 45.859375 76.378906 45.84375 76.449219 C 45.828125 76.539062 45.988281 76.695312 46.066406 76.683594 C 46.144531 76.679688 46.222656 76.664062 46.296875 76.640625 C 47.261719 76.183594 48.289062 75.851562 49.199219 75.277344 C 49.265625 75.230469 49.335938 75.195312 49.410156 75.171875 C 50.222656 74.949219 50.941406 74.519531 51.679688 74.144531 C 51.859375 74.054688 52.039062 73.976562 52.230469 73.914062 C 52.761719 73.742188 53.234375 73.453125 53.710938 73.164062 C 53.800781 73.109375 53.808594 73.027344 53.746094 72.980469 C 53.683594 72.9375 53.613281 72.914062 53.535156 72.910156 C 53.457031 72.914062 53.378906 72.933594 53.308594 72.96875 C 52.40625 73.378906 51.507812 73.792969 50.609375 74.207031 C 50.503906 74.265625 50.394531 74.308594 50.28125 74.34375 C 49.757812 74.441406 49.328125 74.726562 48.875 74.972656 C 48.246094 75.308594 47.625 75.664062 46.953125 75.910156 Z M 46.953125 75.910156 " fill-opacity="1" fill-rule="nonzero"/></g></g></g><g clip-path="url(#51687104ab)"><g clip-path="url(#57065150f9)"><g clip-path="url(#a3ca7e287b)"><path fill="#f6c55d" d="M 57.214844 71.1875 C 57.097656 71.285156 57.003906 71.359375 56.921875 71.4375 C 56.894531 71.464844 56.882812 71.496094 56.886719 71.535156 C 56.914062 71.628906 56.980469 71.683594 57.054688 71.65625 C 58.015625 71.296875 58.96875 70.933594 59.925781 70.570312 C 59.964844 70.558594 59.996094 70.53125 60.015625 70.492188 C 60.050781 70.425781 60.066406 70.355469 60.058594 70.28125 C 60.027344 70.207031 59.976562 70.15625 59.90625 70.128906 C 59.832031 70.09375 59.757812 70.089844 59.679688 70.109375 C 58.84375 70.472656 58.015625 70.835938 57.214844 71.1875 Z M 57.214844 71.1875 " fill-opacity="1" fill-rule="nonzero"/></g></g></g><g clip-path="url(#669658eb50)"><g clip-path="url(#6113024e91)"><g clip-path="url(#4facf86fa3)"><path fill="#f6c55d" d="M 62.601562 39.933594 C 62.28125 39.554688 61.914062 39.269531 61.382812 39.296875 L 61.394531 39.253906 C 61.609375 39.523438 61.898438 39.691406 62.195312 39.855469 C 62.328125 39.933594 62.46875 39.945312 62.617188 39.894531 Z M 62.601562 39.933594 " fill-opacity="1" fill-rule="nonzero"/></g></g></g><g clip-path="url(#af64812ff6)"><g clip-path="url(#207035b3a6)"><g clip-path="url(#b17dd70182)"><path fill="#f6c55d" d="M 63.832031 40.625 C 63.65625 40.328125 63.425781 40.144531 63.054688 40.253906 L 63.070312 40.214844 C 63.261719 40.476562 63.503906 40.636719 63.84375 40.589844 Z M 63.832031 40.625 " fill-opacity="1" fill-rule="nonzero"/></g></g></g><g clip-path="url(#d0d5a21343)"><g clip-path="url(#0008647440)"><g clip-path="url(#68f6bfad10)"><path fill="#f6c55d" d="M 60.929688 38.96875 C 60.816406 38.8125 60.667969 38.707031 60.484375 38.648438 C 60.449219 38.636719 60.386719 38.621094 60.378906 38.636719 C 60.351562 38.667969 60.34375 38.703125 60.355469 38.742188 C 60.363281 38.78125 60.386719 38.8125 60.425781 38.828125 C 60.585938 38.929688 60.75 39.015625 60.941406 38.933594 Z M 60.929688 38.96875 " fill-opacity="1" fill-rule="nonzero"/></g></g></g><g clip-path="url(#30a35d3f5a)"><g clip-path="url(#401d40c3a8)"><g clip-path="url(#7811a6a741)"><path fill="#f6c55d" d="M 60.941406 38.929688 C 61.035156 39.117188 61.167969 39.253906 61.394531 39.253906 L 61.378906 39.296875 C 61.28125 39.117188 61.152344 38.972656 60.929688 38.96875 Z M 60.941406 38.929688 " fill-opacity="1" fill-rule="nonzero"/></g></g></g><g clip-path="url(#a47cdf2f6d)"><g clip-path="url(#ef7f04d8fd)"><g clip-path="url(#89a2bc4f47)"><path fill="#f6c55d" d="M 62.617188 39.894531 C 62.714844 40.074219 62.824219 40.238281 63.070312 40.214844 L 63.054688 40.253906 C 62.964844 40.058594 62.84375 39.914062 62.601562 39.933594 Z M 62.617188 39.894531 " fill-opacity="1" fill-rule="nonzero"/></g></g></g></g></g></g></g><g transform="matrix(1, 0, 0, 1, 8, 114)"><g clip-path="url(#0986c14783)"><g fill="#444b3f" fill-opacity="1"><g transform="translate(3.938289, 80.992411)"><g><path d="M -1.796875 -1.34375 L 5.390625 -4.03125 L 30.0625 -63.71875 L 32.75 -63.71875 L 58.328125 -2.6875 L 62.8125 -1.34375 L 62.8125 0 L 52.046875 0 C 48.929688 0 46.382812 -0.703125 44.40625 -2.109375 C 42.4375 -3.515625 40.972656 -5.351562 40.015625 -7.625 L 35.4375 -18.390625 L 14 -18.390625 L 8.078125 -4.03125 L 14.8125 -1.34375 L 14.8125 0 L -1.796875 0 Z M 14.890625 -20.640625 L 34.546875 -20.640625 L 24.671875 -44.234375 Z M 14.890625 -20.640625 "/></g></g></g><g fill="#444b3f" fill-opacity="1"><g transform="translate(64.952631, 80.992411)"><g><path d="M 12.5625 -51.59375 L 12.5625 -4.03125 L 19.734375 -1.34375 L 19.734375 0 L 2.6875 0 L 2.6875 -1.34375 L 9.875 -4.03125 L 9.875 -60.125 L 4.484375 -61.46875 L 4.484375 -62.8125 L 15.703125 -62.8125 C 18.816406 -62.8125 21.285156 -62.164062 23.109375 -60.875 C 24.929688 -59.59375 26.5 -57.695312 27.8125 -55.1875 L 47.375 -17.765625 L 62.359375 -55.1875 C 63.378906 -57.820312 64.753906 -59.75 66.484375 -60.96875 C 68.222656 -62.195312 70.890625 -62.8125 74.484375 -62.8125 L 83.90625 -62.8125 L 83.90625 -61.46875 L 78.515625 -60.125 L 78.515625 -2.6875 L 83.90625 -1.34375 L 83.90625 0 L 58.328125 0 L 58.328125 -1.34375 L 63.71875 -2.6875 L 63.71875 -51.59375 L 42.625 0.890625 L 39.9375 0.890625 Z M 12.5625 -51.59375 "/></g></g></g><g fill="#444b3f" fill-opacity="1"><g transform="translate(153.333712, 80.992411)"><g><path d="M -1.796875 -1.34375 L 5.390625 -4.03125 L 30.0625 -63.71875 L 32.75 -63.71875 L 58.328125 -2.6875 L 62.8125 -1.34375 L 62.8125 0 L 52.046875 0 C 48.929688 0 46.382812 -0.703125 44.40625 -2.109375 C 42.4375 -3.515625 40.972656 -5.351562 40.015625 -7.625 L 35.4375 -18.390625 L 14 -18.390625 L 8.078125 -4.03125 L 14.8125 -1.34375 L 14.8125 0 L -1.796875 0 Z M 14.890625 -20.640625 L 34.546875 -20.640625 L 24.671875 -44.234375 Z M 14.890625 -20.640625 "/></g></g></g><g fill="#444b3f" fill-opacity="1"><g transform="translate(214.348053, 80.992411)"><g><path d="M 12.5625 -47.5625 L 12.5625 -4.03125 L 19.734375 -1.34375 L 19.734375 0 L 2.6875 0 L 2.6875 -1.34375 L 9.875 -4.03125 L 9.875 -59.671875 L 3.59375 -61.46875 L 3.59375 -62.8125 L 13.015625 -62.8125 C 16.179688 -62.8125 18.660156 -62.242188 20.453125 -61.109375 C 22.253906 -59.972656 23.960938 -58.445312 25.578125 -56.53125 L 54.296875 -22.875 L 54.296875 -58.78125 L 47.109375 -61.46875 L 47.109375 -62.8125 L 64.15625 -62.8125 L 64.15625 -61.46875 L 56.984375 -58.78125 L 56.984375 1.34375 L 54.296875 1.34375 Z M 12.5625 -47.5625 "/></g></g></g><g fill="#444b3f" fill-opacity="1"><g transform="translate(280.746023, 80.992411)"><g><path d="M -1.796875 -1.34375 L 5.390625 -4.03125 L 30.0625 -63.71875 L 32.75 -63.71875 L 58.328125 -2.6875 L 62.8125 -1.34375 L 62.8125 0 L 52.046875 0 C 48.929688 0 46.382812 -0.703125 44.40625 -2.109375 C 42.4375 -3.515625 40.972656 -5.351562 40.015625 -7.625 L 35.4375 -18.390625 L 14 -18.390625 L 8.078125 -4.03125 L 14.8125 -1.34375 L 14.8125 0 L -1.796875 0 Z M 14.890625 -20.640625 L 34.546875 -20.640625 L 24.671875 -44.234375 Z M 14.890625 -20.640625 "/></g></g></g></g></g><g transform="matrix(1, 0, 0, 1, 154, 196)"><g clip-path="url(#32f6b5c0c2)"><g fill="#f6c55d" fill-opacity="1"><g transform="translate(1.027513, 35.775783)"><g><path d="M 20.234375 -18.53125 C 20.234375 -16.113281 19.34375 -14.28125 17.5625 -13.03125 C 15.789062 -11.78125 13.378906 -11.15625 10.328125 -11.15625 L 7.078125 -11.15625 L 7.078125 0 L 3.40625 0 L 3.40625 -25.046875 L 11.53125 -25.046875 C 14.082031 -25.046875 16.171875 -24.460938 17.796875 -23.296875 C 19.421875 -22.140625 20.234375 -20.550781 20.234375 -18.53125 Z M 7.078125 -12.25 L 10.4375 -12.25 C 11.625 -12.25 12.640625 -12.476562 13.484375 -12.9375 C 14.328125 -13.394531 14.941406 -13.972656 15.328125 -14.671875 C 16.003906 -15.929688 16.34375 -17.15625 16.34375 -18.34375 C 16.34375 -18.925781 16.191406 -19.617188 15.890625 -20.421875 C 15.285156 -22.085938 14.035156 -23.175781 12.140625 -23.6875 C 10.328125 -23.6875 8.640625 -23.46875 7.078125 -23.03125 Z M 7.078125 -12.25 "/></g></g></g><g fill="#f6c55d" fill-opacity="1"><g transform="translate(21.677947, 35.775783)"><g><path d="M 0.375 0 L 11.609375 -25.640625 L 12.1875 -25.640625 L 23.421875 0 L 19.296875 0 L 16.453125 -6.8125 L 5.21875 -6.8125 L 2.421875 0 Z M 5.78125 -8.25 L 15.84375 -8.25 L 10.859375 -20.5 Z M 5.78125 -8.25 "/></g></g></g><g fill="#f6c55d" fill-opacity="1"><g transform="translate(45.467555, 35.775783)"><g><path d="M 11.953125 0 L 8.28125 0 L 8.28125 -23.21875 C 7.425781 -23.425781 6.570312 -23.53125 5.71875 -23.53125 L 0.609375 -22.359375 L 0.375 -25.046875 L 19.859375 -25.046875 L 19.671875 -22.359375 L 14.53125 -23.53125 C 13.664062 -23.53125 12.804688 -23.425781 11.953125 -23.21875 Z M 11.953125 0 "/></g></g></g><g fill="#f6c55d" fill-opacity="1"><g transform="translate(65.701955, 35.775783)"><g><path d="M 7.109375 -11.953125 L 7.109375 0 L 3.40625 0 L 3.40625 -25.046875 L 11.578125 -25.046875 C 14.117188 -25.046875 16.203125 -24.476562 17.828125 -23.34375 C 19.460938 -22.207031 20.28125 -20.710938 20.28125 -18.859375 C 20.28125 -17.003906 19.628906 -15.539062 18.328125 -14.46875 C 17.023438 -13.394531 15.265625 -12.65625 13.046875 -12.25 L 23.1875 0 L 18.796875 0.53125 L 10.03125 -11.953125 Z M 7.109375 -13.09375 L 9.53125 -13.09375 C 14.070312 -13.09375 16.34375 -14.878906 16.34375 -18.453125 C 16.34375 -19.066406 16.191406 -19.75 15.890625 -20.5 C 15.304688 -22.09375 14.070312 -23.140625 12.1875 -23.640625 C 10.46875 -23.640625 8.773438 -23.425781 7.109375 -23 Z M 7.109375 -13.09375 "/></g></g></g><g fill="#f6c55d" fill-opacity="1"><g transform="translate(89.831958, 35.775783)"><g><path d="M 6.890625 -25.046875 L 6.890625 0 L 3.40625 0 L 3.40625 -25.046875 Z M 6.890625 -25.046875 "/></g></g></g><g fill="#f6c55d" fill-opacity="1"><g transform="translate(100.119368, 35.775783)"><g><path d="M 16.765625 -5.9375 L 25.125 -25.046875 L 28.96875 -25.046875 L 30.375 0 L 26.515625 0 L 25.5 -21.53125 L 25.34375 -21.53125 L 15.8125 0 L 15.28125 0 L 5.9375 -20.65625 L 5.78125 -20.65625 L 4.765625 0 L 3.109375 0 L 4.5 -25.046875 L 8.015625 -25.046875 Z M 16.765625 -5.9375 "/></g></g></g><g fill="#f6c55d" fill-opacity="1"><g transform="translate(133.74251, 35.775783)"><g><path d="M 14.796875 -25.5 C 18.066406 -25.5 20.773438 -24.421875 22.921875 -22.265625 C 25.066406 -20.109375 26.140625 -17.113281 26.140625 -13.28125 C 26.140625 -10.8125 25.707031 -8.648438 24.84375 -6.796875 C 23.988281 -4.941406 22.867188 -3.507812 21.484375 -2.5 C 18.785156 -0.53125 15.804688 0.453125 12.546875 0.453125 C 9.296875 0.453125 6.601562 -0.632812 4.46875 -2.8125 C 2.34375 -5 1.28125 -8.007812 1.28125 -11.84375 C 1.28125 -13.832031 1.5625 -15.628906 2.125 -17.234375 C 2.695312 -18.835938 3.441406 -20.140625 4.359375 -21.140625 C 5.285156 -22.148438 6.351562 -23 7.5625 -23.6875 C 9.78125 -24.894531 12.191406 -25.5 14.796875 -25.5 Z M 7.1875 -4.3125 C 7.84375 -3.195312 8.722656 -2.332031 9.828125 -1.71875 C 10.941406 -1.101562 12.222656 -0.796875 13.671875 -0.796875 C 15.117188 -0.796875 16.410156 -1.160156 17.546875 -1.890625 C 18.679688 -2.617188 19.566406 -3.578125 20.203125 -4.765625 C 21.484375 -7.140625 22.125 -9.6875 22.125 -12.40625 C 22.125 -15.757812 21.457031 -18.457031 20.125 -20.5 C 18.632812 -22.789062 16.175781 -23.9375 12.75 -23.9375 C 10.300781 -23.082031 8.445312 -21.609375 7.1875 -19.515625 C 5.925781 -17.421875 5.296875 -15.050781 5.296875 -12.40625 C 5.296875 -9.175781 5.925781 -6.476562 7.1875 -4.3125 Z M 7.1875 -4.3125 "/></g></g></g><g fill="#f6c55d" fill-opacity="1"><g transform="translate(161.162963, 35.775783)"><g><path d="M 6.890625 -25.046875 L 6.890625 0 L 3.40625 0 L 3.40625 -25.046875 Z M 6.890625 -25.046875 "/></g></g></g><g fill="#f6c55d" fill-opacity="1"><g transform="translate(171.450373, 35.775783)"><g><path d="M 22.4375 0.421875 L 21.78125 0.421875 L 5.21875 -20.3125 L 5.0625 -20.3125 L 5.0625 0 L 3.40625 0 L 3.40625 -25.046875 L 6.203125 -25.046875 L 20.609375 -6.84375 L 20.765625 -6.84375 L 20.765625 -25.046875 L 22.4375 -25.046875 Z M 22.4375 0.421875 "/></g></g></g><g fill="#f6c55d" fill-opacity="1"><g transform="translate(197.28233, 35.775783)"><g><path d="M 3.40625 0 L 3.40625 -25.046875 L 18.578125 -25.046875 L 18.203125 -22.5 L 11.15625 -23.6875 C 9.925781 -23.6875 8.566406 -23.46875 7.078125 -23.03125 L 7.078125 -13.84375 L 15.46875 -13.84375 L 15.46875 -12.40625 L 7.078125 -12.40625 L 7.078125 -1.359375 L 18.796875 -2.53125 L 18.421875 0 Z M 3.40625 0 "/></g></g></g></g></g></svg>