<svg xmlns="http://www.w3.org/2000/svg" xmlns:xlink="http://www.w3.org/1999/xlink" width="500" zoomAndPan="magnify" viewBox="0 0 375 374.999991" height="500" preserveAspectRatio="xMidYMid meet" version="1.0"><defs><g/><clipPath id="a8572eae6b"><path d="M 120 181 L 180 181 L 180 225 L 120 225 Z M 120 181 " clip-rule="nonzero"/></clipPath><clipPath id="e889227869"><path d="M 120.472656 219.25 L 123.925781 181.910156 L 179.9375 187.089844 L 176.484375 224.429688 Z M 120.472656 219.25 " clip-rule="nonzero"/></clipPath><clipPath id="bf31a08711"><path d="M 3 1 L 58 1 L 58 41 L 3 41 Z M 3 1 " clip-rule="nonzero"/></clipPath><clipPath id="ab3d3c72cf"><path d="M 0.472656 38.25 L 3.925781 0.910156 L 59.9375 6.089844 L 56.484375 43.429688 Z M 0.472656 38.25 " clip-rule="nonzero"/></clipPath><clipPath id="a41bd7bdb8"><path d="M 3.90625 1.140625 L 0.449219 38.484375 L 56.460938 43.664062 L 59.914062 6.324219 Z M 3.90625 1.140625 " clip-rule="nonzero"/></clipPath><clipPath id="4f5d5dcdc1"><path d="M 21 22 L 30 22 L 30 26 L 21 26 Z M 21 22 " clip-rule="nonzero"/></clipPath><clipPath id="2a78fcd40c"><path d="M 0.472656 38.25 L 3.925781 0.910156 L 59.9375 6.089844 L 56.484375 43.429688 Z M 0.472656 38.25 " clip-rule="nonzero"/></clipPath><clipPath id="a22888a079"><path d="M 3.90625 1.140625 L 0.449219 38.484375 L 56.460938 43.664062 L 59.914062 6.324219 Z M 3.90625 1.140625 " clip-rule="nonzero"/></clipPath><clipPath id="10807651ad"><path d="M 7 16 L 13 16 L 13 19 L 7 19 Z M 7 16 " clip-rule="nonzero"/></clipPath><clipPath id="1e478b8b67"><path d="M 0.472656 38.25 L 3.925781 0.910156 L 59.9375 6.089844 L 56.484375 43.429688 Z M 0.472656 38.25 " clip-rule="nonzero"/></clipPath><clipPath id="d6b8b4bb23"><path d="M 3.90625 1.140625 L 0.449219 38.484375 L 56.460938 43.664062 L 59.914062 6.324219 Z M 3.90625 1.140625 " clip-rule="nonzero"/></clipPath><clipPath id="94ead91148"><path d="M 14 18 L 16 18 L 16 20 L 14 20 Z M 14 18 " clip-rule="nonzero"/></clipPath><clipPath id="3109398f2c"><path d="M 0.472656 38.25 L 3.925781 0.910156 L 59.9375 6.089844 L 56.484375 43.429688 Z M 0.472656 38.25 " clip-rule="nonzero"/></clipPath><clipPath id="ce3a51554a"><path d="M 3.90625 1.140625 L 0.449219 38.484375 L 56.460938 43.664062 L 59.914062 6.324219 Z M 3.90625 1.140625 " clip-rule="nonzero"/></clipPath><clipPath id="81e8588404"><path d="M 33 22 L 35 22 L 35 23 L 33 23 Z M 33 22 " clip-rule="nonzero"/></clipPath><clipPath id="894e9b562e"><path d="M 0.472656 38.25 L 3.925781 0.910156 L 59.9375 6.089844 L 56.484375 43.429688 Z M 0.472656 38.25 " clip-rule="nonzero"/></clipPath><clipPath id="234d69f3d5"><path d="M 3.90625 1.140625 L 0.449219 38.484375 L 56.460938 43.664062 L 59.914062 6.324219 Z M 3.90625 1.140625 " clip-rule="nonzero"/></clipPath><clipPath id="8d2224a602"><path d="M 22 36 L 27 36 L 27 39 L 22 39 Z M 22 36 " clip-rule="nonzero"/></clipPath><clipPath id="c1378e8192"><path d="M 0.472656 38.25 L 3.925781 0.910156 L 59.9375 6.089844 L 56.484375 43.429688 Z M 0.472656 38.25 " clip-rule="nonzero"/></clipPath><clipPath id="d5254bf8df"><path d="M 3.90625 1.140625 L 0.449219 38.484375 L 56.460938 43.664062 L 59.914062 6.324219 Z M 3.90625 1.140625 " clip-rule="nonzero"/></clipPath><clipPath id="8795ec787c"><path d="M 28 35 L 30 35 L 30 37 L 28 37 Z M 28 35 " clip-rule="nonzero"/></clipPath><clipPath id="dd14137e16"><path d="M 0.472656 38.25 L 3.925781 0.910156 L 59.9375 6.089844 L 56.484375 43.429688 Z M 0.472656 38.25 " clip-rule="nonzero"/></clipPath><clipPath id="7ff2b2289b"><path d="M 3.90625 1.140625 L 0.449219 38.484375 L 56.460938 43.664062 L 59.914062 6.324219 Z M 3.90625 1.140625 " clip-rule="nonzero"/></clipPath><clipPath id="ba37fe6150"><path d="M 30 20 L 31 20 L 31 21 L 30 21 Z M 30 20 " clip-rule="nonzero"/></clipPath><clipPath id="ee44a18359"><path d="M 0.472656 38.25 L 3.925781 0.910156 L 59.9375 6.089844 L 56.484375 43.429688 Z M 0.472656 38.25 " clip-rule="nonzero"/></clipPath><clipPath id="b29229ad4f"><path d="M 3.90625 1.140625 L 0.449219 38.484375 L 56.460938 43.664062 L 59.914062 6.324219 Z M 3.90625 1.140625 " clip-rule="nonzero"/></clipPath><clipPath id="8d8350d992"><path d="M 31 20 L 32 20 L 32 21 L 31 21 Z M 31 20 " clip-rule="nonzero"/></clipPath><clipPath id="d56dd81df1"><path d="M 0.472656 38.25 L 3.925781 0.910156 L 59.9375 6.089844 L 56.484375 43.429688 Z M 0.472656 38.25 " clip-rule="nonzero"/></clipPath><clipPath id="6f7a77bd46"><path d="M 3.90625 1.140625 L 0.449219 38.484375 L 56.460938 43.664062 L 59.914062 6.324219 Z M 3.90625 1.140625 " clip-rule="nonzero"/></clipPath><clipPath id="f2e7919b79"><path d="M 29 19 L 31 19 L 31 21 L 29 21 Z M 29 19 " clip-rule="nonzero"/></clipPath><clipPath id="1c52a772d4"><path d="M 0.472656 38.25 L 3.925781 0.910156 L 59.9375 6.089844 L 56.484375 43.429688 Z M 0.472656 38.25 " clip-rule="nonzero"/></clipPath><clipPath id="57c481270a"><path d="M 3.90625 1.140625 L 0.449219 38.484375 L 56.460938 43.664062 L 59.914062 6.324219 Z M 3.90625 1.140625 " clip-rule="nonzero"/></clipPath><clipPath id="7ab9bf25de"><path d="M 30 19 L 31 19 L 31 21 L 30 21 Z M 30 19 " clip-rule="nonzero"/></clipPath><clipPath id="f02ebc94ec"><path d="M 0.472656 38.25 L 3.925781 0.910156 L 59.9375 6.089844 L 56.484375 43.429688 Z M 0.472656 38.25 " clip-rule="nonzero"/></clipPath><clipPath id="48804f4f0b"><path d="M 3.90625 1.140625 L 0.449219 38.484375 L 56.460938 43.664062 L 59.914062 6.324219 Z M 3.90625 1.140625 " clip-rule="nonzero"/></clipPath><clipPath id="a117b4b04e"><path d="M 30 20 L 32 20 L 32 21 L 30 21 Z M 30 20 " clip-rule="nonzero"/></clipPath><clipPath id="c89bf474ac"><path d="M 0.472656 38.25 L 3.925781 0.910156 L 59.9375 6.089844 L 56.484375 43.429688 Z M 0.472656 38.25 " clip-rule="nonzero"/></clipPath><clipPath id="2f7ed9b22a"><path d="M 3.90625 1.140625 L 0.449219 38.484375 L 56.460938 43.664062 L 59.914062 6.324219 Z M 3.90625 1.140625 " clip-rule="nonzero"/></clipPath><clipPath id="422956aaeb"><rect x="0" width="60" y="0" height="44"/></clipPath></defs><rect x="-37.5" width="450" fill="#ffffff" y="-37.499999" height="449.999989" fill-opacity="1"/><rect x="-37.5" width="450" fill="#444b3f" y="-37.499999" height="449.999989" fill-opacity="1"/><g clip-path="url(#a8572eae6b)"><g clip-path="url(#e889227869)"><g transform="matrix(1, 0, 0, 1, 120, 181)"><g clip-path="url(#422956aaeb)"><g clip-path="url(#bf31a08711)"><g clip-path="url(#ab3d3c72cf)"><g clip-path="url(#a41bd7bdb8)"><path fill="#f6c55d" d="M 34.082031 36.554688 C 34.542969 36.261719 35.03125 36 35.445312 35.636719 C 35.539062 35.5625 35.632812 35.492188 35.734375 35.429688 C 35.957031 35.277344 36.195312 35.136719 36.390625 34.9375 C 36.464844 34.871094 36.542969 34.816406 36.628906 34.765625 C 37.019531 34.503906 37.382812 34.207031 37.714844 33.871094 C 37.894531 33.691406 38.082031 33.519531 38.265625 33.339844 C 38.632812 32.984375 38.925781 32.566406 39.253906 32.179688 C 39.507812 31.878906 39.753906 31.578125 40.007812 31.277344 C 40.066406 31.199219 40.132812 31.125 40.203125 31.058594 C 40.554688 30.773438 40.855469 30.4375 41.179688 30.125 C 41.40625 29.90625 41.652344 29.710938 41.886719 29.503906 C 42.003906 29.398438 42.117188 29.289062 42.230469 29.1875 C 42.4375 29.003906 42.621094 28.800781 42.835938 28.628906 C 43.035156 28.46875 43.203125 28.277344 43.386719 28.097656 C 43.664062 27.824219 43.9375 27.539062 44.242188 27.292969 C 44.34375 27.203125 44.445312 27.109375 44.539062 27.007812 C 45.21875 26.324219 45.957031 25.71875 46.8125 25.257812 C 46.984375 25.164062 47.148438 25.058594 47.3125 24.949219 C 47.792969 24.632812 48.316406 24.417969 48.878906 24.304688 C 49.015625 24.273438 49.148438 24.238281 49.28125 24.207031 C 49.492188 24.160156 49.703125 24.132812 49.921875 24.128906 C 50.351562 24.128906 50.78125 24.113281 51.214844 24.097656 C 51.722656 24.078125 52.230469 24.027344 52.730469 23.9375 C 52.90625 23.90625 53.082031 23.886719 53.257812 23.875 C 53.589844 23.859375 53.921875 23.816406 54.25 23.75 C 55.054688 23.589844 55.863281 23.425781 56.667969 23.246094 C 56.972656 23.171875 57.269531 23.082031 57.566406 22.976562 C 57.675781 22.9375 57.78125 22.878906 57.875 22.8125 C 57.921875 22.773438 57.957031 22.726562 57.980469 22.675781 C 58.027344 22.59375 57.972656 22.460938 57.886719 22.429688 C 57.773438 22.382812 57.660156 22.378906 57.542969 22.414062 C 56.839844 22.667969 56.105469 22.792969 55.375 22.9375 C 54.816406 23.046875 54.261719 23.167969 53.699219 23.246094 C 53.273438 23.308594 52.84375 23.390625 52.414062 23.40625 C 52.257812 23.414062 52.101562 23.449219 51.945312 23.464844 C 51.691406 23.488281 51.4375 23.515625 51.183594 23.53125 C 50.65625 23.566406 50.128906 23.589844 49.601562 23.628906 C 48.898438 23.679688 48.195312 23.765625 47.492188 23.785156 C 46.75 23.808594 46.007812 23.902344 45.261719 23.851562 C 45.085938 23.839844 44.910156 23.867188 44.734375 23.878906 C 44.398438 23.898438 44.066406 23.925781 43.734375 23.867188 C 43.675781 23.863281 43.617188 23.863281 43.558594 23.867188 C 42.8125 23.863281 42.070312 23.816406 41.332031 23.722656 C 41.292969 23.714844 41.253906 23.710938 41.214844 23.710938 C 40.859375 23.742188 40.515625 23.671875 40.164062 23.621094 C 39.484375 23.519531 38.820312 23.367188 38.179688 23.109375 C 37.722656 22.925781 37.261719 22.761719 36.789062 22.625 C 36.46875 22.535156 36.160156 22.414062 35.859375 22.269531 C 35.332031 22.011719 34.800781 21.753906 34.304688 21.433594 C 33.804688 21.121094 33.34375 20.757812 32.921875 20.34375 C 32.605469 20.027344 32.273438 19.722656 31.9375 19.421875 C 31.570312 19.09375 31.230469 18.742188 30.917969 18.363281 C 30.648438 18.03125 30.355469 17.714844 30.046875 17.417969 C 29.546875 16.949219 29.085938 16.445312 28.59375 15.96875 C 28.535156 15.914062 28.480469 15.859375 28.417969 15.808594 C 27.984375 15.441406 27.554688 15.070312 27.109375 14.714844 C 26.882812 14.527344 26.640625 14.363281 26.382812 14.21875 C 26.144531 14.089844 25.917969 13.929688 25.6875 13.777344 C 25.261719 13.496094 24.835938 13.222656 24.363281 13.019531 C 24.058594 12.882812 23.769531 12.722656 23.488281 12.539062 C 23.238281 12.386719 22.976562 12.25 22.707031 12.125 C 22.085938 11.835938 21.460938 11.554688 20.835938 11.273438 C 20.710938 11.21875 20.582031 11.171875 20.449219 11.128906 C 19.96875 10.964844 19.496094 10.773438 19.003906 10.636719 C 18.71875 10.558594 18.441406 10.464844 18.167969 10.359375 C 17.890625 10.257812 17.609375 10.171875 17.324219 10.101562 C 16.851562 9.976562 16.386719 9.832031 15.917969 9.683594 C 15.285156 9.476562 14.636719 9.3125 13.996094 9.136719 C 13.371094 8.96875 12.742188 8.8125 12.117188 8.644531 C 12 8.621094 11.886719 8.585938 11.777344 8.542969 C 11.546875 8.433594 11.300781 8.371094 11.050781 8.3125 C 11.011719 8.304688 10.972656 8.296875 10.9375 8.285156 C 10.386719 8.082031 9.828125 7.898438 9.269531 7.71875 C 9.058594 7.652344 8.886719 7.519531 8.71875 7.386719 C 8.53125 7.242188 8.34375 7.101562 8.15625 6.957031 C 7.941406 6.792969 7.75 6.59375 7.554688 6.398438 C 7.363281 6.203125 7.175781 6.003906 7.039062 5.765625 C 6.980469 5.660156 6.914062 5.5625 6.835938 5.476562 C 6.519531 5.117188 6.28125 4.71875 6.117188 4.269531 C 6.097656 4.214844 6.070312 4.160156 6.039062 4.109375 C 5.785156 3.691406 5.585938 3.242188 5.40625 2.785156 C 5.34375 2.621094 5.257812 2.46875 5.210938 2.296875 C 5.148438 2.0625 5.03125 1.863281 4.855469 1.695312 C 4.691406 1.53125 4.554688 1.335938 4.332031 1.234375 C 4.1875 1.167969 3.992188 1.234375 3.9375 1.382812 C 3.925781 1.417969 3.914062 1.457031 3.902344 1.496094 C 3.886719 1.550781 3.878906 1.609375 3.871094 1.667969 C 3.863281 1.765625 3.863281 1.863281 3.867188 1.960938 C 3.914062 2.566406 3.960938 3.171875 4.023438 3.777344 C 4.050781 4.03125 4.089844 4.285156 4.070312 4.539062 C 4.046875 4.824219 4.171875 5.070312 4.257812 5.328125 C 4.265625 5.347656 4.273438 5.367188 4.285156 5.382812 C 4.511719 5.625 4.667969 5.929688 4.941406 6.132812 C 5.066406 6.230469 5.179688 6.335938 5.308594 6.425781 C 5.878906 6.808594 6.417969 7.234375 7.007812 7.585938 C 7.171875 7.691406 7.34375 7.78125 7.523438 7.863281 C 7.703125 7.945312 7.863281 8.054688 8.007812 8.191406 C 8.328125 8.480469 8.628906 8.789062 8.90625 9.117188 C 9.304688 9.605469 9.710938 10.082031 10.058594 10.605469 C 10.316406 10.878906 10.523438 11.1875 10.75 11.480469 C 11.050781 11.867188 11.367188 12.238281 11.65625 12.632812 C 11.996094 13.089844 12.382812 13.507812 12.808594 13.882812 C 13.042969 14.089844 13.273438 14.300781 13.507812 14.511719 C 14.019531 14.972656 14.558594 15.390625 15.132812 15.773438 C 15.503906 16.027344 15.867188 16.289062 16.234375 16.550781 C 16.28125 16.578125 16.285156 16.613281 16.25 16.65625 C 16.226562 16.6875 16.195312 16.707031 16.15625 16.710938 C 15.921875 16.699219 15.6875 16.683594 15.453125 16.65625 C 14.964844 16.597656 14.476562 16.578125 13.988281 16.558594 C 13.734375 16.550781 13.476562 16.546875 13.226562 16.5 C 13.070312 16.480469 12.914062 16.472656 12.757812 16.472656 C 12.324219 16.453125 11.898438 16.402344 11.472656 16.320312 C 11.144531 16.261719 10.816406 16.210938 10.484375 16.167969 C 9.9375 16.097656 9.40625 15.96875 8.875 15.824219 C 8.421875 15.695312 7.96875 15.574219 7.511719 15.453125 C 7.113281 15.355469 6.726562 15.214844 6.351562 15.039062 C 5.964844 14.847656 5.5625 14.695312 5.164062 14.535156 C 4.96875 14.457031 4.777344 14.464844 4.589844 14.554688 C 4.460938 14.609375 4.378906 14.765625 4.421875 14.890625 C 4.441406 14.964844 4.46875 15.039062 4.503906 15.109375 C 4.695312 15.472656 4.90625 15.820312 5.191406 16.128906 C 5.375 16.328125 5.542969 16.546875 5.71875 16.753906 C 5.898438 16.960938 6.109375 17.136719 6.304688 17.328125 C 6.996094 18.015625 7.8125 18.511719 8.640625 19 C 9.289062 19.378906 9.964844 19.679688 10.660156 19.953125 C 11.796875 20.394531 12.902344 20.890625 14.011719 21.386719 C 14.820312 21.75 15.636719 22.074219 16.453125 22.410156 C 17.195312 22.71875 17.941406 23.019531 18.664062 23.371094 C 18.960938 23.515625 19.277344 23.632812 19.582031 23.765625 C 20.519531 24.164062 21.460938 24.550781 22.40625 24.933594 C 22.875 25.121094 23.324219 25.367188 23.785156 25.589844 C 24.207031 25.796875 24.632812 25.988281 25.085938 26.128906 C 25.460938 26.242188 25.824219 26.398438 26.191406 26.53125 C 26.914062 26.789062 27.660156 26.949219 28.421875 27.054688 C 28.460938 27.058594 28.5 27.0625 28.539062 27.0625 C 29.105469 27.039062 29.675781 27.023438 30.242188 26.988281 C 30.515625 26.972656 30.785156 26.933594 31.058594 26.898438 C 31.253906 26.871094 31.449219 26.84375 31.640625 26.8125 C 32.042969 26.738281 32.449219 26.664062 32.855469 26.585938 C 33.316406 26.507812 33.769531 26.382812 34.214844 26.222656 C 34.652344 26.058594 35.101562 25.921875 35.546875 25.761719 C 36.285156 25.5 37.019531 25.226562 37.757812 24.972656 C 38.390625 24.753906 39.035156 24.589844 39.679688 24.425781 C 39.925781 24.367188 40.167969 24.265625 40.421875 24.246094 C 40.671875 24.222656 40.925781 24.28125 41.179688 24.289062 C 41.730469 24.3125 42.277344 24.355469 42.824219 24.414062 C 43.742188 24.515625 44.660156 24.496094 45.582031 24.445312 C 45.777344 24.433594 45.972656 24.414062 46.167969 24.410156 C 46.386719 24.402344 46.601562 24.410156 46.816406 24.417969 C 46.84375 24.421875 46.871094 24.457031 46.894531 24.484375 C 46.898438 24.488281 46.882812 24.523438 46.867188 24.535156 C 46.472656 24.832031 46.03125 25.039062 45.578125 25.230469 C 45.289062 25.355469 44.992188 25.445312 44.699219 25.566406 C 43.957031 25.875 43.171875 26.054688 42.402344 26.292969 C 42.03125 26.410156 41.644531 26.484375 41.265625 26.578125 C 40.542969 26.765625 39.828125 26.96875 39.117188 27.191406 C 38.726562 27.316406 38.332031 27.429688 37.925781 27.519531 C 37.355469 27.644531 36.78125 27.785156 36.210938 27.925781 C 35.984375 27.984375 35.757812 28.058594 35.539062 28.136719 C 35.113281 28.289062 34.699219 28.460938 34.289062 28.652344 C 34.238281 28.683594 34.1875 28.707031 34.132812 28.730469 C 33.714844 28.851562 33.347656 29.082031 32.96875 29.289062 C 32.605469 29.488281 32.210938 29.609375 31.828125 29.761719 C 31.699219 29.804688 31.574219 29.859375 31.453125 29.921875 C 30.8125 30.300781 30.160156 30.667969 29.539062 31.074219 C 29.164062 31.320312 28.785156 31.570312 28.457031 31.882812 C 28.429688 31.910156 28.398438 31.9375 28.367188 31.957031 C 27.960938 32.203125 27.636719 32.550781 27.253906 32.824219 C 27.046875 32.972656 26.867188 33.15625 26.679688 33.324219 C 26.375 33.601562 26.082031 33.894531 25.769531 34.160156 C 25.5 34.390625 25.222656 34.601562 24.925781 34.796875 C 24.53125 35.058594 24.1875 35.378906 23.824219 35.675781 C 23.476562 35.960938 23.164062 36.289062 22.777344 36.527344 C 22.476562 36.839844 22.089844 37.046875 21.78125 37.347656 C 21.59375 37.523438 21.421875 37.707031 21.257812 37.902344 C 21.042969 38.160156 20.855469 38.4375 20.640625 38.691406 C 20.511719 38.847656 20.433594 39.019531 20.359375 39.203125 C 20.285156 39.390625 20.28125 39.585938 20.339844 39.78125 C 20.378906 39.953125 20.484375 40.054688 20.660156 40.09375 C 20.8125 40.128906 20.96875 40.140625 21.125 40.121094 C 21.710938 40.058594 22.289062 39.964844 22.863281 39.835938 C 23.285156 39.738281 23.703125 39.648438 24.132812 39.589844 C 24.578125 39.53125 25.019531 39.433594 25.464844 39.351562 C 25.578125 39.328125 25.6875 39.28125 25.800781 39.253906 C 26.542969 39.058594 27.277344 38.859375 28.019531 38.675781 C 28.457031 38.570312 28.898438 38.46875 29.34375 38.394531 C 29.945312 38.300781 30.527344 38.136719 31.109375 37.957031 C 31.375 37.882812 31.628906 37.785156 31.875 37.664062 C 32.609375 37.285156 33.394531 37.011719 34.082031 36.554688 Z M 33.085938 21.019531 C 33.046875 21.015625 33.011719 21.011719 32.980469 20.996094 C 32.933594 20.972656 32.933594 20.9375 32.972656 20.917969 C 32.980469 20.914062 33.003906 20.933594 33.015625 20.945312 C 33.039062 20.976562 33.058594 21.007812 33.078125 21.035156 C 33.160156 21.027344 33.226562 21.054688 33.269531 21.125 C 33.300781 21.171875 33.328125 21.21875 33.355469 21.269531 C 33.390625 21.269531 33.425781 21.273438 33.460938 21.28125 C 33.476562 21.285156 33.488281 21.300781 33.496094 21.316406 C 33.503906 21.332031 33.503906 21.347656 33.5 21.363281 C 33.480469 21.386719 33.449219 21.382812 33.421875 21.34375 C 33.398438 21.316406 33.382812 21.285156 33.363281 21.253906 C 33.277344 21.269531 33.21875 21.226562 33.171875 21.164062 C 33.140625 21.117188 33.113281 21.066406 33.085938 21.019531 Z M 31.59375 20.800781 C 31.644531 20.886719 31.710938 20.957031 31.796875 21.007812 C 31.960938 21.113281 32.125 21.222656 32.285156 21.332031 C 32.296875 21.339844 32.300781 21.363281 32.304688 21.382812 C 32.3125 21.429688 32.285156 21.457031 32.234375 21.449219 C 31.808594 21.363281 31.402344 21.222656 31.019531 21.023438 C 30.828125 20.921875 30.636719 20.816406 30.429688 20.753906 C 30.167969 20.675781 29.914062 20.574219 29.664062 20.460938 C 29.34375 20.316406 29.007812 20.199219 28.703125 20.023438 C 28.15625 19.847656 27.671875 19.542969 27.179688 19.257812 C 26.367188 18.789062 25.558594 18.308594 24.746094 17.835938 C 24.625 17.769531 24.503906 17.710938 24.375 17.660156 C 24.339844 17.644531 24.300781 17.640625 24.261719 17.644531 C 24.222656 17.65625 24.191406 17.671875 24.167969 17.699219 C 24.132812 17.734375 24.144531 17.777344 24.1875 17.800781 C 24.269531 17.851562 24.355469 17.902344 24.441406 17.945312 C 24.894531 18.175781 25.335938 18.429688 25.765625 18.707031 C 25.8125 18.742188 25.855469 18.78125 25.890625 18.824219 C 25.902344 18.835938 25.898438 18.863281 25.890625 18.878906 C 25.882812 18.894531 25.871094 18.902344 25.851562 18.90625 C 25.75 18.921875 25.65625 18.882812 25.570312 18.839844 C 25.238281 18.671875 24.910156 18.5 24.578125 18.328125 C 24.40625 18.238281 24.238281 18.132812 24.058594 18.054688 C 23.644531 17.878906 23.246094 17.664062 22.867188 17.417969 C 22.636719 17.273438 22.398438 17.132812 22.160156 16.996094 C 21.484375 16.601562 20.808594 16.203125 20.105469 15.851562 C 19.667969 15.632812 19.25 15.375 18.8125 15.160156 C 18.320312 14.914062 17.816406 14.695312 17.320312 14.464844 C 16.804688 14.226562 16.285156 13.996094 15.773438 13.742188 C 15.492188 13.605469 15.214844 13.464844 14.921875 13.34375 C 14.398438 13.121094 13.902344 12.851562 13.425781 12.535156 C 12.769531 12.109375 12.121094 11.667969 11.507812 11.183594 C 11.488281 11.171875 11.472656 11.164062 11.453125 11.160156 C 11.40625 11.144531 11.371094 11.152344 11.355469 11.195312 C 11.34375 11.230469 11.332031 11.28125 11.351562 11.304688 C 11.492188 11.492188 11.628906 11.679688 11.832031 11.8125 C 12.144531 12.011719 12.433594 12.25 12.726562 12.480469 C 12.867188 12.589844 13.011719 12.6875 13.167969 12.773438 C 13.40625 12.910156 13.65625 13.023438 13.890625 13.164062 C 14.460938 13.511719 15.082031 13.757812 15.683594 14.035156 C 16.46875 14.394531 17.265625 14.726562 18.035156 15.117188 C 18.824219 15.511719 19.628906 15.871094 20.390625 16.320312 C 20.894531 16.621094 21.425781 16.878906 21.914062 17.203125 C 21.996094 17.257812 22.082031 17.304688 22.167969 17.355469 C 22.425781 17.5 22.683594 17.640625 22.9375 17.789062 C 22.984375 17.824219 23.019531 17.867188 23.050781 17.917969 C 23.058594 17.929688 23.050781 17.957031 23.046875 17.972656 C 23.035156 17.988281 23.023438 17.996094 23.003906 18 C 22.765625 17.988281 22.554688 17.882812 22.339844 17.789062 C 22.089844 17.675781 21.851562 17.539062 21.578125 17.476562 C 21.503906 17.453125 21.429688 17.421875 21.363281 17.382812 C 20.960938 17.179688 20.5625 16.96875 20.179688 16.730469 C 19.945312 16.585938 19.710938 16.441406 19.476562 16.304688 C 19.449219 16.292969 19.398438 16.308594 19.367188 16.324219 C 19.324219 16.34375 19.316406 16.4375 19.347656 16.476562 C 19.398438 16.539062 19.453125 16.59375 19.515625 16.636719 C 19.867188 16.847656 20.226562 17.050781 20.582031 17.257812 C 20.613281 17.28125 20.640625 17.308594 20.660156 17.339844 C 20.671875 17.359375 20.675781 17.375 20.671875 17.394531 C 20.667969 17.4375 20.640625 17.460938 20.589844 17.445312 C 20.179688 17.324219 19.757812 17.222656 19.371094 17.027344 C 19.019531 16.851562 18.675781 16.660156 18.335938 16.46875 C 17.925781 16.238281 17.519531 16.003906 17.109375 15.769531 C 17.09375 15.757812 17.074219 15.753906 17.054688 15.753906 C 17.023438 15.769531 16.992188 15.789062 16.964844 15.8125 C 16.953125 15.828125 16.953125 15.847656 16.960938 15.867188 C 17.019531 16.003906 17.152344 16.058594 17.269531 16.128906 C 17.65625 16.355469 18.054688 16.570312 18.445312 16.796875 C 18.566406 16.863281 18.671875 16.945312 18.785156 17.027344 C 18.792969 17.03125 18.789062 17.0625 18.777344 17.078125 C 18.769531 17.089844 18.75 17.109375 18.738281 17.109375 C 18.402344 17.089844 18.082031 17.019531 17.769531 16.898438 C 17.75 16.890625 17.730469 16.882812 17.714844 16.871094 C 17.292969 16.625 16.835938 16.4375 16.40625 16.203125 C 15.996094 15.976562 15.613281 15.703125 15.226562 15.4375 C 14.890625 15.203125 14.585938 14.917969 14.242188 14.691406 C 14.132812 14.609375 14.027344 14.523438 13.929688 14.425781 C 13.796875 14.308594 13.675781 14.179688 13.535156 14.070312 C 13.023438 13.667969 12.613281 13.167969 12.183594 12.6875 C 12.0625 12.554688 11.949219 12.421875 11.839844 12.28125 C 11.589844 11.960938 11.34375 11.628906 11.085938 11.308594 C 10.691406 10.824219 10.269531 10.359375 9.941406 9.820312 C 9.921875 9.785156 9.898438 9.753906 9.871094 9.726562 C 9.5 9.320312 9.1875 8.867188 8.792969 8.484375 C 8.78125 8.46875 8.769531 8.453125 8.765625 8.433594 C 8.757812 8.417969 8.75 8.390625 8.757812 8.378906 C 8.78125 8.355469 8.8125 8.3125 8.835938 8.316406 C 9.238281 8.390625 9.644531 8.46875 10.046875 8.554688 C 10.390625 8.628906 10.730469 8.726562 11.085938 8.75 C 11.164062 8.757812 11.242188 8.769531 11.316406 8.792969 C 12.023438 8.957031 12.738281 9.089844 13.433594 9.296875 C 14.523438 9.621094 15.640625 9.847656 16.707031 10.25 C 17.464844 10.449219 18.214844 10.683594 18.960938 10.921875 C 19.464844 11.082031 19.972656 11.242188 20.460938 11.445312 C 21.023438 11.675781 21.574219 11.933594 22.125 12.1875 C 22.429688 12.324219 22.730469 12.46875 23.023438 12.625 C 23.488281 12.875 23.941406 13.148438 24.421875 13.371094 C 24.765625 13.527344 25.058594 13.757812 25.378906 13.949219 C 25.980469 14.316406 26.578125 14.695312 27.117188 15.152344 C 27.609375 15.570312 28.136719 15.949219 28.582031 16.421875 C 29.097656 16.960938 29.621094 17.488281 30.15625 18.003906 C 30.238281 18.089844 30.3125 18.179688 30.382812 18.273438 C 30.753906 18.730469 31.160156 19.15625 31.59375 19.550781 C 31.941406 19.863281 32.28125 20.191406 32.621094 20.515625 C 32.6875 20.570312 32.71875 20.640625 32.710938 20.726562 C 32.625 20.746094 32.5625 20.691406 32.503906 20.648438 C 32.234375 20.453125 31.953125 20.265625 31.707031 20.042969 C 31.347656 19.714844 30.964844 19.40625 30.59375 19.085938 C 30.105469 18.660156 29.5625 18.308594 29.042969 17.929688 C 28.929688 17.851562 28.8125 17.777344 28.691406 17.714844 C 28.636719 17.6875 28.582031 17.671875 28.523438 17.660156 C 28.503906 17.65625 28.488281 17.660156 28.46875 17.671875 C 28.472656 17.707031 28.464844 17.757812 28.484375 17.773438 C 28.660156 17.898438 28.839844 18.015625 29.019531 18.136719 C 29.265625 18.296875 29.507812 18.460938 29.726562 18.65625 C 30.175781 19.066406 30.625 19.476562 31.078125 19.878906 C 31.375 20.136719 31.65625 20.40625 31.992188 20.617188 C 32.15625 20.722656 32.316406 20.835938 32.472656 20.960938 C 32.527344 21.007812 32.558594 21.085938 32.597656 21.152344 C 32.605469 21.171875 32.605469 21.191406 32.59375 21.207031 C 32.578125 21.222656 32.558594 21.226562 32.539062 21.21875 C 32.289062 21.15625 32.082031 21.003906 31.863281 20.875 C 31.777344 20.828125 31.6875 20.785156 31.585938 20.820312 Z M 40.875 27.105469 C 40.941406 27.070312 41.007812 27.035156 41.074219 27 C 41.089844 26.992188 41.109375 27 41.128906 27 C 41.113281 27.027344 41.105469 27.066406 41.082031 27.082031 C 41.019531 27.128906 40.949219 27.144531 40.878906 27.085938 C 40.742188 27.160156 40.613281 27.253906 40.460938 27.300781 C 40.214844 27.375 39.996094 27.503906 39.765625 27.613281 C 39.515625 27.730469 39.257812 27.820312 39.015625 27.949219 C 38.5625 28.183594 38.121094 28.4375 37.675781 28.6875 C 37.59375 28.738281 37.515625 28.796875 37.445312 28.859375 C 37.429688 28.871094 37.429688 28.894531 37.425781 28.914062 C 37.441406 28.921875 37.464844 28.9375 37.480469 28.929688 C 37.753906 28.828125 38.019531 28.707031 38.28125 28.574219 C 38.816406 28.296875 39.335938 27.976562 39.910156 27.769531 C 40.414062 27.492188 40.964844 27.347656 41.511719 27.195312 C 41.683594 27.148438 41.859375 27.125 42.023438 27.0625 C 42.519531 26.875 43.039062 26.765625 43.550781 26.636719 C 43.601562 26.621094 43.625 26.640625 43.605469 26.707031 C 43.277344 26.945312 42.957031 27.230469 42.589844 27.457031 C 42.289062 27.640625 41.988281 27.828125 41.6875 28.015625 C 41.554688 28.097656 41.410156 28.167969 41.296875 28.273438 C 41.058594 28.484375 40.785156 28.636719 40.523438 28.804688 C 40.273438 28.960938 40.007812 29.101562 39.785156 29.289062 C 39.53125 29.507812 39.253906 29.6875 38.980469 29.878906 C 38.867188 29.957031 38.761719 30.046875 38.65625 30.128906 C 38.5625 30.203125 38.46875 30.273438 38.371094 30.339844 C 37.902344 30.625 37.449219 30.933594 37.011719 31.265625 C 36.625 31.566406 36.179688 31.78125 35.804688 32.097656 C 34.71875 32.765625 33.628906 33.429688 32.511719 34.039062 C 32.445312 34.082031 32.375 34.121094 32.300781 34.148438 C 32.03125 34.21875 31.796875 34.367188 31.558594 34.496094 C 31.230469 34.675781 30.910156 34.867188 30.550781 34.976562 C 30.535156 34.984375 30.519531 34.996094 30.507812 35.007812 C 30.476562 35.042969 30.46875 35.085938 30.5 35.113281 C 30.558594 35.164062 30.460938 35.152344 30.539062 35.148438 C 30.761719 35.144531 30.960938 35.066406 31.15625 34.972656 C 31.3125 34.894531 31.464844 34.796875 31.632812 34.746094 C 31.835938 34.675781 32.03125 34.585938 32.214844 34.472656 C 32.695312 34.207031 33.175781 33.933594 33.65625 33.671875 C 33.808594 33.585938 33.976562 33.527344 34.128906 33.4375 C 34.28125 33.347656 34.414062 33.234375 34.558594 33.132812 C 34.605469 33.097656 34.660156 33.074219 34.710938 33.042969 C 35.28125 32.695312 35.847656 32.351562 36.417969 32.003906 C 36.566406 31.910156 36.726562 31.824219 36.855469 31.707031 C 37.097656 31.5 37.367188 31.339844 37.621094 31.160156 C 37.75 31.070312 37.890625 30.992188 38.003906 30.890625 C 38.171875 30.753906 38.347656 30.628906 38.535156 30.519531 C 38.75 30.382812 38.96875 30.25 39.160156 30.085938 C 39.355469 29.917969 39.558594 29.765625 39.777344 29.632812 C 39.894531 29.566406 40.007812 29.488281 40.117188 29.402344 C 40.507812 29.070312 40.957031 28.824219 41.386719 28.550781 C 41.617188 28.40625 41.863281 28.277344 42.105469 28.148438 C 42.128906 28.132812 42.167969 28.152344 42.203125 28.152344 C 42.195312 28.171875 42.195312 28.199219 42.183594 28.207031 C 42.121094 28.257812 42.058594 28.304688 41.996094 28.351562 C 41.777344 28.515625 41.582031 28.703125 41.40625 28.914062 C 41.363281 28.972656 41.371094 29.027344 41.425781 29.074219 C 41.453125 29.09375 41.503906 29.121094 41.527344 29.109375 C 41.621094 29.074219 41.703125 29.023438 41.777344 28.964844 C 41.894531 28.859375 41.980469 28.726562 42.097656 28.621094 C 42.371094 28.367188 42.621094 28.089844 42.964844 27.925781 C 42.980469 27.917969 43.003906 27.921875 43.023438 27.917969 C 43.054688 27.914062 43.058594 27.925781 43.039062 27.957031 C 42.941406 28.101562 42.828125 28.234375 42.699219 28.351562 C 42.464844 28.5625 42.238281 28.777344 42.011719 28.992188 C 41.4375 29.527344 40.863281 30.0625 40.292969 30.597656 C 40.066406 30.808594 39.832031 31.023438 39.625 31.253906 C 39.355469 31.542969 39.109375 31.84375 38.875 32.160156 C 38.570312 32.59375 38.226562 32.992188 37.84375 33.355469 C 37.460938 33.71875 37.105469 34.117188 36.648438 34.394531 C 36.601562 34.429688 36.558594 34.46875 36.515625 34.511719 C 36.226562 34.742188 35.9375 34.980469 35.640625 35.203125 C 35.417969 35.363281 35.175781 35.496094 34.949219 35.648438 C 34.707031 35.816406 34.480469 36.003906 34.238281 36.164062 C 33.894531 36.398438 33.539062 36.597656 33.160156 36.769531 C 32.714844 36.972656 32.265625 37.164062 31.816406 37.359375 C 31.242188 37.617188 30.648438 37.8125 30.03125 37.949219 C 29.726562 38.011719 29.414062 38.0625 29.113281 38.152344 C 28.886719 38.21875 28.660156 38.257812 28.429688 38.304688 C 28.0625 38.375 27.703125 38.445312 27.339844 38.550781 C 26.703125 38.738281 26.066406 38.933594 25.402344 39.027344 C 25.308594 39.042969 25.214844 39.074219 25.117188 39.097656 C 24.945312 39.136719 24.777344 39.195312 24.605469 39.210938 C 23.859375 39.28125 23.136719 39.460938 22.410156 39.625 C 21.988281 39.710938 21.5625 39.765625 21.128906 39.785156 C 21.03125 39.785156 20.933594 39.773438 20.839844 39.75 C 20.742188 39.734375 20.675781 39.636719 20.671875 39.535156 C 20.652344 39.3125 20.714844 39.109375 20.859375 38.933594 C 21.027344 38.71875 21.207031 38.511719 21.375 38.292969 C 21.828125 37.71875 22.378906 37.25 22.960938 36.816406 C 23.289062 36.566406 23.609375 36.304688 23.914062 36.035156 C 24.402344 35.605469 24.910156 35.207031 25.425781 34.816406 C 25.988281 34.390625 26.53125 33.945312 27.046875 33.460938 C 27.40625 33.128906 27.789062 32.824219 28.160156 32.503906 C 28.488281 32.328125 28.761719 32.066406 29.046875 31.832031 C 29.394531 31.546875 29.765625 31.292969 30.160156 31.070312 C 30.277344 31 30.390625 30.921875 30.511719 30.855469 C 30.882812 30.636719 31.253906 30.417969 31.628906 30.203125 C 31.765625 30.125 31.90625 30.0625 32.054688 30.011719 C 32.410156 29.894531 32.753906 29.757812 33.089844 29.597656 C 33.546875 29.371094 33.996094 29.128906 34.460938 28.917969 C 35.035156 28.660156 35.617188 28.429688 36.222656 28.273438 C 36.734375 28.136719 37.25 28.023438 37.765625 27.890625 C 38.351562 27.738281 38.945312 27.601562 39.519531 27.410156 C 39.929688 27.277344 40.351562 27.1875 40.765625 27.074219 C 40.796875 27.0625 40.835938 27.09375 40.875 27.105469 Z M 34.160156 22.835938 C 34.207031 22.910156 34.273438 22.941406 34.359375 22.933594 C 34.816406 22.90625 35.257812 22.988281 35.695312 23.109375 C 36.074219 23.214844 36.453125 23.3125 36.828125 23.417969 C 36.859375 23.425781 36.878906 23.464844 36.902344 23.492188 C 36.871094 23.511719 36.84375 23.554688 36.816406 23.554688 C 36.328125 23.542969 35.835938 23.539062 35.347656 23.511719 C 34.976562 23.492188 34.605469 23.453125 34.234375 23.414062 C 33.628906 23.351562 33.023438 23.300781 32.429688 23.160156 C 32.203125 23.105469 31.96875 23.0625 31.738281 23.015625 C 31.257812 22.921875 30.773438 22.847656 30.285156 22.800781 C 30.167969 22.78125 30.054688 22.757812 29.941406 22.726562 C 29.328125 22.59375 28.722656 22.421875 28.101562 22.332031 C 27.90625 22.304688 27.71875 22.25 27.535156 22.175781 C 27.171875 22.015625 26.792969 21.921875 26.414062 21.828125 C 25.539062 21.609375 24.664062 21.390625 23.8125 21.089844 C 23.683594 21.046875 23.550781 21.011719 23.417969 20.972656 C 22.265625 20.648438 21.113281 20.328125 19.964844 19.996094 C 18.796875 19.65625 17.613281 19.378906 16.414062 19.167969 C 16.355469 19.160156 16.300781 19.167969 16.246094 19.1875 C 16.21875 19.195312 16.199219 19.242188 16.183594 19.277344 C 16.179688 19.285156 16.199219 19.316406 16.214844 19.324219 C 16.445312 19.429688 16.695312 19.476562 16.945312 19.53125 C 17.515625 19.664062 18.09375 19.773438 18.65625 19.945312 C 19.105469 20.085938 19.5625 20.199219 20.019531 20.324219 C 20.660156 20.496094 21.304688 20.667969 21.949219 20.84375 C 22.253906 20.925781 22.554688 21.011719 22.855469 21.105469 C 22.964844 21.136719 23.070312 21.195312 23.183594 21.226562 C 24.128906 21.484375 25.078125 21.738281 26.023438 21.992188 C 26.324219 22.074219 26.640625 22.132812 26.925781 22.25 C 27.472656 22.480469 28.050781 22.59375 28.628906 22.710938 C 28.957031 22.773438 29.28125 22.832031 29.605469 22.917969 C 29.871094 22.984375 30.140625 23.023438 30.414062 23.066406 C 31.011719 23.160156 31.613281 23.238281 32.207031 23.390625 C 32.527344 23.476562 32.855469 23.535156 33.1875 23.5625 C 33.65625 23.597656 34.121094 23.648438 34.585938 23.714844 C 35.210938 23.804688 35.839844 23.8125 36.464844 23.816406 C 36.957031 23.820312 37.441406 23.875 37.929688 23.925781 C 37.949219 23.929688 37.964844 23.941406 37.976562 23.957031 C 37.960938 23.988281 37.949219 24.035156 37.921875 24.046875 C 37.832031 24.085938 37.742188 24.121094 37.648438 24.144531 C 37.34375 24.21875 37.035156 24.285156 36.730469 24.359375 C 36.445312 24.425781 36.164062 24.507812 35.871094 24.5625 C 35.488281 24.640625 35.105469 24.707031 34.714844 24.765625 C 34.054688 24.867188 33.402344 24.992188 32.730469 24.957031 C 32.691406 24.953125 32.652344 24.960938 32.613281 24.960938 C 32.003906 24.957031 31.398438 25.023438 30.792969 24.925781 C 30.773438 24.925781 30.753906 24.929688 30.734375 24.933594 C 30.679688 24.933594 30.660156 24.960938 30.675781 25.015625 C 30.679688 25.035156 30.691406 25.050781 30.707031 25.0625 C 30.882812 25.164062 31.078125 25.183594 31.273438 25.191406 C 31.742188 25.203125 32.214844 25.210938 32.683594 25.207031 C 33.488281 25.1875 34.289062 25.117188 35.082031 24.984375 C 35.566406 24.910156 36.050781 24.835938 36.523438 24.703125 C 37.050781 24.550781 37.59375 24.453125 38.128906 24.347656 C 38.242188 24.324219 38.351562 24.308594 38.464844 24.347656 C 38.453125 24.363281 38.445312 24.390625 38.429688 24.394531 C 38.007812 24.546875 37.582031 24.699219 37.160156 24.851562 C 36.644531 25.035156 36.125 25.214844 35.609375 25.398438 C 35.039062 25.597656 34.464844 25.800781 33.890625 25.992188 C 33.667969 26.070312 33.441406 26.132812 33.210938 26.183594 C 32.769531 26.277344 32.328125 26.355469 31.886719 26.449219 C 31.484375 26.539062 31.074219 26.601562 30.664062 26.636719 C 30.449219 26.652344 30.234375 26.664062 30.019531 26.6875 C 29.570312 26.742188 29.121094 26.730469 28.671875 26.730469 C 28.394531 26.726562 28.121094 26.691406 27.855469 26.621094 C 27.664062 26.574219 27.476562 26.527344 27.28125 26.496094 C 26.929688 26.4375 26.589844 26.347656 26.261719 26.222656 C 25.765625 26.035156 25.265625 25.859375 24.769531 25.671875 C 24.457031 25.554688 24.15625 25.417969 23.859375 25.269531 C 23.613281 25.144531 23.363281 25.027344 23.113281 24.921875 C 22.699219 24.742188 22.285156 24.5625 21.867188 24.398438 C 21.171875 24.121094 20.496094 23.816406 19.808594 23.523438 C 19.613281 23.4375 19.410156 23.359375 19.214844 23.269531 C 18.488281 22.929688 17.746094 22.617188 17.003906 22.316406 C 16.820312 22.242188 16.644531 22.152344 16.460938 22.085938 C 15.90625 21.890625 15.359375 21.683594 14.835938 21.410156 C 14.699219 21.335938 14.550781 21.277344 14.40625 21.214844 C 14.15625 21.109375 13.898438 21.011719 13.648438 20.898438 C 13.289062 20.742188 12.9375 20.566406 12.578125 20.414062 C 11.984375 20.15625 11.378906 19.929688 10.785156 19.679688 C 10.132812 19.402344 9.46875 19.167969 8.878906 18.769531 C 8.84375 18.75 8.808594 18.734375 8.773438 18.71875 C 8.035156 18.304688 7.359375 17.804688 6.707031 17.261719 C 6.617188 17.1875 6.53125 17.105469 6.453125 17.019531 C 6.082031 16.617188 5.707031 16.214844 5.34375 15.804688 C 5.117188 15.554688 4.949219 15.269531 4.839844 14.953125 C 4.816406 14.886719 4.90625 14.785156 4.976562 14.800781 C 5.070312 14.8125 5.167969 14.835938 5.257812 14.867188 C 5.441406 14.941406 5.617188 15.027344 5.796875 15.105469 C 6.195312 15.277344 6.589844 15.449219 6.984375 15.617188 C 7.09375 15.667969 7.203125 15.703125 7.320312 15.722656 C 7.519531 15.738281 7.703125 15.804688 7.890625 15.859375 C 8.304688 15.972656 8.722656 16.074219 9.132812 16.210938 C 9.246094 16.242188 9.363281 16.265625 9.476562 16.28125 C 9.980469 16.371094 10.484375 16.445312 10.984375 16.546875 C 11.425781 16.632812 11.871094 16.695312 12.320312 16.730469 C 13.648438 16.859375 14.980469 16.898438 16.308594 17.050781 C 16.8125 17.109375 17.316406 17.167969 17.820312 17.261719 C 18.359375 17.363281 18.898438 17.46875 19.429688 17.609375 C 20.148438 17.796875 20.875 17.972656 21.597656 18.148438 C 21.882812 18.21875 22.167969 18.285156 22.457031 18.351562 C 22.667969 18.398438 22.882812 18.417969 23.089844 18.476562 C 23.691406 18.648438 24.292969 18.835938 24.890625 19.019531 C 24.984375 19.046875 25.070312 19.09375 25.164062 19.128906 C 25.765625 19.367188 26.367188 19.609375 26.972656 19.835938 C 27.742188 20.121094 28.527344 20.375 29.269531 20.730469 C 29.320312 20.757812 29.378906 20.773438 29.433594 20.792969 C 29.820312 20.933594 30.214844 21.0625 30.59375 21.222656 C 31.042969 21.414062 31.492188 21.601562 31.960938 21.753906 C 32.742188 22.007812 33.503906 22.324219 34.28125 22.589844 C 34.300781 22.597656 34.316406 22.609375 34.332031 22.621094 C 34.371094 22.644531 34.382812 22.6875 34.34375 22.71875 C 34.285156 22.769531 34.21875 22.808594 34.152344 22.855469 Z M 5.410156 3.710938 C 5.390625 3.746094 5.367188 3.777344 5.335938 3.808594 C 5.222656 3.890625 5.210938 4 5.265625 4.117188 C 5.335938 4.257812 5.410156 4.394531 5.496094 4.527344 C 5.71875 4.871094 5.953125 5.203125 6.203125 5.53125 C 6.476562 5.890625 6.789062 6.210938 7.101562 6.53125 C 7.152344 6.59375 7.210938 6.644531 7.277344 6.683594 C 7.5 6.785156 7.632812 6.988281 7.8125 7.136719 C 7.832031 7.15625 7.828125 7.207031 7.835938 7.242188 C 7.816406 7.246094 7.796875 7.25 7.777344 7.246094 C 7.570312 7.1875 7.363281 7.105469 7.214844 6.949219 C 6.949219 6.660156 6.621094 6.4375 6.394531 6.113281 C 6.371094 6.082031 6.339844 6.058594 6.300781 6.050781 C 6.261719 6.046875 6.226562 6.054688 6.195312 6.066406 C 6.1875 6.070312 6.1875 6.105469 6.191406 6.125 C 6.226562 6.261719 6.324219 6.363281 6.417969 6.457031 C 6.53125 6.570312 6.644531 6.675781 6.710938 6.820312 C 6.714844 6.855469 6.710938 6.886719 6.699219 6.917969 C 6.679688 6.925781 6.660156 6.925781 6.644531 6.917969 C 6.347656 6.726562 6.042969 6.550781 5.761719 6.339844 C 5.511719 6.148438 5.277344 5.945312 5.054688 5.722656 C 4.699219 5.367188 4.453125 4.960938 4.460938 4.429688 C 4.464844 4.09375 4.4375 3.761719 4.382812 3.433594 C 4.308594 3.027344 4.304688 2.617188 4.265625 2.207031 C 4.257812 2.09375 4.261719 1.976562 4.273438 1.859375 C 4.277344 1.832031 4.320312 1.800781 4.347656 1.777344 C 4.367188 1.769531 4.382812 1.773438 4.398438 1.78125 C 4.664062 1.964844 4.863281 2.191406 4.929688 2.523438 C 4.949219 2.617188 4.996094 2.707031 5.035156 2.796875 C 5.089844 2.941406 5.152344 3.085938 5.207031 3.230469 C 5.265625 3.398438 5.375 3.542969 5.410156 3.710938 Z M 38.941406 24.222656 C 38.902344 24.246094 38.882812 24.242188 38.898438 24.207031 C 38.902344 24.199219 38.921875 24.199219 38.9375 24.195312 Z M 38.941406 24.222656 " fill-opacity="1" fill-rule="nonzero"/></g></g></g><g clip-path="url(#4f5d5dcdc1)"><g clip-path="url(#2a78fcd40c)"><g clip-path="url(#a22888a079)"><path fill="#f6c55d" d="M 21.445312 22.460938 C 21.488281 22.5 21.53125 22.535156 21.578125 22.566406 C 22.09375 22.84375 22.605469 23.128906 23.148438 23.355469 C 23.167969 23.363281 23.183594 23.371094 23.203125 23.378906 C 23.621094 23.484375 24.011719 23.671875 24.402344 23.847656 C 24.457031 23.871094 24.511719 23.890625 24.570312 23.90625 C 25.789062 24.253906 27.015625 24.589844 28.257812 24.863281 C 28.375 24.886719 28.488281 24.902344 28.605469 24.914062 C 28.859375 24.945312 29.113281 24.96875 29.359375 25.039062 C 29.433594 25.054688 29.511719 25.058594 29.589844 25.054688 C 29.65625 25.058594 29.703125 25.03125 29.726562 24.96875 C 29.746094 24.898438 29.722656 24.851562 29.65625 24.824219 C 29.601562 24.800781 29.550781 24.78125 29.492188 24.765625 C 29.304688 24.71875 29.109375 24.683594 28.917969 24.65625 C 28.625 24.625 28.335938 24.574219 28.050781 24.496094 C 27.996094 24.476562 27.9375 24.464844 27.878906 24.457031 C 27.488281 24.4375 27.117188 24.292969 26.734375 24.222656 C 26.695312 24.214844 26.660156 24.207031 26.621094 24.199219 C 26.265625 24.089844 25.921875 23.941406 25.554688 23.871094 C 25.1875 23.800781 24.847656 23.652344 24.488281 23.550781 C 24.304688 23.496094 24.125 23.40625 23.945312 23.335938 C 23.363281 23.109375 22.773438 22.898438 22.203125 22.636719 C 21.972656 22.53125 21.742188 22.429688 21.507812 22.324219 C 21.488281 22.324219 21.472656 22.328125 21.464844 22.34375 C 21.453125 22.382812 21.449219 22.421875 21.445312 22.460938 Z M 21.445312 22.460938 " fill-opacity="1" fill-rule="nonzero"/></g></g></g><g clip-path="url(#10807651ad)"><g clip-path="url(#1e478b8b67)"><g clip-path="url(#d6b8b4bb23)"><path fill="#f6c55d" d="M 7.375 16.71875 C 7.386719 16.734375 7.390625 16.757812 7.40625 16.769531 C 7.457031 16.796875 7.507812 16.824219 7.5625 16.847656 C 7.992188 17.03125 8.425781 17.214844 8.859375 17.394531 C 9.003906 17.453125 9.152344 17.503906 9.304688 17.546875 C 9.585938 17.628906 9.859375 17.726562 10.132812 17.835938 C 10.496094 17.980469 10.871094 18.09375 11.253906 18.175781 C 11.691406 18.273438 12.128906 18.378906 12.570312 18.460938 C 12.628906 18.464844 12.6875 18.457031 12.742188 18.441406 C 12.753906 18.441406 12.765625 18.414062 12.769531 18.398438 C 12.769531 18.378906 12.765625 18.363281 12.753906 18.347656 C 12.746094 18.328125 12.734375 18.316406 12.71875 18.304688 C 12.648438 18.269531 12.574219 18.238281 12.5 18.222656 C 11.9375 18.132812 11.402344 17.929688 10.851562 17.796875 C 10.757812 17.777344 10.664062 17.75 10.570312 17.714844 C 9.59375 17.367188 8.589844 17.09375 7.648438 16.648438 C 7.582031 16.613281 7.5 16.585938 7.425781 16.628906 C 7.402344 16.644531 7.394531 16.6875 7.375 16.71875 Z M 7.375 16.71875 " fill-opacity="1" fill-rule="nonzero"/></g></g></g><g clip-path="url(#94ead91148)"><g clip-path="url(#3109398f2c)"><g clip-path="url(#ce3a51554a)"><path fill="#f6c55d" d="M 15.25 19.042969 C 15.261719 19.027344 15.273438 19.011719 15.277344 18.996094 C 15.28125 18.976562 15.277344 18.960938 15.265625 18.945312 C 15.257812 18.929688 15.242188 18.914062 15.226562 18.90625 C 14.867188 18.746094 14.496094 18.644531 14.109375 18.597656 C 14.078125 18.59375 14.042969 18.628906 14.015625 18.652344 C 13.980469 18.6875 14.019531 18.777344 14.074219 18.792969 C 14.429688 18.882812 14.769531 19.046875 15.140625 19.074219 C 15.179688 19.070312 15.214844 19.058594 15.25 19.042969 Z M 15.25 19.042969 " fill-opacity="1" fill-rule="nonzero"/></g></g></g><g clip-path="url(#81e8588404)"><g clip-path="url(#894e9b562e)"><g clip-path="url(#234d69f3d5)"><path fill="#f6c55d" d="M 34.152344 22.855469 C 34.121094 22.839844 34.089844 22.808594 34.058594 22.8125 C 34.027344 22.8125 34.007812 22.847656 33.980469 22.867188 C 33.992188 22.878906 33.996094 22.894531 34.007812 22.898438 C 34.027344 22.902344 34.042969 22.902344 34.0625 22.894531 C 34.09375 22.878906 34.128906 22.859375 34.160156 22.835938 Z M 34.152344 22.855469 " fill-opacity="1" fill-rule="nonzero"/></g></g></g><g clip-path="url(#8d2224a602)"><g clip-path="url(#c1378e8192)"><g clip-path="url(#d5254bf8df)"><path fill="#f6c55d" d="M 23.289062 38.167969 C 23.121094 38.222656 22.957031 38.277344 22.792969 38.339844 C 22.765625 38.347656 22.75 38.398438 22.742188 38.433594 C 22.734375 38.476562 22.8125 38.554688 22.851562 38.546875 C 22.890625 38.546875 22.925781 38.539062 22.964844 38.527344 C 23.441406 38.304688 23.945312 38.140625 24.390625 37.855469 C 24.421875 37.835938 24.457031 37.816406 24.496094 37.804688 C 24.894531 37.695312 25.246094 37.484375 25.613281 37.300781 C 25.699219 37.253906 25.789062 37.21875 25.882812 37.1875 C 26.144531 37.101562 26.375 36.960938 26.609375 36.816406 C 26.652344 36.792969 26.65625 36.75 26.628906 36.726562 C 26.597656 36.707031 26.5625 36.695312 26.523438 36.691406 C 26.484375 36.695312 26.445312 36.703125 26.410156 36.722656 C 25.96875 36.925781 25.527344 37.125 25.085938 37.332031 C 25.035156 37.359375 24.980469 37.382812 24.921875 37.398438 C 24.667969 37.445312 24.453125 37.585938 24.234375 37.707031 C 23.921875 37.871094 23.617188 38.046875 23.289062 38.167969 Z M 23.289062 38.167969 " fill-opacity="1" fill-rule="nonzero"/></g></g></g><g clip-path="url(#8795ec787c)"><g clip-path="url(#dd14137e16)"><g clip-path="url(#7ff2b2289b)"><path fill="#f6c55d" d="M 28.332031 35.847656 C 28.273438 35.894531 28.230469 35.929688 28.1875 35.96875 C 28.175781 35.984375 28.167969 36 28.171875 36.019531 C 28.183594 36.0625 28.21875 36.089844 28.253906 36.078125 C 28.726562 35.898438 29.195312 35.722656 29.664062 35.542969 C 29.683594 35.535156 29.699219 35.523438 29.710938 35.503906 C 29.726562 35.472656 29.734375 35.4375 29.730469 35.398438 C 29.714844 35.363281 29.691406 35.339844 29.65625 35.324219 C 29.621094 35.308594 29.582031 35.304688 29.542969 35.316406 C 29.132812 35.492188 28.726562 35.675781 28.332031 35.847656 Z M 28.332031 35.847656 " fill-opacity="1" fill-rule="nonzero"/></g></g></g><g clip-path="url(#ba37fe6150)"><g clip-path="url(#ee44a18359)"><g clip-path="url(#b29229ad4f)"><path fill="#f6c55d" d="M 30.980469 20.480469 C 30.824219 20.292969 30.640625 20.15625 30.378906 20.167969 L 30.386719 20.148438 C 30.492188 20.277344 30.636719 20.359375 30.78125 20.441406 C 30.847656 20.480469 30.917969 20.488281 30.988281 20.460938 Z M 30.980469 20.480469 " fill-opacity="1" fill-rule="nonzero"/></g></g></g><g clip-path="url(#8d8350d992)"><g clip-path="url(#d56dd81df1)"><g clip-path="url(#6f7a77bd46)"><path fill="#f6c55d" d="M 31.585938 20.820312 C 31.5 20.675781 31.386719 20.585938 31.203125 20.636719 L 31.210938 20.617188 C 31.304688 20.746094 31.421875 20.824219 31.59375 20.800781 Z M 31.585938 20.820312 " fill-opacity="1" fill-rule="nonzero"/></g></g></g><g clip-path="url(#f2e7919b79)"><g clip-path="url(#1c52a772d4)"><g clip-path="url(#57c481270a)"><path fill="#f6c55d" d="M 30.160156 20.003906 C 30.101562 19.929688 30.03125 19.875 29.941406 19.847656 C 29.921875 19.84375 29.894531 19.835938 29.886719 19.84375 C 29.855469 19.882812 29.863281 19.914062 29.910156 19.9375 C 29.988281 19.984375 30.070312 20.027344 30.164062 19.988281 Z M 30.160156 20.003906 " fill-opacity="1" fill-rule="nonzero"/></g></g></g><g clip-path="url(#7ab9bf25de)"><g clip-path="url(#f02ebc94ec)"><g clip-path="url(#48804f4f0b)"><path fill="#f6c55d" d="M 30.164062 19.984375 C 30.210938 20.078125 30.277344 20.144531 30.386719 20.148438 L 30.378906 20.167969 C 30.332031 20.078125 30.269531 20.007812 30.160156 20.003906 Z M 30.164062 19.984375 " fill-opacity="1" fill-rule="nonzero"/></g></g></g><g clip-path="url(#a117b4b04e)"><g clip-path="url(#c89bf474ac)"><g clip-path="url(#2f7ed9b22a)"><path fill="#f6c55d" d="M 30.988281 20.460938 C 31.035156 20.550781 31.089844 20.628906 31.210938 20.617188 L 31.203125 20.636719 C 31.160156 20.542969 31.101562 20.46875 30.980469 20.480469 Z M 30.988281 20.460938 " fill-opacity="1" fill-rule="nonzero"/></g></g></g></g></g></g></g><g fill="#ffffff" fill-opacity="1"><g transform="translate(104.435353, 191.184187)"><g><path d="M -0.875 -0.65625 L 2.640625 -1.984375 L 14.78125 -31.328125 L 16.109375 -31.328125 L 28.6875 -1.328125 L 30.890625 -0.65625 L 30.890625 0 L 25.59375 0 C 24.0625 0 22.8125 -0.34375 21.84375 -1.03125 C 20.875 -1.726562 20.15625 -2.632812 19.6875 -3.75 L 17.421875 -9.046875 L 6.890625 -9.046875 L 3.96875 -1.984375 L 7.28125 -0.65625 L 7.28125 0 L -0.875 0 Z M 7.328125 -10.15625 L 16.984375 -10.15625 L 12.140625 -21.75 Z M 7.328125 -10.15625 "/></g></g></g><g fill="#ffffff" fill-opacity="1"><g transform="translate(134.437686, 191.184187)"><g><path d="M 6.171875 -25.375 L 6.171875 -1.984375 L 9.703125 -0.65625 L 9.703125 0 L 1.328125 0 L 1.328125 -0.65625 L 4.859375 -1.984375 L 4.859375 -29.5625 L 2.203125 -30.21875 L 2.203125 -30.890625 L 7.71875 -30.890625 C 9.25 -30.890625 10.460938 -30.570312 11.359375 -29.9375 C 12.253906 -29.300781 13.023438 -28.367188 13.671875 -27.140625 L 23.296875 -8.734375 L 30.671875 -27.140625 C 31.171875 -28.429688 31.84375 -29.378906 32.6875 -29.984375 C 33.539062 -30.585938 34.851562 -30.890625 36.625 -30.890625 L 41.25 -30.890625 L 41.25 -30.21875 L 38.609375 -29.5625 L 38.609375 -1.328125 L 41.25 -0.65625 L 41.25 0 L 28.6875 0 L 28.6875 -0.65625 L 31.328125 -1.328125 L 31.328125 -25.375 L 20.953125 0.4375 L 19.640625 0.4375 Z M 6.171875 -25.375 "/></g></g></g><g fill="#ffffff" fill-opacity="1"><g transform="translate(177.896953, 191.184187)"><g><path d="M -0.875 -0.65625 L 2.640625 -1.984375 L 14.78125 -31.328125 L 16.109375 -31.328125 L 28.6875 -1.328125 L 30.890625 -0.65625 L 30.890625 0 L 25.59375 0 C 24.0625 0 22.8125 -0.34375 21.84375 -1.03125 C 20.875 -1.726562 20.15625 -2.632812 19.6875 -3.75 L 17.421875 -9.046875 L 6.890625 -9.046875 L 3.96875 -1.984375 L 7.28125 -0.65625 L 7.28125 0 L -0.875 0 Z M 7.328125 -10.15625 L 16.984375 -10.15625 L 12.140625 -21.75 Z M 7.328125 -10.15625 "/></g></g></g><g fill="#ffffff" fill-opacity="1"><g transform="translate(207.899286, 191.184187)"><g><path d="M 6.171875 -23.390625 L 6.171875 -1.984375 L 9.703125 -0.65625 L 9.703125 0 L 1.328125 0 L 1.328125 -0.65625 L 4.859375 -1.984375 L 4.859375 -29.34375 L 1.765625 -30.21875 L 1.765625 -30.890625 L 6.390625 -30.890625 C 7.953125 -30.890625 9.175781 -30.609375 10.0625 -30.046875 C 10.945312 -29.484375 11.785156 -28.734375 12.578125 -27.796875 L 26.703125 -11.25 L 26.703125 -28.90625 L 23.171875 -30.21875 L 23.171875 -30.890625 L 31.546875 -30.890625 L 31.546875 -30.21875 L 28.015625 -28.90625 L 28.015625 0.65625 L 26.703125 0.65625 Z M 6.171875 -23.390625 "/></g></g></g><g fill="#ffffff" fill-opacity="1"><g transform="translate(240.548888, 191.184187)"><g><path d="M -0.875 -0.65625 L 2.640625 -1.984375 L 14.78125 -31.328125 L 16.109375 -31.328125 L 28.6875 -1.328125 L 30.890625 -0.65625 L 30.890625 0 L 25.59375 0 C 24.0625 0 22.8125 -0.34375 21.84375 -1.03125 C 20.875 -1.726562 20.15625 -2.632812 19.6875 -3.75 L 17.421875 -9.046875 L 6.890625 -9.046875 L 3.96875 -1.984375 L 7.28125 -0.65625 L 7.28125 0 L -0.875 0 Z M 7.328125 -10.15625 L 16.984375 -10.15625 L 12.140625 -21.75 Z M 7.328125 -10.15625 "/></g></g></g><g fill="#f6c55d" fill-opacity="1"><g transform="translate(174.796033, 209.271562)"><g><path d="M 9.953125 -9.109375 C 9.953125 -7.921875 9.515625 -7.019531 8.640625 -6.40625 C 7.765625 -5.789062 6.578125 -5.484375 5.078125 -5.484375 L 3.484375 -5.484375 L 3.484375 0 L 1.671875 0 L 1.671875 -12.3125 L 5.671875 -12.3125 C 6.921875 -12.3125 7.945312 -12.023438 8.75 -11.453125 C 9.550781 -10.878906 9.953125 -10.097656 9.953125 -9.109375 Z M 3.484375 -6.03125 L 5.125 -6.03125 C 5.707031 -6.03125 6.207031 -6.140625 6.625 -6.359375 C 7.039062 -6.578125 7.34375 -6.863281 7.53125 -7.21875 C 7.863281 -7.832031 8.03125 -8.429688 8.03125 -9.015625 C 8.03125 -9.304688 7.957031 -9.648438 7.8125 -10.046875 C 7.507812 -10.859375 6.894531 -11.390625 5.96875 -11.640625 C 5.070312 -11.640625 4.242188 -11.535156 3.484375 -11.328125 Z M 3.484375 -6.03125 "/></g></g></g><g fill="#f6c55d" fill-opacity="1"><g transform="translate(184.950386, 209.271562)"><g><path d="M 0.1875 0 L 5.703125 -12.609375 L 5.984375 -12.609375 L 11.515625 0 L 9.484375 0 L 8.09375 -3.34375 L 2.5625 -3.34375 L 1.1875 0 Z M 2.84375 -4.046875 L 7.796875 -4.046875 L 5.34375 -10.078125 Z M 2.84375 -4.046875 "/></g></g></g><g fill="#f6c55d" fill-opacity="1"><g transform="translate(196.648353, 209.271562)"><g><path d="M 5.875 0 L 4.078125 0 L 4.078125 -11.421875 C 3.648438 -11.515625 3.226562 -11.5625 2.8125 -11.5625 L 0.296875 -10.984375 L 0.1875 -12.3125 L 9.765625 -12.3125 L 9.671875 -10.984375 L 7.140625 -11.5625 C 6.722656 -11.5625 6.300781 -11.515625 5.875 -11.421875 Z M 5.875 0 "/></g></g></g><g fill="#f6c55d" fill-opacity="1"><g transform="translate(206.598132, 209.271562)"><g><path d="M 3.5 -5.875 L 3.5 0 L 1.671875 0 L 1.671875 -12.3125 L 5.6875 -12.3125 C 6.9375 -12.3125 7.960938 -12.03125 8.765625 -11.46875 C 9.566406 -10.914062 9.96875 -10.179688 9.96875 -9.265625 C 9.96875 -8.359375 9.644531 -7.640625 9 -7.109375 C 8.363281 -6.585938 7.503906 -6.226562 6.421875 -6.03125 L 11.390625 0 L 9.234375 0.265625 L 4.921875 -5.875 Z M 3.5 -6.4375 L 4.6875 -6.4375 C 6.914062 -6.4375 8.03125 -7.316406 8.03125 -9.078125 C 8.03125 -9.367188 7.957031 -9.703125 7.8125 -10.078125 C 7.519531 -10.859375 6.910156 -11.375 5.984375 -11.625 C 5.140625 -11.625 4.3125 -11.519531 3.5 -11.3125 Z M 3.5 -6.4375 "/></g></g></g><g fill="#f6c55d" fill-opacity="1"><g transform="translate(218.46348, 209.271562)"><g><path d="M 3.390625 -12.3125 L 3.390625 0 L 1.671875 0 L 1.671875 -12.3125 Z M 3.390625 -12.3125 "/></g></g></g><g fill="#f6c55d" fill-opacity="1"><g transform="translate(223.522066, 209.271562)"><g><path d="M 8.234375 -2.921875 L 12.34375 -12.3125 L 14.25 -12.3125 L 14.9375 0 L 13.03125 0 L 12.53125 -10.578125 L 12.453125 -10.578125 L 7.765625 0 L 7.515625 0 L 2.921875 -10.15625 L 2.84375 -10.15625 L 2.34375 0 L 1.53125 0 L 2.21875 -12.3125 L 3.9375 -12.3125 Z M 8.234375 -2.921875 "/></g></g></g><g fill="#f6c55d" fill-opacity="1"><g transform="translate(240.055436, 209.271562)"><g><path d="M 7.265625 -12.53125 C 8.878906 -12.53125 10.210938 -12 11.265625 -10.9375 C 12.316406 -9.882812 12.84375 -8.414062 12.84375 -6.53125 C 12.84375 -5.3125 12.628906 -4.242188 12.203125 -3.328125 C 11.785156 -2.421875 11.238281 -1.722656 10.5625 -1.234375 C 9.238281 -0.265625 7.773438 0.21875 6.171875 0.21875 C 4.578125 0.21875 3.253906 -0.316406 2.203125 -1.390625 C 1.148438 -2.460938 0.625 -3.9375 0.625 -5.8125 C 0.625 -6.789062 0.765625 -7.675781 1.046875 -8.46875 C 1.328125 -9.257812 1.691406 -9.898438 2.140625 -10.390625 C 2.597656 -10.890625 3.125 -11.304688 3.71875 -11.640625 C 4.8125 -12.234375 5.992188 -12.53125 7.265625 -12.53125 Z M 3.53125 -2.125 C 3.851562 -1.570312 4.285156 -1.144531 4.828125 -0.84375 C 5.378906 -0.539062 6.007812 -0.390625 6.71875 -0.390625 C 7.4375 -0.390625 8.070312 -0.566406 8.625 -0.921875 C 9.1875 -1.285156 9.617188 -1.757812 9.921875 -2.34375 C 10.554688 -3.507812 10.875 -4.757812 10.875 -6.09375 C 10.875 -7.75 10.546875 -9.078125 9.890625 -10.078125 C 9.160156 -11.203125 7.953125 -11.765625 6.265625 -11.765625 C 5.066406 -11.347656 4.15625 -10.625 3.53125 -9.59375 C 2.914062 -8.5625 2.609375 -7.394531 2.609375 -6.09375 C 2.609375 -4.507812 2.914062 -3.1875 3.53125 -2.125 Z M 3.53125 -2.125 "/></g></g></g><g fill="#f6c55d" fill-opacity="1"><g transform="translate(253.538783, 209.271562)"><g><path d="M 3.390625 -12.3125 L 3.390625 0 L 1.671875 0 L 1.671875 -12.3125 Z M 3.390625 -12.3125 "/></g></g></g><g fill="#f6c55d" fill-opacity="1"><g transform="translate(258.597369, 209.271562)"><g><path d="M 11.03125 0.203125 L 10.703125 0.203125 L 2.5625 -9.984375 L 2.484375 -9.984375 L 2.484375 0 L 1.671875 0 L 1.671875 -12.3125 L 3.046875 -12.3125 L 10.140625 -3.359375 L 10.203125 -3.359375 L 10.203125 -12.3125 L 11.03125 -12.3125 Z M 11.03125 0.203125 "/></g></g></g><g fill="#f6c55d" fill-opacity="1"><g transform="translate(271.299612, 209.271562)"><g><path d="M 1.671875 0 L 1.671875 -12.3125 L 9.125 -12.3125 L 8.9375 -11.0625 L 5.484375 -11.640625 C 4.878906 -11.640625 4.210938 -11.535156 3.484375 -11.328125 L 3.484375 -6.8125 L 7.609375 -6.8125 L 7.609375 -6.09375 L 3.484375 -6.09375 L 3.484375 -0.671875 L 9.234375 -1.25 L 9.0625 0 Z M 1.671875 0 "/></g></g></g></svg>