<svg xmlns="http://www.w3.org/2000/svg" xmlns:xlink="http://www.w3.org/1999/xlink" width="500" zoomAndPan="magnify" viewBox="0 0 375 374.999991" height="500" preserveAspectRatio="xMidYMid meet" version="1.0"><rect x="-37.5" width="450" fill="#444b3f" y="-37.499999" height="449.999989" fill-opacity="1"/><g fill="#ffffff" fill-opacity="1"><g transform="translate(104.435353, 191.184187)"><g><path d="M -0.875 -0.65625 L 2.640625 -1.984375 L 14.78125 -31.328125 L 16.109375 -31.328125 L 28.6875 -1.328125 L 30.890625 -0.65625 L 30.890625 0 L 25.59375 0 C 24.0625 0 22.8125 -0.34375 21.84375 -1.03125 C 20.875 -1.726562 20.15625 -2.632812 19.6875 -3.75 L 17.421875 -9.046875 L 6.890625 -9.046875 L 3.96875 -1.984375 L 7.28125 -0.65625 L 7.28125 0 L -0.875 0 Z M 7.328125 -10.15625 L 16.984375 -10.15625 L 12.140625 -21.75 Z M 7.328125 -10.15625 "/></g></g></g><g fill="#ffffff" fill-opacity="1"><g transform="translate(134.437686, 191.184187)"><g><path d="M 6.171875 -25.375 L 6.171875 -1.984375 L 9.703125 -0.65625 L 9.703125 0 L 1.328125 0 L 1.328125 -0.65625 L 4.859375 -1.984375 L 4.859375 -29.5625 L 2.203125 -30.21875 L 2.203125 -30.890625 L 7.71875 -30.890625 C 9.25 -30.890625 10.460938 -30.570312 11.359375 -29.9375 C 12.253906 -29.300781 13.023438 -28.367188 13.671875 -27.140625 L 23.296875 -8.734375 L 30.671875 -27.140625 C 31.171875 -28.429688 31.84375 -29.378906 32.6875 -29.984375 C 33.539062 -30.585938 34.851562 -30.890625 36.625 -30.890625 L 41.25 -30.890625 L 41.25 -30.21875 L 38.609375 -29.5625 L 38.609375 -1.328125 L 41.25 -0.65625 L 41.25 0 L 28.6875 0 L 28.6875 -0.65625 L 31.328125 -1.328125 L 31.328125 -25.375 L 20.953125 0.4375 L 19.640625 0.4375 Z M 6.171875 -25.375 "/></g></g></g><g fill="#ffffff" fill-opacity="1"><g transform="translate(177.896953, 191.184187)"><g><path d="M -0.875 -0.65625 L 2.640625 -1.984375 L 14.78125 -31.328125 L 16.109375 -31.328125 L 28.6875 -1.328125 L 30.890625 -0.65625 L 30.890625 0 L 25.59375 0 C 24.0625 0 22.8125 -0.34375 21.84375 -1.03125 C 20.875 -1.726562 20.15625 -2.632812 19.6875 -3.75 L 17.421875 -9.046875 L 6.890625 -9.046875 L 3.96875 -1.984375 L 7.28125 -0.65625 L 7.28125 0 L -0.875 0 Z M 7.328125 -10.15625 L 16.984375 -10.15625 L 12.140625 -21.75 Z M 7.328125 -10.15625 "/></g></g></g><g fill="#ffffff" fill-opacity="1"><g transform="translate(207.899286, 191.184187)"><g><path d="M 6.171875 -23.390625 L 6.171875 -1.984375 L 9.703125 -0.65625 L 9.703125 0 L 1.328125 0 L 1.328125 -0.65625 L 4.859375 -1.984375 L 4.859375 -29.34375 L 1.765625 -30.21875 L 1.765625 -30.890625 L 6.390625 -30.890625 C 7.953125 -30.890625 9.175781 -30.609375 10.0625 -30.046875 C 10.945312 -29.484375 11.785156 -28.734375 12.578125 -27.796875 L 26.703125 -11.25 L 26.703125 -28.90625 L 23.171875 -30.21875 L 23.171875 -30.890625 L 31.546875 -30.890625 L 31.546875 -30.21875 L 28.015625 -28.90625 L 28.015625 0.65625 L 26.703125 0.65625 Z M 6.171875 -23.390625 "/></g></g></g><g fill="#ffffff" fill-opacity="1"><g transform="translate(240.548888, 191.184187)"><g><path d="M -0.875 -0.65625 L 2.640625 -1.984375 L 14.78125 -31.328125 L 16.109375 -31.328125 L 28.6875 -1.328125 L 30.890625 -0.65625 L 30.890625 0 L 25.59375 0 C 24.0625 0 22.8125 -0.34375 21.84375 -1.03125 C 20.875 -1.726562 20.15625 -2.632812 19.6875 -3.75 L 17.421875 -9.046875 L 6.890625 -9.046875 L 3.96875 -1.984375 L 7.28125 -0.65625 L 7.28125 0 L -0.875 0 Z M 7.328125 -10.15625 L 16.984375 -10.15625 L 12.140625 -21.75 Z M 7.328125 -10.15625 "/></g></g></g><g fill="#f6c55d" fill-opacity="1"><g transform="translate(174.796033, 209.271562)"><g><path d="M 9.953125 -9.109375 C 9.953125 -7.921875 9.515625 -7.019531 8.640625 -6.40625 C 7.765625 -5.789062 6.578125 -5.484375 5.078125 -5.484375 L 3.484375 -5.484375 L 3.484375 0 L 1.671875 0 L 1.671875 -12.3125 L 5.671875 -12.3125 C 6.921875 -12.3125 7.945312 -12.023438 8.75 -11.453125 C 9.550781 -10.878906 9.953125 -10.097656 9.953125 -9.109375 Z M 3.484375 -6.03125 L 5.125 -6.03125 C 5.707031 -6.03125 6.207031 -6.140625 6.625 -6.359375 C 7.039062 -6.578125 7.34375 -6.863281 7.53125 -7.21875 C 7.863281 -7.832031 8.03125 -8.429688 8.03125 -9.015625 C 8.03125 -9.304688 7.957031 -9.648438 7.8125 -10.046875 C 7.507812 -10.859375 6.894531 -11.390625 5.96875 -11.640625 C 5.070312 -11.640625 4.242188 -11.535156 3.484375 -11.328125 Z M 3.484375 -6.03125 "/></g></g></g><g fill="#f6c55d" fill-opacity="1"><g transform="translate(184.950386, 209.271562)"><g><path d="M 0.1875 0 L 5.703125 -12.609375 L 5.984375 -12.609375 L 11.515625 0 L 9.484375 0 L 8.09375 -3.34375 L 2.5625 -3.34375 L 1.1875 0 Z M 2.84375 -4.046875 L 7.796875 -4.046875 L 5.34375 -10.078125 Z M 2.84375 -4.046875 "/></g></g></g><g fill="#f6c55d" fill-opacity="1"><g transform="translate(196.648353, 209.271562)"><g><path d="M 5.875 0 L 4.078125 0 L 4.078125 -11.421875 C 3.648438 -11.515625 3.226562 -11.5625 2.8125 -11.5625 L 0.296875 -10.984375 L 0.1875 -12.3125 L 9.765625 -12.3125 L 9.671875 -10.984375 L 7.140625 -11.5625 C 6.722656 -11.5625 6.300781 -11.515625 5.875 -11.421875 Z M 5.875 0 "/></g></g></g><g fill="#f6c55d" fill-opacity="1"><g transform="translate(206.598132, 209.271562)"><g><path d="M 3.5 -5.875 L 3.5 0 L 1.671875 0 L 1.671875 -12.3125 L 5.6875 -12.3125 C 6.9375 -12.3125 7.960938 -12.03125 8.765625 -11.46875 C 9.566406 -10.914062 9.96875 -10.179688 9.96875 -9.265625 C 9.96875 -8.359375 9.644531 -7.640625 9 -7.109375 C 8.363281 -6.585938 7.503906 -6.226562 6.421875 -6.03125 L 11.390625 0 L 9.234375 0.265625 L 4.921875 -5.875 Z M 3.5 -6.4375 L 4.6875 -6.4375 C 6.914062 -6.4375 8.03125 -7.316406 8.03125 -9.078125 C 8.03125 -9.367188 7.957031 -9.703125 7.8125 -10.078125 C 7.519531 -10.859375 6.910156 -11.375 5.984375 -11.625 C 5.140625 -11.625 4.3125 -11.519531 3.5 -11.3125 Z M 3.5 -6.4375 "/></g></g></g><g fill="#f6c55d" fill-opacity="1"><g transform="translate(218.46348, 209.271562)"><g><path d="M 3.390625 -12.3125 L 3.390625 0 L 1.671875 0 L 1.671875 -12.3125 Z M 3.390625 -12.3125 "/></g></g></g><g fill="#f6c55d" fill-opacity="1"><g transform="translate(223.522066, 209.271562)"><g><path d="M 8.234375 -2.921875 L 12.34375 -12.3125 L 14.25 -12.3125 L 14.9375 0 L 13.03125 0 L 12.53125 -10.578125 L 12.453125 -10.578125 L 7.765625 0 L 7.515625 0 L 2.921875 -10.15625 L 2.84375 -10.15625 L 2.34375 0 L 1.53125 0 L 2.21875 -12.3125 L 3.9375 -12.3125 Z M 8.234375 -2.921875 "/></g></g></g><g fill="#f6c55d" fill-opacity="1"><g transform="translate(240.055436, 209.271562)"><g><path d="M 7.265625 -12.53125 C 8.878906 -12.53125 10.210938 -12 11.265625 -10.9375 C 12.316406 -9.882812 12.84375 -8.414062 12.84375 -6.53125 C 12.84375 -5.3125 12.628906 -4.242188 12.203125 -3.328125 C 11.785156 -2.421875 11.238281 -1.722656 10.5625 -1.234375 C 9.238281 -0.265625 7.773438 0.21875 6.171875 0.21875 C 4.578125 0.21875 3.253906 -0.316406 2.203125 -1.390625 C 1.148438 -2.460938 0.625 -3.9375 0.625 -5.8125 C 0.625 -6.789062 0.765625 -7.675781 1.046875 -8.46875 C 1.328125 -9.257812 1.691406 -9.898438 2.140625 -10.390625 C 2.597656 -10.890625 3.125 -11.304688 3.71875 -11.640625 C 4.8125 -12.234375 5.992188 -12.53125 7.265625 -12.53125 Z M 3.53125 -2.125 C 3.851562 -1.570312 4.285156 -1.144531 4.828125 -0.84375 C 5.378906 -0.539062 6.007812 -0.390625 6.71875 -0.390625 C 7.4375 -0.390625 8.070312 -0.566406 8.625 -0.921875 C 9.1875 -1.285156 9.617188 -1.757812 9.921875 -2.34375 C 10.554688 -3.507812 10.875 -4.757812 10.875 -6.09375 C 10.875 -7.75 10.546875 -9.078125 9.890625 -10.078125 C 9.160156 -11.203125 7.953125 -11.765625 6.265625 -11.765625 C 5.066406 -11.347656 4.15625 -10.625 3.53125 -9.59375 C 2.914062 -8.5625 2.609375 -7.394531 2.609375 -6.09375 C 2.609375 -4.507812 2.914062 -3.1875 3.53125 -2.125 Z M 3.53125 -2.125 "/></g></g></g><g fill="#f6c55d" fill-opacity="1"><g transform="translate(253.538783, 209.271562)"><g><path d="M 3.390625 -12.3125 L 3.390625 0 L 1.671875 0 L 1.671875 -12.3125 Z M 3.390625 -12.3125 "/></g></g></g><g fill="#f6c55d" fill-opacity="1"><g transform="translate(258.597369, 209.271562)"><g><path d="M 11.03125 0.203125 L 10.703125 0.203125 L 2.5625 -9.984375 L 2.484375 -9.984375 L 2.484375 0 L 1.671875 0 L 1.671875 -12.3125 L 3.046875 -12.3125 L 10.140625 -3.359375 L 10.203125 -3.359375 L 10.203125 -12.3125 L 11.03125 -12.3125 Z M 11.03125 0.203125 "/></g></g></g><g fill="#f6c55d" fill-opacity="1"><g transform="translate(271.299612, 209.271562)"><g><path d="M 1.671875 0 L 1.671875 -12.3125 L 9.125 -12.3125 L 8.9375 -11.0625 L 5.484375 -11.640625 C 4.878906 -11.640625 4.210938 -11.535156 3.484375 -11.328125 L 3.484375 -6.8125 L 7.609375 -6.8125 L 7.609375 -6.09375 L 3.484375 -6.09375 L 3.484375 -0.671875 L 9.234375 -1.25 L 9.0625 0 Z M 1.671875 0 "/></g></g></g></svg>
