<svg width="64" height="64" viewBox="0 0 64 64" fill="none" xmlns="http://www.w3.org/2000/svg">
  <!-- Main qui plante/investit -->
  <path d="M18 32 L18 38 C18 40 19 42 21 42 L24 42" stroke="#2C3E50" stroke-width="1.5" stroke-linecap="round"/>
  <path d="M24 28 L24 42" stroke="#2C3E50" stroke-width="1.5" stroke-linecap="round"/>
  <path d="M28 26 L28 42" stroke="#2C3E50" stroke-width="1.5" stroke-linecap="round"/>
  <path d="M32 28 L32 42" stroke="#2C3E50" stroke-width="1.5" stroke-linecap="round"/>
  <path d="M36 30 L36 40" stroke="#2C3E50" stroke-width="1.5" stroke-linecap="round"/>
  <path d="M18 42 L36 42 L36 48 L18 48 Z" stroke="#2C3E50" stroke-width="1.5" stroke-linejoin="round" fill="none"/>
  
  <!-- Graine/Pièce plantée -->
  <circle cx="27" cy="22" r="4" stroke="#B8935F" stroke-width="2" fill="none"/>
  <path d="M26 21 L28 21 M27 20 L27 24" stroke="#B8935F" stroke-width="1.5" stroke-linecap="round"/>
  
  <!-- Pousse qui grandit -->
  <path d="M40 48 L40 36" stroke="#B8935F" stroke-width="2" stroke-linecap="round"/>
  <path d="M36 40 Q38 38 40 36 Q42 38 44 40" stroke="#B8935F" stroke-width="1.5" stroke-linecap="round" fill="none"/>
  
  <!-- Feuilles -->
  <path d="M40 40 Q36 38 34 42" stroke="#B8935F" stroke-width="1.5" stroke-linecap="round" fill="none"/>
  <path d="M40 40 Q44 38 46 42" stroke="#B8935F" stroke-width="1.5" stroke-linecap="round" fill="none"/>
  <path d="M40 44 Q36 42 34 46" stroke="#B8935F" stroke-width="1.5" stroke-linecap="round" fill="none"/>
  <path d="M40 44 Q44 42 46 46" stroke="#B8935F" stroke-width="1.5" stroke-linecap="round" fill="none"/>
  
  <!-- Fleur/Résultat -->
  <circle cx="40" cy="32" r="3" stroke="#B8935F" stroke-width="1.5" fill="none"/>
  <circle cx="37" cy="30" r="2" stroke="#B8935F" stroke-width="1" fill="none" opacity="0.6"/>
  <circle cx="43" cy="30" r="2" stroke="#B8935F" stroke-width="1" fill="none" opacity="0.6"/>
  <circle cx="38" cy="35" r="2" stroke="#B8935F" stroke-width="1" fill="none" opacity="0.6"/>
  <circle cx="42" cy="35" r="2" stroke="#B8935F" stroke-width="1" fill="none" opacity="0.6"/>
  
  <!-- Sol -->
  <line x1="14" y1="50" x2="50" y2="50" stroke="#2C3E50" stroke-width="2" stroke-linecap="round"/>
  <line x1="16" y1="54" x2="48" y2="54" stroke="#2C3E50" stroke-width="1.5" stroke-linecap="round" opacity="0.5"/>
</svg>
