<?xml version="1.0" encoding="UTF-8"?> <svg xmlns="http://www.w3.org/2000/svg" xmlns:xlink="http://www.w3.org/1999/xlink" viewBox="0 0 571.91 118.16"><defs><style> .cls-1 { fill: none; } .cls-2 { fill: #e3e3e2; } .cls-3 { isolation: isolate; } .cls-4 { fill: #ed1c24; } .cls-5 { mix-blend-mode: multiply; } .cls-6 { clip-path: url(#clippath-1); } .cls-7 { fill: #e20613; } .cls-8 { fill: #fff; } .cls-9 { fill: #878787; } .cls-10 { fill: #6b6b6b; } .cls-11 { clip-path: url(#clippath); } </style><clipPath id="clippath"><rect class="cls-1" x="52.1" y="0" width="66.06" height="71.2"></rect></clipPath><clipPath id="clippath-1"><rect class="cls-1" x="20.54" y="63.82" width="53.77" height="32.44"></rect></clipPath></defs><g class="cls-3"><g id="Calque_1" data-name="Calque 1"><g><rect class="cls-8" y="0" width="118.16" height="118.16" rx="12.05" ry="12.05"></rect><g><g><path class="cls-7" d="M48.61.58c-3.97,24.95,5.29,41.42,9.93,47.88.42,0,.85.02,1.27.05,14.05.57,38.33,4.52,58.34,22.68V11.48C118.16,5.14,113.02,0,106.68,0h-57.97l-.1.58Z"></path><path class="cls-7" d="M117.71,93.59c-.5-.72-1.02-1.42-1.57-2.12-12.15-15.72-27.77-22.88-41.82-25.85-4.99-1.07-9.78-1.6-14.15-1.8-6.89,9.58-19.84,24.1-39.63,32.44-5.89,2.52-12.4,4.44-19.54,5.54l-1,.17v4.71c0,6.34,5.14,11.48,11.48,11.48h95.2c6.34,0,11.48-5.14,11.48-11.48v-12.44l-.45-.66Z"></path><path class="cls-7" d="M.5,86.4c5.86-1.05,11.18-2.79,16.02-4.97,13.52-6.14,23.18-15.87,29.49-24.2C39.25,47.75,29.3,28.41,33.19.14l.02-.13H11.48C5.14,0,0,5.14,0,11.48v75.02l.5-.1Z"></path><g class="cls-5"><g class="cls-11"><path class="cls-2" d="M118.16,71.2v-11.13c-15.57-9.37-31.67-12.32-41.78-13.18C72.18,40.32,64.18,23.86,68.89,0h-15.58c-3.56,21.5,1.31,37.97,6.5,48.52,14.05.57,38.33,4.52,58.35,22.68"></path></g></g><g class="cls-5"><g class="cls-6"><path class="cls-2" d="M20.54,96.26c25.98-3.97,43.84-19.36,53.77-30.64-4.99-1.07-9.78-1.6-14.15-1.8-6.89,9.58-19.84,24.1-39.63,32.44"></path></g></g></g><g><path class="cls-10" d="M180.96,54.62c.07,11.67-9.33,16.62-18.95,16.62-5.9,0-10.93-1.52-14.58-4.37l-.74-.52,4.45-8.09.66.44.29.22c2.71,2.12,6.35,3.72,10.43,3.72,4.88-.07,8.97-2.11,8.97-6.91,0-4.09-3.08-5.69-7.01-7.45l-4.43-1.82c-6.34-2.7-11.74-6.78-11.74-15.09v-.07c.07-8.96,7.51-15.59,17.64-15.59,5.32,0,10.13,1.24,13.92,3.92l.73.51-4.67,8.1-.58-.43-.3-.31c-2.76-2.26-5.54-3.28-9.11-3.28-6.2.07-8.02,3.36-8.09,6.34v.22c.07,3.43,2.99,5.1,6.42,6.57l4.44,1.88c6.55,2.71,12.31,6.85,12.24,15.38Z"></path><path class="cls-10" d="M236.98,16.5v26.98c0,15.22-9.34,27.69-24.71,27.76-15.37-.07-24.7-12.53-24.77-27.76v-26.98h9.33v26.98c.08,10.56,5.1,18.72,15.45,18.72s15.38-8.16,15.38-18.72v-26.98h9.34Z"></path><path class="cls-10" d="M392.19,16.41c-12.97,44.02-24.41,53.85-24.41,53.85h-6.64s-11.44-9.83-24.42-53.85h10.51s7.14,27.47,17.27,43.36c10.06-15.89,17.18-43.36,17.18-43.36h10.51Z"></path><path class="cls-10" d="M408.6,25.18v12.97h21.94v8.67h-21.94v14.8h27.84v8.67h-37.1V16.43h37.1v8.75h-27.84Z"></path><path class="cls-10" d="M481.68,69.57c-11.38-25.3-27.4-39.87-27.4-39.87v40.59h-9.33V16.43h8.6s15.46,10.8,29.88,35.64V16.43h9.33v53.86h-10.21c-.58,0-.66-.29-.86-.72Z"></path><path class="cls-10" d="M510.68,16.43v53.86h-9.25V16.43h9.25Z"></path><path class="cls-10" d="M553.55,55.5c6.41,6.41,13.27,6.91,17.7,6.91h.66v8.68h-.95c-8.73,0-16.54-1.02-24.77-9.63l-10.64-11.07h-7.07v19.89h-9.34V16.43h19.76c9.62,0,17.27,7.22,17.34,16.99,0,6.84-3.86,12.47-9.41,15.15l6.71,6.93ZM528.48,41.72h9.76c4.89,0,8.67-3.42,8.67-8.3s-3.79-8.23-8.67-8.23h-9.76v16.54Z"></path><path class="cls-10" d="M346.19,69.64c-5.23-17.82-13.47-42.38-24.02-53.01l-.2-.2h-6.71l-.2.2c-9.13,9.22-16.54,28.91-21.77,45.59-3.99-.52-8.8-2.05-13.39-6.63l-6.73-6.94c5.57-2.66,9.4-8.29,9.4-15.2-.02-9.78-7.74-17-17.32-17.01h-19.8v53.94h9.32v-19.94h7.09l10.64,11.12c7.95,8.29,15.53,9.52,23.91,9.61h.07s4.61,0,4.61,0c1.43-5.13,2.96-10.87,4.68-16.03h25.7c1.71,5.13,2.88,9.73,4.3,14.86l.14.5h10.52l-.25-.86ZM264.55,41.77h-9.78v-16.59h9.78c4.93.03,8.71,3.47,8.72,8.25-.02,4.87-3.79,8.3-8.72,8.34ZM308.63,47c2.62-7.56,6.33-14.91,9.99-20.14,3.67,5.23,7.36,12.58,9.99,20.14h-19.98Z"></path></g><g><g><path class="cls-4" d="M410.45,95.01c1.69-.81,2.85-2.51,2.85-4.61,0-2.96-2.35-5.15-5.25-5.15h-6v16.33h2.83v-6.03h2.14l3.23,3.36c2.5,2.61,4.87,2.91,7.52,2.91h.29v-2.63h-.2c-1.35,0-3.42-.15-5.37-2.09l-2.04-2.1ZM404.88,87.9h2.96c1.5,0,2.64,1.05,2.64,2.5,0,1.48-1.15,2.52-2.64,2.52h-2.96v-5.02Z"></path><path class="cls-4" d="M400.63,101.32c-1.58-5.38-4.07-12.8-7.26-16.01l-.06-.06h-2.02l-.06.06c-3.19,3.21-5.67,10.63-7.26,16.01l-.08.26h3.18l.04-.15c.43-1.55.78-2.94,1.3-4.49h7.77c.51,1.55.87,2.94,1.3,4.49l.04.15h3.18l-.08-.26ZM395.32,94.48h-6.03c.79-2.28,1.91-4.5,3.02-6.08,1.11,1.58,2.23,3.8,3.02,6.08Z"></path><path class="cls-4" d="M419.51,101.56h2.82v-16.33h-2.82v16.33ZM426.34,93.09l8.93-7.87h-3.78l-9.01,7.94,5.49,5.73c2.5,2.61,4.87,2.91,7.52,2.91h.29v-2.63h-.2c-1.35,0-3.43-.16-5.38-2.1l-3.86-3.98Z"></path><path class="cls-4" d="M466.76,101.33c-1.58-5.38-4.07-12.8-7.26-16.01l-.06-.06h-2.03l-.06.06c-3.19,3.21-5.68,10.63-7.26,16.01l-.08.26h3.18l.04-.15c.43-1.55.78-2.94,1.3-4.49h7.77c.52,1.55.87,2.94,1.3,4.49l.04.15h3.18l-.08-.26ZM461.45,94.49h-6.03c.79-2.28,1.91-4.5,3.02-6.08,1.11,1.58,2.22,3.8,3.01,6.08Z"></path><polygon class="cls-4" points="448.78 87.86 448.78 85.21 437.53 85.21 437.53 101.54 448.78 101.54 448.78 98.91 440.35 98.91 440.35 94.42 447 94.42 447 91.79 440.35 91.79 440.35 87.86 448.78 87.86"></polygon></g><g><path class="cls-9" d="M158.43,87.88c-.34-.14-.61-.2-.75-.25-1.02-.3-2.23-.48-3.21-.48-3.87,0-6.37,2.48-6.37,6.28s2.43,6.26,6.12,6.26c1.02,0,1.64-.14,2.55-.5v-6.71h2.66v8.39c-.39.14-.71.23-.91.32-1.34.43-2.91.71-4.3.71-5.46,0-8.94-3.3-8.94-8.4-.02-5.23,3.55-8.64,9.05-8.64.91,0,1.84.09,2.75.3.66.14,1.05.27,1.98.61l-.64,2.11Z"></path><path class="cls-9" d="M162.55,101.6v-12.24h2.39v1.89c.79-1.43,1.82-2.09,3.25-2.09.43,0,.75.07,1.43.32l-.71,2.32c-.41-.11-.59-.14-.91-.14-1.09,0-1.82.36-2.32,1.16-.41.66-.52,1.25-.52,2.8v5.98h-2.62Z"></path><path class="cls-9" d="M176.17,89.09c3.62,0,6.1,2.57,6.1,6.37s-2.48,6.37-6.1,6.37-6.1-2.59-6.1-6.35,2.46-6.39,6.1-6.39ZM172.76,95.46c0,2.57,1.36,4.32,3.41,4.32s3.41-1.75,3.41-4.32-1.36-4.35-3.41-4.35-3.41,1.75-3.41,4.35Z"></path><path class="cls-9" d="M195.46,89.36v7.21c0,1.3-.25,2.41-.75,3.19-.84,1.3-2.55,2.11-4.46,2.11s-3.78-.86-4.64-2.14c-.52-.79-.79-1.87-.79-3.21l.02-7.23h2.62v7.05c0,2.16.93,3.32,2.71,3.32s2.73-1.18,2.73-3.28l-.02-7.03h2.59Z"></path><path class="cls-9" d="M198.6,106.19v-16.83h2.46v1.95c.23-.38.37-.57.57-.77.84-.91,2.07-1.46,3.37-1.46,3.09,0,5.12,2.5,5.12,6.32s-2.14,6.41-5.21,6.41c-1.57,0-2.77-.61-3.68-1.91v6.28h-2.62ZM201.17,95.43c0,2.55,1.28,4.25,3.21,4.25s3.09-1.68,3.09-4.23-1.21-4.21-3.09-4.21-3.21,1.66-3.21,4.19Z"></path><path class="cls-9" d="M214.78,96.28c.2,2.23,1.61,3.5,3.91,3.5.91,0,1.59-.18,2.98-.68l.8,1.77c-.37.14-.61.25-.8.34-.96.36-2.14.59-3.21.59-3.78,0-6.3-2.55-6.3-6.3s2.34-6.39,5.69-6.39,5.33,2.41,5.33,6.42c0,.18,0,.41-.02.75h-8.37ZM214.78,94.39h5.94c-.11-2.09-1.16-3.3-2.87-3.3s-2.84,1.23-3.07,3.3Z"></path><path class="cls-9" d="M243.85,87.84c-1.39-.5-2.39-.71-3.64-.71-3.66,0-6.05,2.44-6.05,6.23s2.48,6.23,6.14,6.23c1.07,0,2.11-.16,3.5-.59l.66,2.09c-1.55.57-2.64.77-4.23.77-5.37,0-8.87-3.32-8.87-8.42s3.44-8.53,8.58-8.53c1.66,0,2.89.23,4.53.84l-.61,2.07Z"></path><path class="cls-9" d="M246.49,101.6v-12.24h2.39v1.89c.79-1.43,1.82-2.09,3.25-2.09.43,0,.75.07,1.43.32l-.71,2.32c-.41-.11-.59-.14-.91-.14-1.09,0-1.82.36-2.32,1.16-.41.66-.52,1.25-.52,2.8v5.98h-2.62Z"></path><path class="cls-9" d="M256.61,96.28c.2,2.23,1.61,3.5,3.91,3.5.91,0,1.59-.18,2.98-.68l.8,1.77c-.37.14-.61.25-.8.34-.96.36-2.14.59-3.21.59-3.78,0-6.3-2.55-6.3-6.3s2.34-6.39,5.69-6.39,5.33,2.41,5.33,6.42c0,.18,0,.41-.02.75h-8.37ZM256.61,94.39h5.94c-.11-2.09-1.16-3.3-2.87-3.3s-2.84,1.23-3.07,3.3ZM258.09,87.29l2.68-3.78,2.11,1.36-3.21,3.44-1.59-1.02Z"></path><path class="cls-9" d="M275.9,83.76h2.59v17.83h-2.37l-.05-1.93c-.93,1.43-2.21,2.16-3.89,2.16-3.14,0-5.12-2.43-5.12-6.23-.02-3.87,2.09-6.49,5.16-6.49,1.52,0,2.71.59,3.66,1.84v-7.19ZM269.71,95.5c0,2.57,1.18,4.19,3.09,4.19s3.14-1.64,3.14-4.19-1.23-4.23-3.18-4.23-3.05,1.64-3.05,4.23Z"></path><path class="cls-9" d="M281.52,87.65v-3.07h2.8v3.07h-2.8ZM281.61,101.6v-12.24h2.62v12.24h-2.62Z"></path><path class="cls-9" d="M285.68,91.38v-2.02h1.96v-3.09h2.62v3.09h2.71v2.02h-2.71v6.1c0,.41,0,.7.02.86.07.91.68,1.39,1.77,1.39.41,0,.66-.04,1.23-.23l.41,1.84c-1,.32-1.43.43-2.25.43-1.27,0-2.23-.36-2.93-1.05-.64-.64-.86-1.36-.86-2.91v-6.44h-1.96Z"></path><path class="cls-9" d="M300.97,101.6v-16.4h4l4.59,11.78c.2.5.34,1.48.41,2.59.07-1.07.23-2.12.41-2.59l4.62-11.78h3.98v16.4h-2.62l.02-11.94c0-.41.14-1.46.27-2.5-.16.66-.2.87-.39,1.39-.14.43-.25.73-.37,1l-4.71,12.06h-2.46l-4.69-12.06c-.14-.27-.25-.57-.38-1-.18-.52-.2-.73-.39-1.39.14,1.02.27,2.07.27,2.5l.02,11.94h-2.62Z"></path><path class="cls-9" d="M332.72,89.36v7.21c0,1.3-.25,2.41-.75,3.19-.84,1.3-2.55,2.11-4.46,2.11s-3.78-.86-4.64-2.14c-.52-.79-.79-1.87-.79-3.21l.02-7.23h2.62v7.05c0,2.16.93,3.32,2.71,3.32s2.73-1.18,2.73-3.28l-.02-7.03h2.59Z"></path><path class="cls-9" d="M334.22,91.38v-2.02h1.96v-3.09h2.62v3.09h2.71v2.02h-2.71v6.1c0,.41,0,.7.02.86.07.91.68,1.39,1.77,1.39.41,0,.66-.04,1.23-.23l.41,1.84c-1,.32-1.43.43-2.25.43-1.27,0-2.23-.36-2.93-1.05-.64-.64-.86-1.36-.86-2.91v-6.44h-1.96Z"></path><path class="cls-9" d="M354.02,89.36v7.21c0,1.3-.25,2.41-.75,3.19-.84,1.3-2.55,2.11-4.46,2.11s-3.78-.86-4.64-2.14c-.52-.79-.79-1.87-.79-3.21l.02-7.23h2.62v7.05c0,2.16.93,3.32,2.71,3.32s2.73-1.18,2.73-3.28l-.02-7.03h2.59Z"></path><path class="cls-9" d="M359.25,96.28c.2,2.23,1.61,3.5,3.91,3.5.91,0,1.59-.18,2.98-.68l.8,1.77c-.37.14-.61.25-.8.34-.96.36-2.14.59-3.21.59-3.78,0-6.3-2.55-6.3-6.3s2.34-6.39,5.69-6.39,5.33,2.41,5.33,6.42c0,.18,0,.41-.02.75h-8.37ZM359.25,94.39h5.94c-.11-2.09-1.16-3.3-2.87-3.3s-2.84,1.23-3.07,3.3Z"></path><path class="cls-9" d="M370.21,101.6v-17.83h2.62v17.83h-2.62Z"></path></g></g></g></g></g></g></svg> 