<svg xmlns="http://www.w3.org/2000/svg" xmlns:xlink="http://www.w3.org/1999/xlink" viewBox="0 0 564.5 90.2"><defs><path id="a" d="M0 0h564.5v90.2H0z"/></defs><clipPath id="b"><use xlink:href="#a" overflow="visible"/></clipPath><path d="M153.6 32.4l6-13.8c-5.6-4.4-12.5-7.2-22.9-7.2-20.6 0-35 15.6-35 34.7v.2c0 19.3 14.7 34.5 34.4 34.5 10.7 0 17.8-3.2 23.9-8.5l-5.7-12.9-.1-.1c-5.3 4.8-10 7.9-17.6 7.9-11.5 0-19.5-9.6-19.5-21.1v-.2c0-11.5 8.1-20.9 19.5-20.9 6.7 0 11.9 2.8 17 7.4" clip-path="url(#b)" fill="#585757"/><defs><path id="c" d="M0 0h564.5v90.2H0z"/></defs><clipPath id="d"><use xlink:href="#c" overflow="visible"/></clipPath><path clip-path="url(#d)" fill="#585757" d="M312.1 79.6V12.5h-16l-17.6 40.9-17.6-40.9H245v67.1h14.4V43.8l15.7 35.8h6.4l15.9-36.1v36.1z"/><defs><path id="e" d="M0 0h564.5v90.2H0z"/></defs><clipPath id="f"><use xlink:href="#e" overflow="visible"/></clipPath><path d="M385.9 41h-23.7l-5.5 12.6v.1h14.9v9.6c-3.7 2.7-8.5 4-13.9 4-11.9 0-20.3-9-20.3-21.3v-.2c0-11.4 8.5-20.9 19.3-20.9 4.5 0 7.9.9 11 2.4l5.7-13.1c-4.5-1.9-9.6-2.9-16.3-2.9-20.3 0-35.2 15.6-35.2 34.7v.2c0 19.8 14.4 34.5 35.3 34.5 12.3 0 21.8-4.8 28.7-10.6V41z" clip-path="url(#f)" fill="#585757"/><defs><path id="g" d="M0 0h564.5v90.2H0z"/></defs><clipPath id="h"><use xlink:href="#g" overflow="visible"/></clipPath><path clip-path="url(#h)" fill="#585757" d="M412.3 66.5V52.4h26.1l5.6-12.8v-.3h-31.7V25.7h30.2l5.8-13.2h-50.6v67.1h45.4l5.7-12.9v-.2z"/><defs><path id="i" d="M0 0h564.5v90.2H0z"/></defs><clipPath id="j"><use xlink:href="#i" overflow="visible"/></clipPath><path d="M470.1 30.7v-.2c0-3.3 3-5.8 8.6-5.8 5.7 0 11.5 2.5 17.4 6.6l5.5-12.7c-6.4-4.5-14-6.9-22.8-6.9-13.7 0-23.5 8.1-23.5 20.2v.2c0 13.3 8.7 17.1 22.2 20.5 11.2 2.9 13.5 4.8 13.5 8.5v.2c0 3.9-3.6 6.3-9.7 6.3-7.3 0-13.4-2.9-19.2-7.5L456.5 73c7.3 5.1 16 7.7 24.5 7.7 14.5 0 24.6-7.5 24.6-20.8v-.3c0-11.7-7.7-16.6-21.3-20.1-11.3-3-14.2-4.4-14.2-8.8" clip-path="url(#j)" fill="#585757"/><defs><path id="k" d="M0 0h564.5v90.2H0z"/></defs><clipPath id="l"><use xlink:href="#k" overflow="visible"/></clipPath><path clip-path="url(#l)" fill="#585757" d="M515 12.5l-5.9 13.7h20.3v53.4h14.7V26.2h14.6l5.8-13.5v-.2z"/><defs><path id="m" d="M0 0h564.5v90.2H0z"/></defs><clipPath id="n"><use xlink:href="#m" overflow="visible"/></clipPath><path d="M216.8 14.7l-5.7 13c6.2 3.7 10.1 10.6 10.1 18.4v.2c0 11.5-8.3 20.9-20.2 20.9-2.4 0-4.6-.4-6.6-1.1l-5.6 12.8c3.7 1.2 7.7 1.9 12 1.9 20.7 0 35.8-15.6 35.8-34.7v-.2c.1-13.8-7.7-25.7-19.8-31.2" clip-path="url(#n)" fill="#585757"/><defs><path id="o" d="M0 0h564.5v90.2H0z"/></defs><clipPath id="p"><use xlink:href="#o" overflow="visible"/></clipPath><path d="M180.7 46.1v-.2c0-11.5 8.3-20.9 20.2-20.9 2 0 4 .3 5.8.8l5.6-12.8c-3.5-1-7.2-1.6-11.2-1.6-20.7 0-35.8 15.6-35.8 34.7v.2c0 13.5 7.4 25.1 19.1 30.8l5.7-13.1c-5.8-3.8-9.4-10.4-9.4-17.9" clip-path="url(#p)" fill="#585757"/><defs><path id="q" d="M0 0h564.5v90.2H0z"/></defs><clipPath id="r"><use xlink:href="#q" overflow="visible"/></clipPath><path d="M81.1 44.2v-.5c0-.4 0-.8-.1-1.2-.5-7.6-3.2-14.6-7.5-20.4l-.5.3h-.2l-.2.2-.6.5-.5.4-.3.1H71l-.2.2h-.1l-.2.3v.4l-.1.2v.4l-.1.1v.4l-.1.2v.4l.3.3.2.3v.3h.7l.2-.1h.8l.8.1h.4v.1l-.1.1v.2l.4.2h.2v.2l-1-.1-.1.2-.1.1h-.2l-.3-.1-.5-.4h-.6l-.5.1-.1.4v.5l.1.1h.2l-.2.4-.1.5-.1.1h-.3l-.1-.1v-.3l-.2-.4-.4.1-.6.6-.1.2-.1.3v.7l-.1.1h-.3l-.2.1-.2.1-.2.1h-.4l-.1-.3-.2-.2h-.4l-.7.2-.8.1h-.1l-.1.1v-.4l-.1-.1-.1-.2h-.2l-.2.1h-.3l-.1.1h-.1l-.1-.1v-.2l-.2-.1-.1-.1h-.1v-.9l.1-.1h.1l.1-.1.1-.1.1-.1h.1l.1-.1v-.2l-.1-.1v-.2l.1-.3.1-.1v-.4H64l-.3.1-.4.1-.2.1-.1.6-.1.6v.2l.1.1v1.1l-.1.1-.3.2h-.2v-.1h-.3l-.1.1h-.1l-.1-.1-.4-.1-.2.1-.3.2-.1.1-.2.3-.3.2v.3h-.1v.1H60l-.4.1h-.3l-.2.1-.1.3-.3.1h-.3l-.4.3h-.2l-.4-.2-.1-.2-.1-.1-.2.1v.6h-.5l-.2-.2h-.9l-.1.1v.3l.1.2.2.1.3.2.2.2.1.1.1.1v.3l.1.2.2.2v.2l-.1.1v.8l-.1.1-.2.5-.1.1h-.2l-.8-.3-.4-.1-.6-.3-.4-.1-.3-.2h-.2l-.2.1-.4.1-.2.1v.1l.1.2v.5l-.1.5-.3.6-.3.3-.1.3v.1l.1.1v.7l.3.2h.5l.2.1.1.1v.3l.3.1h.6l1 .1.3-.2.2-.1h.2l.1-.1.2-.2.2-.1.1-.1-.1.1v-.2l.1-.1.7-.6.1-.1h.5l.5-.2.1-.1v-.7l.1-.2.4-.1.3.2h.2l.4.3h.2l.3-.2.2-.1h.3l.2-.2h.2l.1.1.4.4v.6l.2.3.1.1.1.1.1.1.1.2.1.1.3.6.2.2.2.2.1.1.1.1.1.2.1.2.1.2.1.1v.6l-.1.2v.1l-.1.1v.2h.1l.2-.1.1-.1.2-.1.2-.2v-.2l-.1-.3v-.2l.2-.3h.2l.3.3.1.2.1.1.1-.1-.1-.4-.8-.7v-.1l.1-.1v-.2l-.4-.1h-.1l-.1-.2-.2-.4-.2-.7-.4-.5v-.4l.1-.2v-.2l.1-.1.5-.1h.1v.3l.1.3h.1l.2-.2h.1l.1.2v.7l.2.3.1.2.3.2.2.3v.1l.1.1.2.3.1.1.1.1v.3l-.1.2v.1l-.1.2v.4l.1.1.1.2.1.1.2.5v.1l.1.5-.1.2v.5l.1.1.2.3h.1l.1.1.1-.1v-.4h.1V43l-.1-.1v-.2h.3l.1-.1-.2-.2-.1-.1-.1-.2V42l.1-.1h.1l-.1-.5.1-.3h1.3l.4.3.1.1h.3l.4-.1.6.1.1-.1-.4-.3v-.6l.1-.2.1-.2.1-.1h.2l.1-.2.1-.3.1-.1.4-.1h.1l.1-.1V39l.1-.1.1-.1h.3l.1-.1.2-.2h.4v.4l.3.2h.5l.1.1h.8l.2-.1.3-.1h.2l.3-.1h.5l.2.1v.1l-.4.1h-.3v.5l-.4.2h-.2l.1.2.2.4.6.5.4.6.1.3.3.2.1.2.1.5-.1.2-.1.1H75l-.5-.2-.6-.1h-.2l-.1-.1-.2-.2-.2-.1-.1-.2-.1-.1-.1-.1-.1-.1-.1-.1h-.2l-.6-.2h-.5l-.8.1-.7-.1-.1.1v.2h-.2v.1l-.4-.1h-.1l-.2-.1h-.2l-.2.2-.1.1-.1.2.1.1.1.1.1.3-.1.1h-.3v.1l.3.2v.9l.1.1h.4l.1.1.1.2.1.1.2.1h.3l.2-.2h.2l.4.3.2.3.1.1h.6l.2-.2h.1l.3.2h.1l.1-.1h.2l.1.1-.1.1-.4.3v.2l-.1.4-.1.1-.1.1-.5.6-.4.6-.1.1-.1.1-.2.1-.3.1h-.4l-.1-.1-.1-.1v-.1l-.1-.1-.1-.1-.2-.1H68l-.9-.4-.4-.2-.2-.2-.1-.1-.1-.1-.5-.2-.2-.1-.1-.1v-.1l-.1-.1-.3-.2-.5-.1-.6.3v.4l-.2.2-.2.1h-.3l-.1-.1-.1-.3-.2-.2-.7-.3h-.1l-.1-.3V45l-.5-.4-.3-.1-.4-.1-.4-.3-.1-.1-.1-.2-.1-.1-.1-.1h-.1l-.1-.1v-.2l.1-.1.1-.1.4-.2.2-.2v-.2l-.1-.2v-.8l-.2-.1h-.2l-.4.2-.4-.1-.2-.2-.2-.1h-.7l-.2-.1-.5-.1h-.7l-.6-.1-.5.1h-.6l-.3.2h-.3l-.2-.1h-.1l-.2-.2-.6-.1-.3-.2h-.3l-.3.5-.2.2-.3.2-.6.1-.5.3-.1.2-.1.1-.2.2-.1.4v.4l-.4.1-.2.2-.5.2-.3.1-.5.1-.1.1-.2.2-.2.1-.3.2-.2.1-.4.4-.5.5-.3.3-.1.1-.2.2-.1.1-.2.2-.1.4v.1l.1.3v.8l-.1.4-.4.6-.1.3-.2.3-.1.1v.1l.1.5v.1l-.1.1v.1l-.1.3v.1l.1.1.2.2.2.4.1.2.1.2v.2l.1.2.1.2.1.2v.5l.1.1.1.2.1.1.4.3.2.3.2.2.4.6.3.3.4.2h.1l.6-.1h.6l.4.1.3.2.5.2h.7l.4-.1h1l.4.1.7.2.2.2v.1l.1.2v.3l.1.2.1.1h.2l.6.1h.4l.3.3.1.1.1.2v.2l-.2.5-.2.3v.1l-.1.1-.2.3-.2.3-.1.1v.1l.1.5.2.4.4.6.1.1.1.1.2.5v.6l.1.4v.6l-.1.2-.3.5v.4l.1.3v.3l-.1.3-.1.2-.2.2-.4.2-.1.2-.3.6-.2.2-.1.1-.1.3v.1l-.1.3v.4l.2.7.1.8.2.9-.1.8v.5l-.1.4v.9l.1.4.2.4.1.3.1.8.2.8-.1.3-.1.1-.2.2v.7l.4.3.2.1h.8l.4-.1.3.1h.3l.5.2h1.1l.8-.4.6-.4.3-.2.9-.9.6-.3.4-.8v-.5l.1-.1.4-.1h.6l.1-.1.6.1.1-.1.1-.3.1-.5v-1l.1-.2.1-.1.6-.3h.2l.2-.2h.1l.1-.1.3-.1.4-.1h.5l.3-.1.1-.1h.1l.1-.1.3-.2.1-.1v-.1l.1-.2v-.4l.1-.5v-.2l.1-.5.2-.3v-.4l-.2-.3V67l.1-.3-.2-.4v-.1l.4-.6.2-.1.5-.7h.1l.1-.1.1-.1.1-.1.2-.1.6-.4.1-.1.1-.1.4-.2.8-.4.5-.1.4-.3.7-.4.4-.3.3-.3.2-.4.4-.4.1-.1.1-.1.4-.3.3-.5v-.1l.1-.1.1-.2.1-.1v-.2l-.3.3-.3.1h-1l-.4-.1h-1.1l-.3-.1-.1-.1-.3-.5v-.1l.1-.1.1-.2-.1-.2-.2-.4-.1-.2-.1-.1v-.1l-.1-.1-.2-.3-.2-.2-.1-.1-.1-.1-.1-.1v.1-.1l-.1-.1v-.1l-.1-.2v-.8l-.1-.3V55l-.1-.1-.1-.1-.2-.1.1-.1v-.5l.2-.6v-.4l-.3-.5-.2-.2-.1-.2v-.5l.1-.1-.2-1.2v-.6l.1-.1.2-.1h.2l.2.1.1.5.1.3.1.4.1.3v.4l.1.2.2.1.2.3.1.8-.1.2.1.6.3.4.1.4.1.4.1.4.1.3.1.2.1.3v.1l-.1.2v1.4l.1.2.2.1.5.1.3-.1H75l.2-.2.3-.1h1.1l.2-.1.1-.1.1-.1.4-.1h1.2l.1-.1.2-.1h.4c1.3-3.8 2.1-7.9 2.1-12.2v-.2c-.3-.2-.3-.4-.3-.7" clip-path="url(#r)" fill="#01848a"/><defs><path id="s" d="M0 0h564.5v90.2H0z"/></defs><clipPath id="t"><use xlink:href="#s" overflow="visible"/></clipPath><path clip-path="url(#t)" fill="#01848a" d="M40.1 26.8l.2-.2-.1-.1-.1-.1h-.2v-.1h-.4l-.1-.1-.1-.1V26l.1-.1-.1-.1v-.1h-.1l-.2.2h-.1l.1-.2.3-.3v-.1l.1-.1h.1l.1-.2v-.1h.1l.1-.1h-.5l-.1.1-.1.1-.1.1-.1.1v.1l-.2.2-.1.1-.2.2v.1l-.1.1h-.1v.1h-.1l-.1.2-.1.2.1.1-.5.2v.2l.1.1h.4l.5.2h.4l.3.1.2.1.1.2h.3l.1-.1v-.2l.1-.1.1-.1v-.1L40 27v-.1z"/><defs><path id="u" d="M0 0h564.5v90.2H0z"/></defs><clipPath id="v"><use xlink:href="#u" overflow="visible"/></clipPath><path d="M64.7 22l-.3.1-.1.1h-.2l-.1.1v.2h-.4l-.2.1H63v.3l-.1.1v.2l-.1.1v.4l-.1.1v.5l-.1.1v.2l.1.1h.1l.4-.3h.1l.1.1v.1h-.2l-.1.1v.1l-.3.2-.2.1-.2.1v.1h.3v.2l-.1.1h-.2l-.1.2.3.5h.1v.2h.2l.1.1h.3l.5-.3.3-.3h.3l.2-.1.1.1.1.1v.2l-.1.4v.7l.3.2-.1.3v.1l.1.3.2.4v.1h-.1v.3l.1.4v.2l.4.1.1-.1v-.2l.1-.2h.1l.1-.1.5.2.3-.4.2-.4.1-.2v-.3l.1-.1.1-.3.1-.2v-.1l.1-.1.3-.1h.2l.2-.1.1-.1v-.2l.2-.3-.1-.4V26l-.1-.1v-.2l-.1-.1-.1-.1.1.1v-.2l.1-.6h.1l.1-.1v-.3l.2-.3.1-.2.1-.1v-.1l.1-.1h.1l.1-.1.1-.1.1-.1.1-.1h.1l.3-.1h.1l.5-.2.5-.5h.1l.1-.1v-.5l.2-.3.1-.2.2-.2V21h.1v-.1l.4-.3c-.9-1-1.8-2-2.8-3l-.4.3v.2l-.2.2-.1.1-.1.2h-.1l-.1.1-.1.1-.2.1-.1.1v.3l-.1.1-.3.2v.1l-.1.2h-.1v.1h-.1v.1l-.2.1-.1.2-.3.2-.1.2v.1l-.1.1h-.1l-.5.4-.1.1-.2.1v.1l-.1.1-.2.1h-.4l-.2.1z" clip-path="url(#v)" fill="#01848a"/><defs><path id="w" d="M0 0h564.5v90.2H0z"/></defs><clipPath id="x"><use xlink:href="#w" overflow="visible"/></clipPath><path clip-path="url(#x)" fill="#01848a" d="M59.7 19.8h.2l.2-.2h.1l.1-.1.1-.1.1-.2.1-.1h-.1v-.4l-.1-.1v-.1l-.1-.1v-.2h-.2v-.1l-.1-.2v-.2l-.2-.2h-.1l-.1.2-.2.1h-.3l-.1-.1h-.2l-.1-.1h-.1l-.2.1h-.2l-.1-.1H58v.2l-.2.2v.1h-.4v-.3l.1-.1v-.1l.1-.1h-.1l-.3-.5-.1-.2-.2.2h.1v.1l.1.2v.2l-.1-.1v-.1h-.1v-.1l-.2-.1h-.1l-.1.1v.2l.2.1v.1h-.2l-.1-.2h-.1l-.1.1v.2l.3.1.3-.1.2.1v.2l-.2.2-.1.1h-.5v.1l.5.1.1.4v.2l-.1.1-.1.1h-.1l.1.2.5.1.4.4.5.3h.3l.4-.2.4-.1.5-.2z"/><defs><path id="y" d="M0 0h564.5v90.2H0z"/></defs><clipPath id="z"><use xlink:href="#y" overflow="visible"/></clipPath><path clip-path="url(#z)" fill="#01848a" d="M53.8 29.5h.6v-.1h.4l.1-.1h.4l.2-.1.2-.4.1-.3.1-.1V28l.1-.1h.2l.1-.1v-.3h-.1v-.1l.1-.1-.1-.2-.1-.1h-.3v-.1l-.1-.1-.1.1h-.1v-.1h-.2l-.3.3.1.2-.2.1h-.1l-.4-.1-.2.1v.1l-.1.1v.1l-.1.2.1.2.3.2-.2.1-.1.1-.1.1v.1l-.2.1-.2.1v.2l.1.1v.1h.1v.1z"/><g><defs><path id="A" d="M0 0h564.5v90.2H0z"/></defs><clipPath id="B"><use xlink:href="#A" overflow="visible"/></clipPath><path clip-path="url(#B)" fill="#01848a" d="M58.8 30.6h.1l.1-.1.1-.1.2-.3V30l-.2-.3h-.5v-.1l.1-.2v-.3h.1v-.2l-.2-.6-.2-.2-.1-.4v-.4l-.1-.3-.2-.2v-.3l.1-.1.2-.2.2-.3.2-.1-.1-.3-.5-.2h-.4v-.1l.1-.1h-.1l.1-.1.5-.2.1-.3h-.1l-.8-.1-.1.1-.2.1v.1l-.1.1-.1.1-.1.2v.3l-.2.4-.1.1.1.2v.1l-.1.3v.2l-.2.2.1.1.2-.3v-.2l.1-.1v.2h.2l-.1.2v.2l-.2.3-.1.1v.2l.1.1h.2v-.1h.4v.1l-.1.2.1.4v.5h-.1v.1l-.3-.1-.5.2.1.2.1.1v.1l-.1.2-.5.1v.2l.2.1.1.1h.2l.1.1.3.1-.1.2-.5-.1-.9.5v.1l.1.1h.1l.3-.1.4.1.2-.2h.3l.1.2h.4l.1-.1h.2l.1.1.9.1.2-.1V31l-.2-.1-.1-.2.2-.1z"/><defs><path id="C" d="M0 0h564.5v90.2H0z"/></defs><clipPath id="D"><use xlink:href="#C" overflow="visible"/></clipPath><path d="M44.9 18l.4.2h.1v.1h.1v.5l.2.2h.6l.1-.1.2-.1.2-.6.4-.4.1-.6v-.1l.1-.1h.1l.2-.1h.1v-.2h.2v-.1h.1l.1-.1v-.3l.1-.1v-1.2l.1-.1h.3l.2-.2v-.2h1.5l.1.1h.3l.2-.2h.5l.2-.1.1-.1.1-.1.1-.1.1-.1.1-.1.1-.2v-.2l.9-.5.3.1h.5l.1-.1v-.1h.1l.1.1.7-.1h.5l.1-.1h.3l.4-.1.1-.1.1-.1h.1l.1-.1.2-.1h.2l.1-.1.1-.1.1-.1.1-.1.1-.1s.1-.1.3-.2c.3-.1.9-.2 1.9.1l.3-.1h.3L64.5 2l-4.6-2-2 4.6c-4.7-1.8-9.8-2.7-15.1-2.7C19.3 1.9 0 21.2 0 45c0 16.9 9.7 31.5 23.9 38.6l-2 4.6 4.6 2 4.1-9.4c-.7-.3-1.4-.5-2.1-.8-.8-.4-1.7-.7-2.5-1.1-2.2-1.1-4.3-2.5-6.2-4v-.6l.1-.3.3-.1h.3l.2-.3v-.1l.1-.1.7-.4h.1l.1-.1v-.2l.1-.1v-.3l-.4-.2-.2-.3-.1-.3.1-.1.4-.4h.6l.1-.1.2-.2.1-.4.1-.1v-.4h.1v-.3l.2-.7h.2l.4.3.3.1h.3l.1-.1.1-.4.1-.1v-.3l.1-.1h.2l.3.1.7.1h.6l.2-.1.1-.2.4-.3.1-.1.1-.3-.1-.2v-.4l-.2-.3-.2-.2v-.2l.1-.1h.1l.1.3.3.1.4.3.3.1.3.1.4-.1.4-.4.7-.6.6-.3.5-.4.1-.2.3-.3.3-.2.2-.1.1-.1.2-.5v-.2l.1-.4.2-.3.9-.5.3-.1h.2l.3-.1.5-.1.1.1h.5l.2-.1.4-.1.2-.3.3-.2.2-.3.2-.1.2-.6.2-.2.3-.8.1-.6.2-.5.4-.1.5-.6.5-.2h.1l.6-.5.2-.4.1-.4.1-.2v-.4l-.1-.3-.3-.6-.3-.4-.3-.4-.3-.2-.2-.1-.8-.3-.6-.4-.4-.2v-.2l-.1-.2-.9-.6-.3-.1h-.1l-.3.3h-.4l-.6-.5h-.1v-.2l.8-.5.1-.2-.1-.3-.1-.4v-.5l-.1-.2-.1-.1-.3-.4-.4-.4-.4-.2-.6-.1-.5-.2-.1-.1-.2-.3-.1-.1-.1-.1v-.4l-.3-.4h-.1l-.1-.2h-.3v-.4l-.2-.2-.2-.1-.1-.2-.1-.1H30l-.2.1h-.2l-.2-.1-.3-.4-.8-.2v-.1l-.1-.3-.4-.3h-.5l-.3.1-.1.2.1.3v.2l-.2.1h-.1l-.1-.2v-.3l.2-.2v-.5l.2-.1.1-.1v-.1h-.3l-.2.1-.5.1h-.2l-.2-.1h-.4l-.3.1-.2.4h-.2l-.2.1-.2.1h-.1l-.2-.1-.2-.4-.4-.3h-.2l-.1.1h-.6l-.2-.1-.1-.1-.1-.2v.3l-.2-.3-.1-.4v-.3l.1-.1.3-.8.2-.3.1-.3v-.1l-.4-.3-.4-.2h-.3l-.1-.1h-.4l-.4-.1h-.3v-.2H20v-.1l.2-.1.1-.2.1-.4h.2l.3-.5.1-.2.2-.3.2-.1.1-.1v-.2l-.2-.1h-.1l-.2-.2h-.4l-.4-.1H20l-.2.4-.2.3-.2.1-.4.2-.2-.1h-.2l-.4-.1-.2.1h-.1l-.2-.3h-.1l-.2-.1-.1-.2v-.4l-.1-.3-.2-.3v-.1l.1-.1V36l-.1-.1v-.2l.2-.5.1-.6.1-.1.1-.1.1-.1h.1l.1-.1v-.5l.1-.2.1-.2h.1l.1-.1.1-.1h.6l.1-.1.1-.1.1-.3v.1h.5l.3.2.2.1h.9v-.1h.1l.2.1h.3l.3.1h.1l.1.1h.7v.1l.2.3.1.1h.5l.2.1.1.2v.1l.2.3v.2l-.1.3v.3l.1.3v.2l.1.3.1.1v.3l.1.1h.3l.2-.3.1-.4-.1-.5.1-.3-.1-.7v-.8l.1-.1v-.1l.2-.2.1-.1.2-.1.1-.1h.2l.4-.2v-.1l.3-.2h.4l.2-.2h.5v-.3h.1l.2-.1v-.5l.1-.2-.1-.2v-.3l.1-.1v-.2l.1-.4.3-.1.1-.1.1.1.1.2.2.1h.1l.3-.2.1-.1.1-.1-.1-.2.1-.1.2-.1h.4l.2.1h.8l.1-.1v-.3l.1-.1v-.2l.1-.1.1-.1.3-.3h.4l.2-.2h.3l.2-.3h.4v-.1l.1-.1h1.2l.3.2v.1h-1.2l-.1.1v.1l-.1.2v.2l.1.1.1.1h.2l.1-.1.4-.3.1-.1h.6l.6-.1.1-.1.1-.1v-.1h-.1l-.1-.1h-.3l-.1-.1-.3-.2-.1-.1-.1-.1-.2-.1-.1-.3.1-.2v-.2l.1-.1v-.2l-.1-.1v-.1l.4-.2.1-.1v-.1l-.2-.4-.2-.1h-.4l-.3-.2.1-.3.2-.1h.3l.8.2 1.1.4.1.1.5.1h.1l.2-.1h.1l.3-.2h.1l.2-.1h.8l.5-.3v-.7h.1v-.1l-.1-.2v-.1l-.2-.1-.1-.1H39v-.3l-.1-.2.1-.1v-.1l-.2-.1v-.1l-.1-.1h-.1l-.2-.1v-.3H38l-.1-.1v-.2l-.1-.1v-.1l.2-.4v-.3l-.1-.1V20l.1-.1v-.7l-.1-.2v-.6l-.1-.1v-.5l-.1-.1v-1.4h-.1l-.4.4v.3l-.1.2h-.2v.2h-.1l-.2.1-.4.1h-.1v-.1h-.2v-.3l-.2-.1-.1-.1v-.8l.1-.1v-.3l.1-.2.2-.1v-.2h-.3l-.1-.1-.2-.1-.1-.1-.2-.1v-.3l.1-.1v-.1H35v-.2l-.1-.1v-.2l-.4-.4-.4.1H34l-.1-.1-.8.1-.3-.2-.5-.2h-.1l-.2.2-.1.2v.2l.1.2v.3l-.3.3v1.2h-.1l-.1.1-.1.1-.4.2v.2l.2.4.2.1V18l-.1.6-.1.1-.5.5-.2.1-.8.2v.2l.1.4-.1.8v.3l.1.2-.3.2-.2.1h-.1l-.1.1H29l-.1.1-.2-.1v-.3l-.2-.3V21l-.2-.5v-.3l.1-.4.1-.3.1-.5v-.1l-.1-.1-.2-.2-.9-.3v-.1l-.2-.3-.4-.3h-.3l-.1-.4-.3-.4-.2-.1-.3-.2-.1-.2-.2-.1-.5.1-.1-.1v-.1l.1-.3-.1-.2.1-.3-.1-.4v-.3l-.4-.2-.1-.1-.1-.2v-.2l.2-.7.1-.3.1-.1.1-.2.1-.1.1-.2v-.1l.1-.1-.1-.5h.2c1-.6 2.1-1.1 3.2-1.5l.3.6v.4l.4.1.1.1v.4h.4l.3-.3.3-.1.1-.1.1-.1h.1l.2.2.1.2.1.1.4.2.4-.1v-.2l-.1-.2h-.2v-.6l-.3-.2-.1-.5-.3-.6c1.7-.6 3.5-1.1 5.3-1.5v.4l.2.4.1.4-.1.1-.3.2-.1.2-.1.1-.4.5v.7h-.2l-.3.1-.2-.1h-.2l-.8-.4v.3l-.3.1-.1.1-.1.3.1.3.4.3.4-.1v-.2h.2v.2l.3.1h.1l-.4-.5.1-.1h.1v.1h.1v.1h.1l.1.1.1.1v.2l.1.2v.2l.3.3v.3l.1.4.1.2.4.3h.2l.1.1.1.1.1.1v.2l.1.1.1.1.4.2.1.2.2.1.2.2h.1v-.4l-.4-.8v-.1l-.2-.6v-.2h.1l.2.4h.2l.1.3.1.1.1.1.2.1.1.1h.2l.1.1v.1l.1.2h.1-.3l.1-.2v-.1l-.1-.1h-.1v-.3l.1-.1.1.1h.1l.1-.2v-.3l-.2-.2v-.1h.1l.1-.1v-.1l-.1-.3v-.1l-.1-.1v-.1H38v-.1l-.2-.1v-.7l-.2-.1.1-.2.1-.1v-.2l-.3-.2v-.1h.2l.1.1.1-.1h.1l.1.1h-.2l.3.4.1.1.1.1.1.1v.2l.1.3v.1l.1.2.1.1.1.1.1.1h.2l.2-.2h.1l.1-.3h.2l.1-.1h.1l.1-.2.1-.1v-.3h.2l.1-.1V11l.2-.2-.2-.5H40l-.1-.2-.2-.1-.1-.1v-.1l-.1-.5-.1-.2-.1-.1-.3-.1-.1-.1v-.2l-.2-.1v-.1l-.5-.6-.3-.4c1.7-.2 3.5-.4 5.2-.4.7 0 1.5 0 2.2.1l.1.9.8.3v.1l-.1.1-.1.1v.1l-.1.1v.1l-.1.1-.1.2v.2l-.1.1-.1.2v.3l-.1.1h-.5l-.2.2v.2l-.2.1-.1.1-.1.1v.2l-.3-.2v.3l-.1.1-.1.2.1.1v.1l.1.1v.1l-.1.1-.1.2v.9l.1.1.1.1v.6l-.1.1v.4l.1.1.3-.4h.1l.1-.1.2.1v.1h-.1l-.1.1v.1l-.1.1-.1.1-.3.3v.8l.1.3.1.1v.2h.1v.1l.1.2v.4h.1v.1l.1.3v.1l.1.1v.3h.1l.1.2zM17.4 38.7l.3.1.3.3.4.7.3.4.5.3.1.1.4.3.2.1h.2v.2l.5 1 .4.4.1.3.1.3.1.2.1.1.1.1h.1l.4.2.1.2.1.1.3-.1.2-.1.2-.1h.2l.2.1.1.1v.3l.1.2v.2l.1.2v.3l-.1.1-.1.4-.1.2v.2l-.2.1-.2.1.1.3-.2.1-.1.1-.1.1v.1l-.3.2h-.1l-.2.1-.1.2-.1.1-.1.1-.2.1-.1.5.1.2v.2l-.1.1-.5.3v.7l.2.5.1.2v.3l.2.3.1.8.1.3v.4l.1.2.1.6v.5l.4.6.5.5.6.4.2.3.2.4.2.2-.1.9-.1.4v.3l-.2.6-.1.2v.1l-.4 1-.2.2-.1.5-.1.1v.2l-.1.1-.2.4-.1.1-.2.1v.5l-.1.1-.1.2-.1.9-.1.2-.1.1-.1.3-.1.1-.3.6-.2.2-.3.5h-.1l-.1.1-.2.1-.1.1-.1.3v.2l-.1.2v.5l-.1.2h-.1l-.3.8v.2l.1.1h.3v.5l-.1.1v.1l-.2.2v.2l-.1.2v.4l-.1.1h-.1l-.1.1v.1l-.1.1v.1l-.1.1-.1.2v.1l-.1.1-.2.2v.1l-.1.1v.5l-.1.1v.4l-.1.3v.3l-.1.2-.1.1v.1C10.2 66.2 5.4 56.1 5.4 45c0-6.3 1.5-12.2 4.3-17.5l.4.3.2.3v.1l.2.3.4.3.5.5.1.1.1.1.1.2.1.2v.7l.1.1.1.3.3.4.1.1.1.1v.1l.2.2.1.2v.6l.1.1.1.1.2.1.1.1.1.1v.1l.2.5.1.1v.1l.1.2.2.4.1.3v.5l-.1.1-.1.1-.1.1v.3l.2.3.2.1-.2.2.1.3.4.3.2.1.3.3.8.5.1.1.2.2.2.2.2.1.2.2h.2l.5-.2z" clip-path="url(#D)" fill="#01848a"/></g></svg>
